<?xml version="1.0" encoding="utf-8"?>
<!-- Generator: Adobe Illustrator 28.0.0, SVG Export Plug-In . SVG Version: 6.00 Build 0)  -->
<svg version="1.1" id="레이어_1" xmlns="http://www.w3.org/2000/svg" xmlns:xlink="http://www.w3.org/1999/xlink" x="0px"
	 y="0px" width="48.2px" height="28.3px" viewBox="0 0 48.2 28.3" style="enable-background:new 0 0 48.2 28.3;"
	 xml:space="preserve">
<style type="text/css">
	.st0{fill:#FFFFFF;}
</style>
<g>
	<path class="st0" d="M34.5,0.2c-1.2,2.4-2.4,4.9-3.6,7.3c1.3,3.4,3.3,6.8,4.7,10.2c-1.4-0.6-2.8-1.1-4.3-1.3
		c-0.1,0-0.2-0.1-0.2-0.2c-0.8-1.5-1.4-3.3-2.3-4.7c-1.6,3.2-3.2,6.4-4.9,9.6C20.3,14.2,16.7,7,13.2,0c2.3,1.3,4.3,3.2,6.3,4.9
		c1.6,2.8,2.9,5.8,4.4,8.6c1.5-2.9,2.8-5.8,4.3-8.7C30.1,3.1,32.1,1.2,34.5,0.2z"/>
	<path class="st0" d="M12,18.2C7.2,20.3,3.2,24,0,28.2c3.5-7.6,7.2-15.2,10.7-22.9c0.2-0.4,0.4-0.9,0.6-1.2C12,5.4,12.6,6.7,13.2,8
		c3.2,6.8,6.4,13.5,9.6,20.3c-1.1,0.1-2.4,0-3.6,0.1c-0.2,0-0.2-0.1-0.3-0.2c-2.3-4.9-4.6-9.7-7-14.6c-0.3-0.4-0.4-1.1-0.7-1.4
		c-1.1,2.4-2.3,4.8-3.3,7.3C9.2,18.9,10.6,18.4,12,18.2L12,18.2z"/>
	<path class="st0" d="M36.8,18.4c1.2,0.1,2.3,0.5,3.4,0.8c-0.5-1.5-1.7-3.2-2-4.7c0.7-1.2,1.3-2.5,1.9-3.7c0.3,0.6,0.6,1.2,0.9,1.8
		c2.4,5.2,5,10.4,7.3,15.5C45.1,24.1,41.3,20.6,36.8,18.4C36.7,18.4,36.8,18.4,36.8,18.4z"/>
	<path class="st0" d="M38.6,7.6c-0.6,1.3-1.3,2.6-1.9,3.9c-0.7-1-1.3-2.5-1.9-3.7c-0.1-0.2-0.1-0.1,0-0.3c0.6-1.3,1.2-2.6,1.9-3.8
		C37.3,5,37.9,6.3,38.6,7.6z"/>
	<path class="st0" d="M28.9,28.3c-0.7-0.1-2.3,0.1-2.6-0.1c0.9-1.8,1.7-3.7,2.6-5.5c0.9,1.8,1.7,3.7,2.6,5.5c0,0.1,0,0.1,0,0.1
		C30.7,28.3,29.8,28.3,28.9,28.3C28.9,28.3,28.9,28.3,28.9,28.3z"/>
	<path class="st0" d="M12,18.2C12.1,18.2,12.1,18.2,12,18.2C12.1,18.2,12.1,18.2,12,18.2C12,18.2,12,18.2,12,18.2z"/>
</g>
</svg>
