<?xml version="1.0" encoding="utf-8"?>
<!-- Generator: Adobe Illustrator 28.0.0, SVG Export Plug-In . SVG Version: 6.00 Build 0)  -->
<svg version="1.1" id="레이어_1" xmlns="http://www.w3.org/2000/svg" xmlns:xlink="http://www.w3.org/1999/xlink" x="0px"
	 y="0px" width="141.7px" height="21px" viewBox="0 0 141.7 21" style="enable-background:new 0 0 141.7 21;" xml:space="preserve">
<style type="text/css">
	.st0{fill:#19102D;}
	.st1{fill:#FFFFFF;}
</style>
<g>
	<g>
		<rect y="16.5" class="st0" width="91.6" height="4.3"/>
	</g>
	<g>
		<rect class="st0" width="141.7" height="10.4"/>
	</g>
	<g>
		<g>
			<g>
				<path class="st1" d="M9.5,9.9c-0.2,0.3-0.4,0.4-0.7,0.4c-0.8,0-1.1-0.6-1.3-1.4C7,7.2,6.6,6.5,5.2,6.5H3.5l0,3.2h0.8v0.4h-2V9.7
					H3l0-8.5H1.5c-0.6,0-1.1,0.3-1.1,1c0,0.5,0.2,0.9,0.6,0.9c0.2,0,0.2-0.1,0.2-0.2c0-0.1-0.1-0.1-0.1-0.3c0-0.2,0.2-0.4,0.4-0.4
					C1.9,2.2,2,2.4,2,2.7C2,3,1.8,3.5,1.1,3.5C0.4,3.5,0,2.9,0,2.2c0-0.9,0.7-1.4,1.5-1.4l3.7,0c2.4,0,3.4,1.2,3.4,2.7
					c0,1.6-0.8,2.7-2.9,2.8v0C7.3,6.5,7.7,7.7,8,9c0.2,0.7,0.4,0.9,0.8,0.9c0.2,0,0.4-0.1,0.5-0.2L9.5,9.9z M8.2,3.5
					c0-1.4-0.9-2.3-3.2-2.3H3.5v4.9H5C7.3,6.1,8.2,5.1,8.2,3.5z"/>
			</g>
			<g>
				<path class="st1" d="M16.5,9.7c-0.1,0.3-0.4,0.5-0.8,0.5c-0.5,0-0.9-0.3-0.9-0.9V9.1c-0.4,0.8-1.3,1.2-2.4,1.2
					c-1.5,0-2.7-0.6-2.7-2.2c0-1.6,1.3-2.4,3.1-2.4c0.8,0,1.4,0.1,2,0.4V5.6c0-1.4-0.7-2-2.2-2c-0.8,0-2,0.3-2,0.8
					c0,0.2,0.2,0.1,0.2,0.5c0,0.3-0.2,0.4-0.4,0.4C10.2,5.2,10,5,10,4.7c0-0.5,0.3-1,1.1-1.3c0.5-0.2,1-0.3,1.5-0.3
					c1.8,0,2.7,0.8,2.7,2.5v3.6c0,0.4,0.2,0.5,0.5,0.5c0.2,0,0.3,0,0.4-0.2L16.5,9.7z M14.8,7.7V6.4c-0.4-0.2-1.1-0.4-1.9-0.4
					c-1.6,0-2.7,0.6-2.7,2c0,1.4,1,1.8,2.3,1.8C13.8,9.9,14.8,9.3,14.8,7.7z"/>
			</g>
			<g>
				<path class="st1" d="M22.9,6.7c0,2.5-1.3,3.6-3.1,3.6c-0.9,0-1.6-0.3-2.1-0.7l-0.4,0.6h-0.3V0.8h-0.8V0.4l1.2,0v3.8
					c0.5-0.6,1.2-1.1,2.3-1.1C21.7,3.2,22.9,4.3,22.9,6.7z M22.4,6.7c0-2.3-1.2-3.1-2.6-3.1c-1,0-1.8,0.5-2.2,1.1v3
					c0,1.4,0.7,2.2,2.2,2.2C21.3,9.9,22.4,9,22.4,6.7z"/>
			</g>
			<g>
				<path class="st1" d="M29.9,6.7c0,2.5-1.3,3.6-3.1,3.6c-0.9,0-1.6-0.3-2.1-0.7l-0.4,0.6h-0.3V0.8h-0.8V0.4h1.2v3.8
					c0.5-0.6,1.2-1.1,2.3-1.1C28.6,3.2,29.9,4.3,29.9,6.7z M29.3,6.7c0-2.3-1.2-3.1-2.6-3.1c-1,0-1.8,0.5-2.2,1.1l0,3
					c0,1.4,0.7,2.2,2.2,2.2C28.2,9.9,29.3,9,29.3,6.7z"/>
			</g>
			<g>
				<path class="st1" d="M30.3,9.7h0.8v-6h-0.8V3.4h1.2v6.4h0.8v0.4h-2V9.7z M30.9,1.4c0-0.3,0.2-0.5,0.4-0.5c0.2,0,0.4,0.2,0.4,0.5
					s-0.2,0.5-0.4,0.5C31.1,1.8,30.9,1.6,30.9,1.4z"/>
			</g>
			<g>
				<path class="st1" d="M35.3,9.8c-0.2,0.3-0.5,0.6-0.9,0.6c-0.7,0-1.2-0.4-1.2-1.3V3.8l-0.7,0V3.4h0.7V2.5c0.2,0,0.2-0.1,0.2-0.7
					h0.3v1.6h1.6v0.4h-1.6v5.3c0,0.6,0.3,0.8,0.8,0.8c0.2,0,0.5-0.1,0.6-0.3L35.3,9.8z"/>
			</g>
		</g>
		<g>
			<g>
				<path class="st1" d="M76.8,6.7c0,2.5-1.3,3.6-3.2,3.6c-0.9,0-1.6-0.1-2.4-0.7l-0.8,0.7h-0.3V0.8h-0.8V0.4l2.6,0v3.4
					C72.3,3.2,73,3,73.7,3C75.5,3,76.8,4.2,76.8,6.7z M74.9,6.7c0-2.6-0.6-3.1-1.7-3.1c-0.4,0-0.9,0.2-1.3,0.8v3.7
					c0,1.2,0.4,1.8,1.4,1.8C74.2,9.9,74.9,9.4,74.9,6.7z"/>
			</g>
			<g>
				<path class="st1" d="M77.1,9.7h0.8V0.8l-0.8,0V0.4l2.5,0v9.3h0.8v0.4h-3.3V9.7z"/>
			</g>
			<g>
				<path class="st1" d="M88.8,9.6c-0.2,0.5-0.5,0.7-1.3,0.7c-0.9,0-1.5-0.3-1.7-1c-0.3,0.7-1.1,1.1-2.2,1.1c-1.4,0-2.8-0.5-2.8-2.3
					c0-1.9,1.6-2.4,3.4-2.4c0.7,0,1.2,0.1,1.6,0.3V5.1c0-1.1-0.5-1.6-1.8-1.6c-0.7,0-1.7,0.2-1.7,0.6c0,0.3,0.4,0.2,0.4,0.7
					c0,0.4-0.3,0.7-0.7,0.7c-0.5,0-0.7-0.3-0.7-0.8c0-0.7,0.6-1.2,1.5-1.5C83.3,3,83.7,3,84.2,3c2.4,0,3.4,0.9,3.4,2.7v3.5
					c0,0.3,0.2,0.5,0.5,0.5c0.2,0,0.4-0.1,0.5-0.3L88.8,9.6z M85.8,8V6.2c-0.2-0.1-0.7-0.2-1.1-0.2c-1.1,0-1.9,0.5-1.9,2
					c0,1.4,0.7,1.7,1.5,1.7C85.1,9.8,85.8,9.3,85.8,8z"/>
			</g>
			<g>
				<path class="st1" d="M88.6,6.7c0-2.6,1.8-3.6,4.1-3.6c1.3,0,2.6,0.4,2.6,1.6c0,0.7-0.4,1.1-1.1,1.1c-0.6,0-1.1-0.3-1.1-1
					c0-0.7,0.5-0.8,0.5-1c0-0.3-0.5-0.3-1-0.3c-1.5,0-2.2,0.8-2.2,3.2c0,2.6,0.8,3.1,2.1,3.1c0.7,0,1.6-0.1,2.3-1.4l0.3,0.2
					c-0.7,1.3-1.8,1.7-2.9,1.7C90.5,10.3,88.6,9.3,88.6,6.7z"/>
			</g>
			<g>
				<path class="st1" d="M104,9.5c-0.2,0.5-0.6,0.8-1.3,0.8c-1,0-1.9-0.5-2.3-1.7c-0.3-1-0.6-1.7-0.9-2c-0.2-0.2-0.4-0.3-0.7-0.3
					c-0.2,0-0.4,0-0.6,0.1v3.4H99v0.4h-3.4V9.7h0.8V0.8l-0.8,0V0.4l2.5,0v5.5c0.8-0.2,1.2-0.8,1.6-1.5c0.5-0.9,1-1.3,1.8-1.3
					c0.7,0,1.3,0.3,1.3,1.1c0,0.7-0.4,1.1-1.1,1.1c-0.6,0-1-0.3-1-0.9c0-0.7,0.4-0.7,0.4-0.8c0-0.1-0.1-0.1-0.2-0.1
					c-0.2,0-0.5,0.3-1,1.1c-0.3,0.5-0.7,1.1-1.4,1.3c0.2,0,0.3,0,0.5,0c0.8,0,1.5,0.2,2,0.6c0.5,0.5,0.8,1.1,1.1,1.9
					c0.5,1.3,0.7,1.4,1.1,1.4c0.2,0,0.3-0.1,0.4-0.4L104,9.5z"/>
			</g>
			<g>
				<path class="st1" d="M112.2,4.4c0,0.8-0.5,1.2-1.1,1.2c-0.6,0-1-0.3-1-1c0-0.7,0.4-0.7,0.4-0.9c0-0.1,0-0.1-0.2-0.1
					c-0.6,0-1.3,0.5-1.8,1.8v4.2h0.9v0.4h-3.4V9.7h0.8V3.6h-0.8V3.2h2.5v1.4c0.6-1.2,1.5-1.6,2.2-1.6C111.5,3,112.2,3.4,112.2,4.4z"
					/>
			</g>
			<g>
				<path class="st1" d="M112.3,6.7c0-2.5,1.8-3.7,3.8-3.7c1.9,0,3.7,1.1,3.7,3.7c0,2.6-1.8,3.7-3.7,3.7
					C114.1,10.4,112.3,9.2,112.3,6.7z M117.9,6.7c0-2.4-0.8-3.2-1.9-3.2c-1.1,0-1.9,0.8-1.9,3.2c0,2.4,0.8,3.3,1.9,3.3
					C117.1,9.9,117.9,9.1,117.9,6.7z"/>
			</g>
			<g>
				<path class="st1" d="M120.3,6.7c0-2.5,1.8-3.7,3.8-3.7c1.9,0,3.7,1.1,3.7,3.7c0,2.6-1.8,3.7-3.7,3.7
					C122.1,10.4,120.3,9.2,120.3,6.7z M125.9,6.7c0-2.4-0.8-3.2-1.9-3.2c-1.1,0-1.9,0.8-1.9,3.2c0,2.4,0.8,3.3,1.9,3.3
					C125.1,9.9,125.9,9.1,125.9,6.7z"/>
			</g>
			<g>
				<path class="st1" d="M141.7,9.6c-0.2,0.5-0.5,0.7-1.3,0.7c-1.2,0-1.8-0.5-1.8-1.6V4.8c0-0.8-0.3-1.2-1-1.2
					c-0.6,0-1.2,0.2-2.1,1.1v5h0.8v0.4h-3.3V9.7h0.8V4.6c0-0.7-0.3-1.1-1.1-1.1c-0.6,0-1.3,0.3-2.1,1.2v4.9h0.8v0.4h-3.3V9.7h0.8
					V3.6h-0.8V3.2h2.5v1.1c0.8-0.9,1.7-1.2,2.6-1.2c1.2,0,1.9,0.5,2.3,1.2c0.9-1,1.7-1.2,2.5-1.2c1.6,0,2.4,1,2.4,2.6v3.6
					c0,0.3,0.2,0.5,0.5,0.5c0.2,0,0.4-0.1,0.5-0.3L141.7,9.6z"/>
			</g>
		</g>
		<g>
			<g>
				<path class="st1" d="M42.4,2.7c0.2,0,0.5-0.4,0.5-0.6c0-0.5-0.3-0.9-0.8-0.9h0c-0.4,0-0.5,0.3-0.7,0.7
					C41.5,2.3,41.7,2.7,42.4,2.7z"/>
			</g>
			<g>
				<path class="st1" d="M49,8.3c-0.2,0.3-1,1.3-1.5,1.3c-0.1,0-0.2-0.1-0.3-0.2c-0.1-0.2-0.1-0.6-0.1-0.8c0,0,0.7-2,0.9-2.4l0-0.3
					c0-0.2-0.1-0.3-0.2-0.5c-0.1-0.1-0.3-0.2-0.5-0.2c-0.2,0-0.5,0.2-0.7,0.4c-0.1,0.1-0.2,0.1-0.2,0.2l-0.7,0.7l-0.3,0.4
					c0,0.1-0.1,0.1-0.2,0.1c0,0,0,0,0,0c-0.1,0-0.1,0-0.2-0.1c-0.1-0.1,0-0.8,0.1-1.1c0-0.3-0.1-0.7-0.4-0.7c-0.6,0-1.3,0.6-1.7,1.2
					c-0.2,0.4-0.4,0.7-0.6,0.9c-0.1,0.2-0.2,0.4-0.3,0.5c-0.5,0.8-1,1.5-1.9,1.8c-0.1,0-0.1,0-0.2,0c-0.2,0-0.5-0.1-0.6-0.3
					c-0.1-0.2-0.1-0.4-0.1-0.5c0.1-0.7,0.5-1.5,1-2.3L41,5.8c0,0,0-0.1,0-0.2c0-0.3-0.1-0.4-0.1-0.4c-0.2,0-0.5,0.4-0.6,0.5
					C40.2,5.9,40.1,6,40,6.1c-0.1,0.1-0.2,0.3-0.3,0.6c-0.5,0.8-0.9,2-0.9,2.9c0,0.7,0.9,0.8,1.3,0.8c0.8,0,1.4-0.7,1.8-1.3
					c0.5-0.6,0.9-1.3,1.3-2L43.2,7c0.2-0.4,0.6-1.1,1.2-1.2c0.1,0,0.2,0.1,0.3,0.2c0.2,0.3,0,1-0.6,2.2C44.1,8.3,44,8.4,44,8.6
					c-0.1,0.2-0.1,0.4-0.2,0.5c-0.1,0.1-0.1,0.2-0.2,0.3c-0.1,0.2-0.2,0.5-0.3,0.6c0,0.1,0.1,0.4,0.3,0.4c0.1,0,0.3-0.3,0.4-0.4
					c0.1-0.1,0.1-0.2,0.2-0.3c0.4-0.7,0.5-0.8,0.6-0.9L45,8.3c0.6-0.9,0.7-1.1,0.9-1.3C46,7,46,6.9,46,6.9c0.1-0.1,0.6-0.7,0.9-0.7
					c0.1,0,0.2,0.1,0.3,0.1c0.2,0.3,0,0.8-0.1,1.1L47,7.7c-0.1,0.2-0.1,0.3-0.2,0.6l-0.1,0.4c0,0.1-0.1,0.4-0.1,0.6l0,0.3
					c0,0,0,0.1,0,0.1c0,0,0,0.1,0,0.1c0,0.1,0.3,0.6,0.7,0.6c0.4,0,1-0.5,1.3-0.7l0.1-0.1c0.4-0.4,1-1.1,1.1-1.6l0.1-0.3
					c0,0,0-0.1,0-0.1c0,0-0.1,0-0.2-0.1C49.5,7.5,49.1,8.1,49,8.3z"/>
			</g>
			<g>
				<path class="st1" d="M65.5,8.7c-0.3,0.3-0.7,0.6-1,0.8c-0.6,0.4-1,0.4-1.4,0.4c-0.1,0-0.1,0-0.3,0c-0.2-0.1-0.4-0.2-0.5-0.5
					c-0.1-0.3-0.1-0.6,0-0.7c0-0.1,0.1-0.1,0.2-0.1h0.3c0.9,0,2.1-0.9,2.5-1.4c0.4-0.5,0.6-0.9,0.6-1.5c0-0.2,0-0.6-0.2-0.9
					c-0.1-0.1-0.2-0.2-0.3-0.2c0,0-0.1,0-0.1,0c-0.8,0-1.6,0.3-2.1,0.8c-0.4,0.5-0.7,0.9-1,1.3c-0.1,0.1-0.1,0.3-0.2,0.5
					c-0.1,0.1-0.1,0.3-0.2,0.4c-0.1,0.1-0.2,0.3-0.2,0.4c-0.1,0.1-0.1,0.2-0.2,0.3c-0.2,0.4-0.9,1.3-1.5,1.3c-0.1,0-0.3-0.1-0.3-0.2
					c-0.2-0.3-0.1-0.7,0-0.9c0.2-0.5,0.4-0.9,0.5-1.2c0.1-0.3,0.3-0.6,0.4-0.9l0-0.3c0-0.2-0.1-0.3-0.2-0.5
					c-0.1-0.1-0.3-0.2-0.6-0.2c-0.1,0-0.2-0.1-0.2-0.2c0-0.1,0-0.2,0.1-0.3c0.5-0.3,0.9-0.7,1.2-1.1c0.2-0.3,0.9-1.5,1-2.6
					c0-0.5,0-0.7-0.1-1C61.6,0.3,61.3,0,61.2,0c-0.8,0-1.7,1.5-2.3,2.9c-0.1,0.2-0.2,0.5-0.4,0.8c0,0.1-0.2,0.1-0.3,0.1
					c0,0-0.3,0-0.3,0c-0.3,0-0.4,0-0.5,0l-0.9,0c-0.1,0-0.2-0.1-0.2-0.2c0-0.2,1.2-1.7,1.3-1.8c0,0,0.1-0.1,0.1-0.2
					C57.8,1.5,58,1.3,58,1.1c0-0.1-0.2-0.4-0.2-0.4c0,0-0.2,0.1-0.2,0.1l-0.3,0.3c-0.2,0.2-0.4,0.5-0.7,0.8l-0.2,0.2
					c-0.1,0.1-0.2,0.3-0.3,0.5L56,2.9l-0.4,0.6c-0.2,0.4-0.6,0.4-0.8,0.4l-2.8,0c-0.2,0-0.3,0-0.4,0.1c0,0,0,0,0,0c0,0,0,0-0.1,0.1
					c-0.1,0.1-0.2,0.2-0.2,0.3c0,0,0.1,0.1,0.5,0.2c0,0,0,0,0,0l2.8,0c0.1,0,0.2,0,0.2,0.1c0,0.1,0,0.2,0,0.2
					c-0.2,0.3-0.7,1.2-0.9,1.5l-0.2,0.4c-0.4,0.8-1,1.9-1,2.7c0,0.2,0.1,0.5,0.3,0.7c0.2,0.2,0.4,0.3,0.7,0.3c0.5,0,1.2-0.2,1.7-0.6
					c0,0,0.1,0,0.1,0c0,0,0.1,0,0.1,0c0.1,0.1,0.1,0.2,0.1,0.2c0,0.1,0.1,0.4,0.3,0.4c0.1,0,0.3-0.3,0.4-0.4
					c0.1-0.1,0.1-0.2,0.2-0.3c0.4-0.7,0.6-1,0.6-1.2L57.6,8c0.6-0.9,0.6-1,0.8-1.1c0,0,0.1-0.1,0.1-0.1c0.2-0.2,0.6-0.4,0.9-0.4
					c0.1,0,0.2,0.1,0.3,0.2c0.2,0.3-0.1,1-0.1,1.1c-0.1,0.3-0.1,0.3-0.2,0.5l-0.2,0.5C59.1,8.9,59,9,59.1,9.2l0,0.4
					c0,0.1,0,0.1,0,0.2c0,0.1,0.3,0.6,0.7,0.6c0.4,0,1-0.5,1.3-0.7l0.1-0.1c0.1-0.1,0.2-0.2,0.2-0.3c0-0.1,0.1-0.1,0.2-0.1
					c0,0,0,0,0.1,0c0.1,0,0.1,0.1,0.2,0.2c0.1,0.6,0.8,1,1,1c0.5,0,1.1,0,1.8-0.4c1.1-0.6,1.9-1.5,2-2C66.3,8,65.9,8.4,65.5,8.7z
					 M63.3,6.3c0.3-0.5,1-1,1.6-1c0.1,0,0.2,0,0.2,0c0,0,0.1,0,0.1,0c0.4,0.3,0.2,1-0.1,1.3c-0.4,0.6-1.5,1.3-2.3,1.4
					c-0.1,0-0.1,0-0.2-0.1c0,0-0.1-0.1-0.1-0.2C62.7,7.3,63,6.8,63.3,6.3z M58,4.8c-0.4,1-0.9,2.2-1.3,3.3c-0.1,0.2-1.4,1.3-1.8,1.4
					c-0.5,0.2-0.7,0.3-0.8,0.3c-0.4,0-0.5-0.2-0.5-0.5c0-0.5,0-0.6,0.4-1.3c0.2-0.6,1.5-3,1.8-3.3c0,0,0.1-0.1,0.1-0.1
					c0.3-0.1,0.6-0.1,0.9-0.1l0.7,0c0.1,0,0.3,0,0.3,0c0.1,0,0.1,0,0.2,0.1C58,4.6,58,4.7,58,4.8z M58.8,5.4
					C58.8,5.4,58.7,5.5,58.8,5.4c-0.2,0-0.2,0-0.2,0c-0.1-0.1-0.1-0.2-0.1-0.2c0.1-0.2,0.1-0.2,0.1-0.2c0,0,0-0.1,0-0.1
					c0,0,0-0.1,0-0.2c0.2-0.5,0.3-0.8,0.5-1.2l0.1-0.2c0.1-0.2,0.7-1.5,1-1.8c0.1-0.3,0.3-0.6,0.7-0.6l0.1,0c0,0,0.1,0,0.1,0
					c0.2,0.1,0.3,0.3,0.3,0.6c0,0.6-0.5,1.6-0.9,2.1C59.9,4.5,59.3,5.2,58.8,5.4z"/>
			</g>
		</g>
	</g>
	<g>
		<path class="st1" d="M111,19.5l1.4-2.8h0.3v4.2h-0.4v-3.4l-1.2,2.5h-0.3l-1.2-2.5v3.4h-0.4v-4.2h0.3L111,19.5z"/>
		<path class="st1" d="M116.7,20.9l-1.6-2.3l-0.9,1v1.2h-0.4v-4.2h0.4v2.5l2.1-2.5h0.5l-1.4,1.7l1.7,2.5H116.7z"/>
		<path class="st1" d="M117.9,16.7l0.8,3.6l1-3.6h0.4l1.1,3.5l0.8-3.5h0.4l-1,4.2H121l-1-3.6l-1,3.6h-0.4l-1-4.2H117.9z"/>
		<path class="st1" d="M123.4,16.7l1.1,2l1.1-2h0.4l-1.4,2.4v1.8h-0.4V19l-1.4-2.4H123.4z"/>
		<path class="st1" d="M126.2,19h1.5v0.3h-1.5V19z"/>
		<path class="st1" d="M131.3,19.6c0,0.9-0.7,1.3-1.4,1.3c-0.8,0-1.4-0.4-1.4-1.3V18c0-1,0.7-1.3,1.4-1.3c0.8,0,1.4,0.4,1.4,1.3
			V19.6z M129.9,17.3c-0.4,0-0.6,0.2-0.6,0.7v1.5c0,0.5,0.2,0.7,0.6,0.7c0.4,0,0.6-0.2,0.6-0.7V18C130.5,17.6,130.3,17.3,129.9,17.3
			z"/>
		<path class="st1" d="M134.9,19.6c0,0.9-0.7,1.3-1.4,1.3c-0.8,0-1.4-0.4-1.4-1.3V18c0-1,0.7-1.3,1.4-1.3c0.8,0,1.4,0.4,1.4,1.3
			V19.6z M133.5,17.3c-0.4,0-0.6,0.2-0.6,0.7v1.5c0,0.5,0.2,0.7,0.6,0.7c0.4,0,0.6-0.2,0.6-0.7V18C134,17.6,133.8,17.3,133.5,17.3z"
			/>
		<path class="st1" d="M137.3,20.9h-0.9v-3.3l-0.6,0.4v-0.8l0.7-0.5h0.8V20.9z"/>
		<path class="st1" d="M140.7,16.7l-1.3,2.9h0.8v-1.1h0.9v1.1h0.4v0.7h-0.4v0.6h-0.9v-0.6h-1.9v-0.6l1.4-3H140.7z"/>
	</g>
	<g>
		<g>
			<path class="st1" d="M4.9,20.9l-0.8-1.2h0H3.1v1.2h-1v-4.3H4c1.1,0,1.9,0.6,1.9,1.6c0,0.6-0.3,1.1-0.9,1.4l1,1.4H4.9z M4,17.4
				H3.1v1.5H4c0.6,0,0.9-0.3,0.9-0.7C4.9,17.7,4.6,17.4,4,17.4z"/>
		</g>
		<g>
			<path class="st1" d="M9.9,20h-2l-0.4,0.9h-1l1.9-4.3h1l1.9,4.3h-1L9.9,20z M9.6,19.2l-0.7-1.6l-0.7,1.6H9.6z"/>
		</g>
		<g>
			<path class="st1" d="M16,19.7c0,0.7-0.6,1.2-1.7,1.2h-2.2v-4.3h2.1c1.1,0,1.6,0.4,1.6,1.1c0,0.4-0.2,0.8-0.6,0.9
				C15.7,18.8,16,19.2,16,19.7z M13.1,17.4v1h1c0.5,0,0.7-0.2,0.7-0.5c0-0.3-0.3-0.5-0.7-0.5H13.1z M15,19.6c0-0.4-0.3-0.5-0.8-0.5
				h-1.2v1.1h1.2C14.8,20.1,15,20,15,19.6z"/>
		</g>
		<g>
			<path class="st1" d="M21,19.7c0,0.7-0.6,1.2-1.7,1.2h-2.2v-4.3h2.1c1.1,0,1.6,0.4,1.6,1.1c0,0.4-0.2,0.8-0.6,0.9
				C20.7,18.8,21,19.2,21,19.7z M18.1,17.4v1h1c0.5,0,0.7-0.2,0.7-0.5c0-0.3-0.3-0.5-0.7-0.5H18.1z M20,19.6c0-0.4-0.3-0.5-0.8-0.5
				h-1.2v1.1h1.2C19.8,20.1,20,20,20,19.6z"/>
		</g>
		<g>
			<path class="st1" d="M22.1,16.6h1v4.3h-1V16.6z"/>
		</g>
		<g>
			<path class="st1" d="M25.3,17.4h-1.4v-0.8h3.7v0.8h-1.4v3.5h-1V17.4z"/>
		</g>
		<g>
			<path class="st1" d="M34.1,16.6v4.3h-1v-1.8h-1.9v1.8h-1v-4.3h1v1.7h1.9v-1.7H34.1z"/>
		</g>
		<g>
			<path class="st1" d="M35.2,18.7c0-1.3,1-2.2,2.3-2.2c1.3,0,2.3,0.9,2.3,2.2c0,1.3-1,2.2-2.3,2.2C36.2,21,35.2,20,35.2,18.7z
				 M38.9,18.7c0-0.8-0.6-1.4-1.3-1.4c-0.8,0-1.3,0.6-1.3,1.4c0,0.8,0.6,1.4,1.3,1.4C38.3,20.1,38.9,19.6,38.9,18.7z"/>
		</g>
		<g>
			<path class="st1" d="M40.9,19v-2.4h1V19c0,0.8,0.4,1.1,1,1.1c0.6,0,1-0.3,1-1.1v-2.4h1V19c0,1.3-0.7,2-1.9,2S40.9,20.3,40.9,19z"
				/>
		</g>
		<g>
			<path class="st1" d="M45.7,20.5l0.3-0.7c0.4,0.3,0.9,0.4,1.4,0.4c0.6,0,0.8-0.2,0.8-0.5c0-0.8-2.5-0.3-2.5-1.8
				c0-0.7,0.6-1.3,1.8-1.3c0.5,0,1.1,0.1,1.5,0.4l-0.3,0.8c-0.4-0.2-0.8-0.3-1.2-0.3c-0.6,0-0.8,0.2-0.8,0.5c0,0.8,2.5,0.2,2.5,1.8
				c0,0.7-0.6,1.3-1.8,1.3C46.8,21,46.1,20.8,45.7,20.5z"/>
		</g>
		<g>
			<path class="st1" d="M53.6,20.1v0.8h-3.3v-4.3h3.2v0.8h-2.2v0.9h2v0.8h-2v1H53.6z"/>
		</g>
		<g>
			<path class="st1" d="M58.1,20.6c0-0.7,0-1.3,0-1.6c0-0.4,0-0.9,0-1.6c-0.1,0.1-0.2,0.3-0.4,0.4c-0.2,0.1-0.4,0.2-0.6,0.2v-0.4
				c0.2,0,0.4-0.1,0.5-0.2c0.2-0.1,0.3-0.2,0.4-0.3c0.1-0.1,0.1-0.3,0.1-0.4h0.4v4.3h-0.4C58.1,20.8,58.1,20.7,58.1,20.6z"/>
		</g>
		<g>
			<path class="st1" d="M60.5,20.9c-0.2-0.1-0.4-0.2-0.6-0.4c-0.2-0.2-0.3-0.4-0.4-0.7l0.4-0.1c0.1,0.3,0.2,0.6,0.5,0.8
				c0.2,0.2,0.5,0.3,0.8,0.3c0.2,0,0.3,0,0.5-0.1c0.2-0.1,0.3-0.2,0.4-0.3c0.1-0.1,0.2-0.3,0.2-0.5c0-0.2,0-0.3-0.1-0.4
				c-0.1-0.1-0.2-0.2-0.3-0.2c-0.1-0.1-0.2-0.1-0.4-0.2c0,0-0.1,0-0.1,0l-0.4-0.1c-0.2-0.1-0.4-0.1-0.5-0.2
				c-0.2-0.1-0.3-0.2-0.4-0.4c-0.1-0.2-0.2-0.4-0.2-0.6c0-0.2,0.1-0.4,0.2-0.6s0.3-0.3,0.5-0.4c0.2-0.1,0.4-0.1,0.7-0.1
				c0.2,0,0.4,0,0.6,0.1c0.2,0.1,0.4,0.2,0.5,0.3c0.1,0.2,0.2,0.3,0.3,0.6l-0.3,0.1c-0.1-0.2-0.2-0.4-0.4-0.6
				c-0.2-0.1-0.4-0.2-0.7-0.2c-0.2,0-0.3,0-0.5,0.1c-0.1,0.1-0.3,0.2-0.3,0.3c-0.1,0.1-0.1,0.2-0.1,0.4c0,0.2,0.1,0.4,0.3,0.5
				c0.2,0.1,0.4,0.2,0.6,0.3c0,0,0,0,0,0s0,0,0,0l0.4,0.1c0,0,0.1,0,0.1,0c0.2,0.1,0.4,0.1,0.5,0.2c0.1,0.1,0.3,0.2,0.4,0.3
				c0.1,0.1,0.2,0.3,0.2,0.5c0,0.2-0.1,0.5-0.2,0.7c-0.1,0.2-0.3,0.3-0.5,0.4c-0.2,0.1-0.5,0.2-0.7,0.2C61,21,60.7,20.9,60.5,20.9z"
				/>
		</g>
		<g>
			<path class="st1" d="M63.7,17c-0.2,0-0.4,0-0.7,0v-0.4h3.3V17c-0.3,0-0.6,0-0.7,0c-0.2,0-0.4,0-0.7,0v3.9h-0.4V17
				C64.1,17,63.9,17,63.7,17z"/>
		</g>
		<g>
			<path class="st1" d="M69.9,16.6h0.4l1.7,4.3h-0.4c0,0,0-0.1,0-0.1c-0.1-0.3-0.2-0.6-0.3-0.7c-0.1-0.2-0.2-0.4-0.3-0.7
				c-0.4,0-0.7,0-0.9,0s-0.5,0-0.9,0c-0.1,0.3-0.2,0.6-0.3,0.8c-0.1,0.2-0.2,0.4-0.3,0.7h-0.4L69.9,16.6z M70.1,19
				c0.2,0,0.4,0,0.8,0c0,0-0.1-0.2-0.2-0.6c-0.1-0.3-0.2-0.5-0.3-0.7c-0.1-0.2-0.2-0.4-0.3-0.7h0c-0.1,0.2-0.2,0.5-0.3,0.7
				c-0.2,0.4-0.3,0.8-0.5,1.3C69.7,19,69.9,19,70.1,19z"/>
		</g>
		<g>
			<path class="st1" d="M72.9,16.6h0.4c0,0.1,0,0.1,0,0.2c0,0.8,0,1.4,0,1.9c0,0.4,0,1,0,1.8c0.5,0,0.9,0,1.1,0c0.2,0,0.6,0,1.1,0
				v0.4h-2.6V16.6z"/>
		</g>
		<g>
			<path class="st1" d="M76.4,16.6H78c0.3,0,0.5,0.1,0.7,0.2c0.2,0.1,0.4,0.2,0.5,0.4s0.2,0.4,0.2,0.6c0,0.1,0,0.3-0.1,0.4
				c-0.1,0.1-0.1,0.2-0.3,0.3c-0.1,0.1-0.3,0.2-0.4,0.2v0c0.2,0,0.4,0.1,0.5,0.2c0.1,0.1,0.2,0.2,0.3,0.4c0.1,0.1,0.1,0.3,0.1,0.5
				c0,0.2-0.1,0.4-0.2,0.6c-0.1,0.2-0.3,0.3-0.5,0.4c-0.2,0.1-0.4,0.1-0.7,0.1h-1.7V16.6z M77.4,18.6c0.1,0,0.3,0,0.5,0
				c0.2,0,0.4,0,0.5-0.1c0.1-0.1,0.3-0.2,0.3-0.3c0.1-0.1,0.1-0.3,0.1-0.4c0-0.2,0-0.3-0.1-0.4c-0.1-0.1-0.2-0.2-0.4-0.3
				C78.2,17,78.1,17,77.9,17h-0.1c-0.2,0-0.4,0-0.5,0c-0.1,0-0.2,0-0.4,0c0,0.4,0,0.6,0,0.8c0,0.2,0,0.4,0,0.8
				C77.1,18.6,77.2,18.6,77.4,18.6z M77.4,20.5c0.1,0,0.3,0,0.6,0c0.2,0,0.4,0,0.5-0.1c0.2-0.1,0.3-0.2,0.4-0.3
				C79,20,79,19.9,79,19.7c0-0.2,0-0.3-0.1-0.4c-0.1-0.1-0.2-0.2-0.4-0.3c-0.2-0.1-0.3-0.1-0.5-0.1c-0.3,0-0.5,0-0.6,0s-0.3,0-0.6,0
				c0,0.4,0,0.6,0,0.8c0,0.2,0,0.4,0,0.8C77.1,20.5,77.3,20.5,77.4,20.5z"/>
		</g>
		<g>
			<path class="st1" d="M81.2,20.8c-0.2-0.1-0.4-0.3-0.5-0.6c-0.1-0.2-0.2-0.5-0.2-0.9v-2.7h0.4v2.7c0,0.3,0,0.5,0.1,0.7
				s0.2,0.3,0.4,0.4c0.2,0.1,0.4,0.1,0.6,0.1c0.4,0,0.6-0.1,0.8-0.3c0.2-0.2,0.3-0.5,0.3-0.9c0,0,0,0,0-0.1v-2.7h0.4v2.7
				c0,0.3-0.1,0.6-0.2,0.9s-0.3,0.4-0.5,0.6C82.7,20.9,82.4,21,82,21C81.7,21,81.4,20.9,81.2,20.8z"/>
		</g>
		<g>
			<path class="st1" d="M84.9,16.6h0.5c0.4,0.8,0.7,1.5,0.9,1.9c0.2,0.4,0.5,1,0.8,1.8h0c0.4-0.8,0.7-1.5,0.9-1.9
				c0.2-0.4,0.5-1,0.8-1.8h0.5v4.3h-0.4c0-0.2,0-0.3,0-0.5c0-0.7,0-1.2,0-1.5c0-0.3,0-0.8,0-1.5h0c-0.2,0.5-0.4,0.9-0.5,1.2
				c-0.1,0.3-0.3,0.7-0.5,1.2c-0.1,0.2-0.2,0.4-0.2,0.5c-0.1,0.1-0.1,0.3-0.2,0.5h-0.4c-0.1-0.3-0.2-0.4-0.3-0.6
				c-0.1-0.1-0.1-0.3-0.2-0.6c-0.2-0.5-0.4-0.9-0.5-1.2c-0.1-0.3-0.3-0.7-0.5-1.2h0c0,0.7,0,1.2,0,1.5c0,0.3,0,0.8,0,1.5
				c0,0.2,0,0.3,0,0.5h-0.4V16.6z"/>
		</g>
	</g>
</g>
</svg>
