<?xml version="1.0" encoding="utf-8"?>
<!-- Generator: Adobe Illustrator 28.0.0, SVG Export Plug-In . SVG Version: 6.00 Build 0)  -->
<svg version="1.1" id="레이어_1" xmlns="http://www.w3.org/2000/svg" xmlns:xlink="http://www.w3.org/1999/xlink" x="0px"
	 y="0px" width="141.7px" height="19.8px" viewBox="0 0 141.7 19.8" style="enable-background:new 0 0 141.7 19.8;"
	 xml:space="preserve">
<style type="text/css">
	.st0{fill:#FFFFFF;}
</style>
<g>
	<g>
		<g>
			<path class="st0" d="M9.5,9.9c-0.2,0.3-0.4,0.4-0.7,0.4c-0.8,0-1.1-0.6-1.3-1.4C7,7.3,6.6,6.5,5.2,6.5l-1.7,0l0,3.2h0.8v0.4h-2
				l0-0.4H3l0-8.5l-1.5,0c-0.6,0-1.1,0.3-1.1,1c0,0.5,0.2,0.9,0.6,0.9c0.2,0,0.2-0.1,0.2-0.2c0-0.1-0.1-0.1-0.1-0.3
				c0-0.2,0.2-0.4,0.4-0.4C1.9,2.2,2,2.4,2,2.7C2,3,1.8,3.5,1.1,3.5C0.4,3.5,0,2.9,0,2.2c0-0.9,0.7-1.4,1.5-1.4l3.7,0
				c2.4,0,3.4,1.2,3.4,2.7c0,1.6-0.8,2.7-2.9,2.9v0C7.3,6.5,7.7,7.7,8,9c0.2,0.7,0.4,0.9,0.8,0.9c0.2,0,0.4-0.1,0.5-0.2L9.5,9.9z
				 M8.2,3.5c0-1.4-0.9-2.3-3.2-2.3l-1.5,0l0,4.9l1.5,0C7.3,6.1,8.2,5.1,8.2,3.5z"/>
			<path class="st0" d="M16.5,9.7c-0.1,0.3-0.4,0.5-0.8,0.5c-0.5,0-0.9-0.3-0.9-0.9V9.2c-0.4,0.8-1.3,1.2-2.4,1.2
				c-1.5,0-2.7-0.6-2.7-2.2c0-1.6,1.3-2.4,3.1-2.4c0.8,0,1.4,0.1,2,0.4V5.6c0-1.4-0.7-2-2.2-2c-0.8,0-2,0.3-2,0.8
				c0,0.2,0.2,0.1,0.2,0.5c0,0.3-0.2,0.4-0.4,0.4C10.2,5.2,10,5,10,4.7c0-0.5,0.3-1,1.1-1.3c0.5-0.2,1-0.3,1.5-0.3
				c1.8,0,2.7,0.8,2.7,2.5l0,3.6c0,0.4,0.2,0.5,0.5,0.5c0.2,0,0.3,0,0.4-0.2L16.5,9.7z M14.8,7.7V6.4c-0.4-0.2-1.1-0.4-1.9-0.4
				c-1.6,0-2.7,0.6-2.7,2c0,1.4,1,1.8,2.3,1.8C13.8,9.9,14.8,9.3,14.8,7.7z"/>
			<path class="st0" d="M22.9,6.7c0,2.5-1.3,3.6-3.1,3.6c-0.9,0-1.6-0.3-2.1-0.7l-0.4,0.6h-0.3l0-9.5l-0.8,0V0.4l1.2,0l0,3.8
				c0.5-0.6,1.2-1.1,2.3-1.1C21.7,3.2,22.9,4.3,22.9,6.7z M22.4,6.8c0-2.3-1.2-3.1-2.6-3.1c-1,0-1.8,0.5-2.2,1.1v3
				c0,1.4,0.7,2.2,2.2,2.2C21.3,9.9,22.4,9,22.4,6.8z"/>
			<path class="st0" d="M29.9,6.7c0,2.5-1.3,3.6-3.1,3.6c-0.9,0-1.6-0.3-2.1-0.7l-0.4,0.6h-0.3l0-9.5l-0.8,0V0.4l1.2,0l0,3.8
				c0.5-0.6,1.2-1.1,2.3-1.1C28.6,3.2,29.9,4.3,29.9,6.7z M29.3,6.8c0-2.3-1.2-3.1-2.6-3.1c-1,0-1.8,0.5-2.2,1.1v3
				c0,1.4,0.7,2.2,2.2,2.2C28.2,9.9,29.3,9,29.3,6.8z"/>
			<path class="st0" d="M30.3,9.7h0.8l0-6l-0.8,0V3.4l1.2,0l0,6.4l0.8,0v0.4l-2,0V9.7z M30.9,1.4c0-0.3,0.2-0.5,0.4-0.5
				c0.2,0,0.4,0.2,0.4,0.5s-0.2,0.5-0.4,0.5C31.1,1.8,30.9,1.6,30.9,1.4z"/>
			<path class="st0" d="M35.3,9.8c-0.2,0.3-0.5,0.6-0.9,0.6c-0.7,0-1.2-0.4-1.2-1.3V3.8l-0.7,0V3.4l0.7,0V2.5c0.2,0,0.2-0.1,0.2-0.7
				h0.3v1.6l1.6,0v0.4l-1.6,0v5.3c0,0.6,0.3,0.8,0.8,0.8c0.2,0,0.5-0.1,0.6-0.3L35.3,9.8z"/>
		</g>
		<g>
			<path class="st0" d="M76.8,6.7c0,2.5-1.3,3.6-3.2,3.6c-0.9,0-1.6-0.1-2.4-0.7l-0.8,0.7h-0.3l0-9.5l-0.8,0V0.4l2.6,0v3.4
				C72.3,3.2,73,3,73.7,3C75.5,3,76.8,4.2,76.8,6.7z M74.9,6.7c0-2.6-0.6-3.1-1.7-3.1c-0.4,0-0.9,0.2-1.3,0.8v3.7
				c0,1.2,0.4,1.8,1.4,1.8C74.2,9.9,74.9,9.4,74.9,6.7z"/>
			<path class="st0" d="M77.1,9.7h0.8V0.8l-0.8,0V0.4l2.5,0l0,9.3l0.8,0v0.4l-3.3,0V9.7z"/>
			<path class="st0" d="M88.8,9.6c-0.2,0.5-0.5,0.7-1.3,0.7c-0.9,0-1.5-0.3-1.7-1c-0.3,0.7-1.1,1.1-2.2,1.1c-1.4,0-2.8-0.5-2.8-2.3
				c0-1.9,1.6-2.4,3.4-2.4c0.7,0,1.2,0.1,1.6,0.3V5.1c0-1.1-0.5-1.7-1.8-1.7c-0.7,0-1.7,0.2-1.7,0.6c0,0.3,0.4,0.2,0.4,0.7
				c0,0.4-0.3,0.7-0.7,0.7c-0.5,0-0.7-0.3-0.7-0.8c0-0.7,0.6-1.2,1.5-1.5C83.3,3,83.7,3,84.2,3c2.4,0,3.4,0.9,3.4,2.7v3.5
				c0,0.3,0.2,0.5,0.5,0.5c0.2,0,0.4-0.1,0.5-0.3L88.8,9.6z M85.8,8V6.2c-0.2-0.1-0.7-0.2-1.1-0.2c-1.1,0-1.9,0.5-1.9,2
				c0,1.4,0.7,1.7,1.5,1.7C85.1,9.8,85.8,9.4,85.8,8z"/>
			<path class="st0" d="M88.6,6.7c0-2.6,1.8-3.6,4.1-3.6c1.3,0,2.6,0.4,2.6,1.6c0,0.7-0.4,1.1-1.1,1.1c-0.6,0-1.1-0.3-1.1-1
				c0-0.7,0.5-0.8,0.5-1c0-0.3-0.5-0.3-1-0.3c-1.5,0-2.2,0.8-2.2,3.3c0,2.6,0.8,3.1,2.1,3.1c0.7,0,1.6-0.1,2.3-1.4l0.3,0.2
				c-0.7,1.3-1.8,1.7-2.9,1.7C90.5,10.4,88.6,9.3,88.6,6.7z"/>
			<path class="st0" d="M104,9.5c-0.2,0.5-0.6,0.8-1.3,0.8c-1,0-1.9-0.5-2.3-1.7c-0.3-1-0.6-1.7-0.9-2c-0.2-0.2-0.4-0.3-0.7-0.3
				c-0.2,0-0.4,0-0.6,0.1l0,3.4H99v0.4l-3.4,0V9.7h0.8V0.8l-0.8,0V0.4l2.5,0v5.5c0.8-0.2,1.2-0.8,1.6-1.5c0.5-0.9,1-1.3,1.8-1.3
				c0.7,0,1.3,0.3,1.3,1.1c0,0.7-0.4,1.1-1.1,1.1c-0.6,0-1-0.3-1-0.9c0-0.7,0.4-0.7,0.4-0.8c0-0.1-0.1-0.1-0.2-0.1
				c-0.2,0-0.5,0.3-1,1.1c-0.3,0.5-0.7,1.1-1.4,1.3c0.2,0,0.3,0,0.5,0c0.8,0,1.5,0.2,2,0.6c0.5,0.5,0.8,1.1,1.1,1.9
				c0.5,1.3,0.7,1.4,1.1,1.4c0.2,0,0.3-0.1,0.4-0.4L104,9.5z"/>
			<path class="st0" d="M112.2,4.4c0,0.8-0.5,1.2-1.1,1.2c-0.6,0-1-0.3-1-1c0-0.7,0.4-0.7,0.4-0.9c0-0.1,0-0.1-0.2-0.1
				c-0.6,0-1.3,0.5-1.8,1.9v4.2h0.9v0.4l-3.4,0V9.7l0.8,0V3.7l-0.8,0V3.3l2.5,0v1.4c0.6-1.2,1.5-1.6,2.2-1.6
				C111.5,3,112.2,3.4,112.2,4.4z"/>
			<path class="st0" d="M112.3,6.7c0-2.5,1.8-3.7,3.8-3.7c1.9,0,3.7,1.1,3.7,3.7c0,2.6-1.8,3.7-3.7,3.7
				C114.1,10.4,112.3,9.2,112.3,6.7z M117.9,6.7c0-2.4-0.8-3.2-1.9-3.2c-1.1,0-1.9,0.8-1.9,3.2c0,2.4,0.8,3.3,1.9,3.3
				C117.1,10,117.9,9.1,117.9,6.7z"/>
			<path class="st0" d="M120.3,6.7c0-2.5,1.8-3.7,3.8-3.7c1.9,0,3.7,1.1,3.7,3.7c0,2.6-1.8,3.7-3.7,3.7
				C122.1,10.4,120.3,9.2,120.3,6.7z M125.9,6.7c0-2.4-0.8-3.2-1.9-3.2c-1.1,0-1.9,0.8-1.9,3.2c0,2.4,0.8,3.3,1.9,3.3
				C125.1,10,125.9,9.1,125.9,6.7z"/>
			<path class="st0" d="M141.7,9.6c-0.2,0.5-0.5,0.7-1.3,0.7c-1.2,0-1.8-0.5-1.8-1.6V4.8c0-0.8-0.3-1.2-1-1.2
				c-0.6,0-1.2,0.2-2.1,1.1v5l0.8,0v0.4l-3.3,0V9.7h0.8V4.7c0-0.7-0.3-1.1-1.1-1.1c-0.6,0-1.3,0.3-2.1,1.2v4.9h0.8v0.4l-3.3,0V9.7
				h0.8V3.7l-0.8,0V3.3l2.5,0v1.1c0.8-0.9,1.7-1.3,2.6-1.3c1.2,0,1.9,0.5,2.3,1.2c0.9-1,1.7-1.2,2.5-1.2c1.6,0,2.4,1,2.4,2.6v3.6
				c0,0.3,0.2,0.5,0.5,0.5c0.2,0,0.4-0.1,0.5-0.3L141.7,9.6z"/>
		</g>
		<g>
			<path class="st0" d="M42.4,2.8c0.2,0,0.5-0.4,0.5-0.6c0-0.5-0.3-0.9-0.8-0.9h0c-0.4,0-0.5,0.3-0.7,0.7
				C41.5,2.3,41.7,2.8,42.4,2.8z"/>
			<path class="st0" d="M49,8.4c-0.2,0.3-1,1.3-1.5,1.3c-0.1,0-0.2-0.1-0.3-0.2c-0.1-0.2-0.1-0.6-0.1-0.8c0,0,0.7-2,0.9-2.4l0-0.3
				c0-0.2-0.1-0.3-0.2-0.5c-0.1-0.1-0.3-0.2-0.5-0.2c-0.2,0-0.5,0.2-0.7,0.4c-0.1,0.1-0.2,0.1-0.2,0.2l-0.7,0.7l-0.3,0.4
				c0,0.1-0.1,0.1-0.2,0.1c0,0,0,0,0,0c-0.1,0-0.1,0-0.2-0.1c-0.1-0.1,0-0.8,0.1-1.1c0-0.3-0.1-0.7-0.4-0.7c-0.6,0-1.3,0.6-1.7,1.2
				c-0.2,0.4-0.4,0.7-0.6,0.9c-0.1,0.2-0.2,0.4-0.3,0.5c-0.5,0.8-1,1.6-1.9,1.9c-0.1,0-0.1,0-0.2,0c-0.2,0-0.5-0.1-0.6-0.3
				c-0.1-0.2-0.1-0.4-0.1-0.5c0.1-0.7,0.5-1.5,1-2.3L41,5.9c0,0,0-0.1,0-0.2c0-0.3-0.1-0.5-0.1-0.5c-0.2,0-0.5,0.4-0.6,0.6
				C40.2,5.9,40.1,6,40,6.1c-0.1,0.1-0.2,0.3-0.3,0.6c-0.5,0.8-0.9,2-0.9,2.9c0,0.7,0.9,0.8,1.3,0.8c0.8,0,1.4-0.7,1.8-1.3
				c0.5-0.7,0.9-1.3,1.3-2L43.2,7c0.2-0.4,0.6-1.1,1.2-1.2c0.1,0,0.2,0.1,0.3,0.2c0.2,0.3,0,1-0.6,2.2C44.1,8.3,44,8.4,44,8.6
				c-0.1,0.2-0.1,0.4-0.2,0.5c-0.1,0.1-0.1,0.2-0.2,0.4c-0.1,0.2-0.2,0.5-0.3,0.6c0,0.1,0.1,0.4,0.3,0.4c0.1,0,0.3-0.3,0.4-0.4
				c0.1-0.1,0.1-0.2,0.2-0.3c0.4-0.7,0.5-0.8,0.6-1L45,8.3c0.6-0.9,0.7-1.1,0.9-1.3C46,7,46,7,46,6.9c0.1-0.1,0.6-0.7,0.9-0.7
				c0.1,0,0.2,0.1,0.3,0.1c0.2,0.3,0,0.8-0.1,1.1L47,7.7c-0.1,0.2-0.1,0.3-0.2,0.6l-0.1,0.4c0,0.1-0.1,0.4-0.1,0.6l0,0.3
				c0,0,0,0.1,0,0.1c0,0,0,0.1,0,0.1c0,0.1,0.3,0.6,0.7,0.6c0.4,0,1-0.5,1.3-0.7l0.1-0.1c0.4-0.4,1-1.1,1.1-1.6l0.1-0.3
				c0,0,0-0.1,0-0.1c0,0-0.1,0-0.2-0.1C49.5,7.5,49.1,8.1,49,8.4z"/>
			<path class="st0" d="M65.5,8.7c-0.3,0.3-0.7,0.6-1,0.8c-0.6,0.4-1,0.4-1.4,0.4c-0.1,0-0.1,0-0.3,0c-0.2-0.1-0.4-0.2-0.5-0.5
				c-0.1-0.3-0.1-0.6,0-0.7c0-0.1,0.1-0.1,0.2-0.1h0.3c0.9,0,2.1-0.9,2.5-1.4c0.4-0.5,0.6-0.9,0.6-1.5c0-0.2,0-0.6-0.2-0.9
				c-0.1-0.1-0.2-0.2-0.3-0.2c0,0-0.1,0-0.1,0c-0.8,0-1.6,0.3-2.1,0.8c-0.4,0.5-0.7,0.9-1,1.3c-0.1,0.1-0.1,0.3-0.2,0.5
				c-0.1,0.1-0.1,0.3-0.2,0.4c-0.1,0.1-0.2,0.3-0.2,0.4c-0.1,0.1-0.1,0.2-0.2,0.3c-0.2,0.4-0.9,1.3-1.5,1.3c-0.1,0-0.3-0.1-0.3-0.2
				c-0.2-0.3-0.1-0.7,0-0.9c0.2-0.5,0.4-0.9,0.5-1.2c0.1-0.3,0.3-0.6,0.4-0.9l0-0.3c0-0.2-0.1-0.3-0.2-0.5c-0.1-0.1-0.3-0.2-0.6-0.2
				c-0.1,0-0.2-0.1-0.2-0.2c0-0.1,0-0.2,0.1-0.3c0.5-0.3,0.9-0.7,1.2-1.1c0.2-0.3,0.9-1.5,1-2.6c0-0.5,0-0.7-0.1-1
				C61.6,0.3,61.3,0,61.2,0c-0.8,0-1.7,1.5-2.3,2.9c-0.1,0.2-0.2,0.5-0.4,0.8c0,0.1-0.2,0.1-0.3,0.1c0,0-0.3,0-0.3,0
				c-0.3,0-0.4,0-0.5,0l-0.9,0c-0.1,0-0.2-0.1-0.2-0.2c0-0.2,1.2-1.8,1.3-1.8c0,0,0.1-0.1,0.1-0.2C57.8,1.5,58,1.3,58,1.1
				c0-0.1-0.2-0.4-0.2-0.4c0,0-0.2,0.1-0.2,0.1l-0.3,0.3c-0.2,0.2-0.4,0.5-0.7,0.8l-0.2,0.2c-0.1,0.1-0.2,0.3-0.3,0.5L56,2.9
				l-0.4,0.6c-0.2,0.4-0.6,0.4-0.8,0.4l-2.8,0c-0.2,0-0.3,0-0.4,0.1c0,0,0,0,0,0c0,0,0,0-0.1,0.1c-0.1,0.1-0.2,0.2-0.2,0.3
				c0,0,0.1,0.1,0.5,0.2c0,0,0,0,0,0l2.8,0c0.1,0,0.2,0,0.2,0.1c0,0.1,0,0.2,0,0.2c-0.2,0.3-0.7,1.2-0.9,1.5l-0.2,0.4
				c-0.4,0.8-1,1.9-1,2.7c0,0.2,0.1,0.5,0.3,0.7c0.2,0.2,0.4,0.3,0.7,0.3c0.5,0,1.2-0.2,1.7-0.6c0,0,0.1,0,0.1,0c0,0,0.1,0,0.1,0
				c0.1,0.1,0.1,0.2,0.1,0.2c0,0.1,0.1,0.4,0.3,0.4c0.1,0,0.3-0.3,0.4-0.4c0.1-0.1,0.1-0.2,0.2-0.3c0.4-0.7,0.6-1,0.6-1.2L57.6,8
				c0.6-0.9,0.6-1,0.8-1.1c0,0,0.1-0.1,0.1-0.1c0.2-0.2,0.6-0.4,0.9-0.4c0.1,0,0.2,0.1,0.3,0.2c0.2,0.3-0.1,1-0.1,1.1
				c-0.1,0.3-0.1,0.3-0.2,0.5l-0.2,0.5c-0.1,0.3-0.1,0.4-0.1,0.6l0,0.4c0,0.1,0,0.1,0,0.2c0,0.1,0.3,0.6,0.7,0.6
				c0.4,0,1-0.5,1.3-0.7l0.1-0.1c0.1-0.1,0.2-0.2,0.2-0.3c0-0.1,0.1-0.1,0.2-0.1c0,0,0,0,0.1,0c0.1,0,0.1,0.1,0.2,0.2
				c0.1,0.6,0.8,1,1,1c0.5,0,1.1,0,1.8-0.4c1.1-0.6,1.9-1.5,2-2C66.3,8.1,65.9,8.4,65.5,8.7z M63.3,6.3c0.3-0.5,1-1,1.6-1
				c0.1,0,0.2,0,0.2,0c0,0,0.1,0,0.1,0c0.4,0.3,0.2,1-0.1,1.3c-0.4,0.6-1.5,1.3-2.3,1.4c-0.1,0-0.1,0-0.2-0.1c0,0-0.1-0.1-0.1-0.2
				C62.7,7.3,63,6.8,63.3,6.3z M58,4.8c-0.4,1-0.9,2.2-1.3,3.3c-0.1,0.2-1.4,1.3-1.8,1.4c-0.5,0.2-0.7,0.3-0.8,0.3
				c-0.4,0-0.5-0.2-0.5-0.5c0-0.5,0-0.6,0.4-1.3c0.2-0.6,1.5-3,1.8-3.3c0,0,0.1-0.1,0.1-0.1c0.3-0.1,0.6-0.1,0.9-0.1l0.7,0
				c0.1,0,0.3,0,0.3,0c0.1,0,0.1,0,0.2,0.1C58,4.6,58,4.7,58,4.8z M58.8,5.4C58.8,5.5,58.7,5.5,58.8,5.4c-0.2,0-0.2,0-0.2,0
				c-0.1-0.1-0.1-0.2-0.1-0.2c0.1-0.2,0.1-0.2,0.1-0.2c0,0,0-0.1,0-0.1c0,0,0-0.1,0-0.2c0.2-0.5,0.3-0.8,0.5-1.2l0.1-0.2
				c0.1-0.2,0.7-1.5,1-1.9c0.1-0.3,0.3-0.6,0.7-0.6l0.1,0c0,0,0.1,0,0.1,0c0.2,0.1,0.3,0.3,0.3,0.6c0,0.6-0.5,1.6-0.9,2.1
				C59.9,4.6,59.3,5.2,58.8,5.4z"/>
		</g>
	</g>
	<g>
		<path class="st0" d="M5.7,19.8l-0.8-1.2h0H4l0,1.2H3l0-4.2h1.8c1.1,0,1.8,0.6,1.8,1.5c0,0.6-0.3,1.1-0.9,1.3l0.9,1.4H5.7z
			 M4.8,16.3H4l0,1.5h0.8c0.6,0,0.9-0.3,0.9-0.7C5.7,16.6,5.4,16.3,4.8,16.3z"/>
		<path class="st0" d="M10.6,18.9l-1.9,0l-0.4,0.9h-1l1.9-4.2h1l1.9,4.2h-1L10.6,18.9z M10.3,18.1l-0.7-1.6L9,18.1H10.3z"/>
		<path class="st0" d="M16.6,18.6c0,0.7-0.6,1.1-1.7,1.1h-2.2l0-4.2l2,0c1,0,1.6,0.4,1.6,1.1c0,0.4-0.2,0.7-0.6,0.9
			C16.3,17.7,16.6,18.1,16.6,18.6z M13.7,16.3v1h1c0.5,0,0.7-0.2,0.7-0.5c0-0.3-0.3-0.5-0.7-0.5H13.7z M15.6,18.5
			c0-0.4-0.3-0.5-0.8-0.5h-1.1v1h1.1C15.4,19,15.6,18.9,15.6,18.5z"/>
		<path class="st0" d="M21.5,18.6c0,0.7-0.6,1.1-1.7,1.1h-2.2l0-4.2h2c1,0,1.6,0.4,1.6,1.1c0,0.4-0.2,0.7-0.6,0.9
			C21.2,17.7,21.5,18.1,21.5,18.6z M18.6,16.3v1h1c0.5,0,0.7-0.2,0.7-0.5c0-0.3-0.3-0.5-0.7-0.5H18.6z M20.5,18.5
			c0-0.4-0.3-0.5-0.8-0.5h-1.1v1h1.1C20.3,19,20.5,18.9,20.5,18.5z"/>
		<path class="st0" d="M22.6,15.5l1,0l0,4.2h-1V15.5z"/>
		<path class="st0" d="M25.7,16.3h-1.3l0-0.8l3.7,0v0.8h-1.3l0,3.4h-1V16.3z"/>
		<path class="st0" d="M34.3,15.5v4.2l-1,0V18h-1.9v1.7h-1v-4.2h1l0,1.7l1.9,0v-1.7H34.3z"/>
		<path class="st0" d="M35.4,17.6c0-1.3,1-2.2,2.3-2.2c1.3,0,2.3,0.9,2.3,2.2c0,1.3-1,2.2-2.3,2.2C36.4,19.8,35.4,18.9,35.4,17.6z
			 M39,17.6c0-0.8-0.6-1.3-1.3-1.3c-0.7,0-1.3,0.5-1.3,1.3c0,0.8,0.6,1.3,1.3,1.3C38.4,19,39,18.4,39,17.6z"/>
		<path class="st0" d="M41,17.9v-2.4h1v2.3c0,0.8,0.3,1.1,0.9,1.1c0.6,0,0.9-0.3,0.9-1.1v-2.3h1v2.4c0,1.2-0.7,1.9-1.9,1.9
			C41.7,19.8,41,19.1,41,17.9z"/>
		<path class="st0" d="M45.7,19.3l0.3-0.7c0.4,0.3,0.9,0.4,1.4,0.4c0.6,0,0.8-0.2,0.8-0.5c0-0.8-2.4-0.2-2.4-1.8
			c0-0.7,0.6-1.3,1.8-1.3c0.5,0,1.1,0.1,1.5,0.4l-0.3,0.7c-0.4-0.2-0.8-0.3-1.2-0.3c-0.6,0-0.8,0.2-0.8,0.5c0,0.8,2.4,0.2,2.4,1.8
			c0,0.7-0.6,1.3-1.8,1.3C46.7,19.8,46.1,19.6,45.7,19.3z"/>
		<path class="st0" d="M53.4,19v0.8l-3.2,0v-4.2l3.2,0v0.8l-2.2,0v0.9h1.9V18h-1.9v1L53.4,19z"/>
		<path class="st0" d="M57.9,19.5c0-0.7,0-1.2,0-1.6s0-0.9,0-1.6c-0.1,0.1-0.2,0.3-0.4,0.4c-0.2,0.1-0.4,0.2-0.6,0.2v-0.4
			c0.2,0,0.4-0.1,0.5-0.2c0.2-0.1,0.3-0.2,0.4-0.3c0.1-0.1,0.1-0.3,0.1-0.4l0.4,0v4.2h-0.4C57.9,19.7,57.9,19.6,57.9,19.5z"/>
		<path class="st0" d="M60.2,19.7c-0.2-0.1-0.4-0.2-0.6-0.4c-0.2-0.2-0.3-0.4-0.4-0.7l0.4-0.1c0.1,0.3,0.2,0.6,0.5,0.7
			c0.2,0.2,0.5,0.3,0.8,0.3c0.2,0,0.3,0,0.5-0.1c0.2-0.1,0.3-0.1,0.4-0.3c0.1-0.1,0.1-0.3,0.1-0.5c0-0.2,0-0.3-0.1-0.4
			c-0.1-0.1-0.2-0.2-0.3-0.2c-0.1,0-0.2-0.1-0.4-0.2c0,0-0.1,0-0.1,0l-0.4-0.1c-0.2-0.1-0.4-0.1-0.5-0.2c-0.2-0.1-0.3-0.2-0.4-0.4
			c-0.1-0.2-0.2-0.4-0.2-0.6c0-0.2,0.1-0.4,0.2-0.6c0.1-0.2,0.3-0.3,0.5-0.4s0.4-0.1,0.7-0.1c0.2,0,0.4,0,0.6,0.1
			c0.2,0.1,0.3,0.2,0.5,0.3c0.1,0.2,0.2,0.3,0.3,0.5l-0.3,0.1c-0.1-0.2-0.2-0.4-0.4-0.6c-0.2-0.1-0.4-0.2-0.7-0.2
			c-0.2,0-0.3,0-0.5,0.1c-0.1,0.1-0.2,0.1-0.3,0.3c-0.1,0.1-0.1,0.2-0.1,0.4c0,0.2,0.1,0.4,0.3,0.5c0.2,0.1,0.4,0.2,0.6,0.3
			c0,0,0,0,0,0s0,0,0,0l0.4,0.1c0,0,0.1,0,0.1,0c0.2,0.1,0.4,0.1,0.5,0.2s0.3,0.2,0.4,0.3c0.1,0.1,0.2,0.3,0.2,0.5
			c0,0.2-0.1,0.5-0.2,0.6c-0.1,0.2-0.3,0.3-0.5,0.4c-0.2,0.1-0.5,0.2-0.7,0.2C60.7,19.8,60.5,19.8,60.2,19.7z"/>
		<path class="st0" d="M63.4,15.9c-0.2,0-0.4,0-0.7,0v-0.3l3.2,0v0.3c-0.3,0-0.6,0-0.7,0c-0.2,0-0.4,0-0.7,0v3.8h-0.4v-3.8
			C63.8,15.9,63.5,15.9,63.4,15.9z"/>
		<path class="st0" d="M69.4,15.6l0.4,0l1.7,4.2h-0.4c0,0,0-0.1,0-0.1c-0.1-0.3-0.2-0.5-0.3-0.7c-0.1-0.2-0.2-0.4-0.3-0.7
			c-0.4,0-0.7,0-0.9,0s-0.5,0-0.9,0c-0.1,0.3-0.2,0.6-0.3,0.7c-0.1,0.2-0.2,0.4-0.3,0.7h-0.4L69.4,15.6z M69.6,17.9
			c0.2,0,0.4,0,0.8,0c0,0-0.1-0.2-0.2-0.6c-0.1-0.3-0.2-0.5-0.3-0.7c-0.1-0.2-0.1-0.4-0.3-0.7h0c-0.1,0.2-0.2,0.5-0.3,0.7
			c-0.2,0.4-0.3,0.8-0.5,1.2C69.2,17.9,69.5,17.9,69.6,17.9z"/>
		<path class="st0" d="M72.4,15.6l0.4,0c0,0.1,0,0.1,0,0.2c0,0.8,0,1.4,0,1.8c0,0.4,0,1,0,1.8c0.5,0,0.8,0,1.1,0c0.2,0,0.6,0,1.1,0
			v0.4l-2.5,0V15.6z"/>
		<path class="st0" d="M75.8,15.6h1.5c0.3,0,0.5,0,0.7,0.2c0.2,0.1,0.4,0.2,0.5,0.4c0.1,0.2,0.2,0.3,0.2,0.5c0,0.1,0,0.3-0.1,0.4
			c-0.1,0.1-0.1,0.2-0.2,0.3s-0.3,0.2-0.4,0.2v0c0.2,0,0.4,0.1,0.5,0.2c0.1,0.1,0.2,0.2,0.3,0.4c0.1,0.1,0.1,0.3,0.1,0.4
			c0,0.2-0.1,0.4-0.2,0.6c-0.1,0.2-0.3,0.3-0.5,0.4c-0.2,0.1-0.4,0.1-0.7,0.1h-1.7V15.6z M76.8,17.5c0.1,0,0.3,0,0.5,0
			c0.2,0,0.4,0,0.5-0.1c0.1-0.1,0.3-0.2,0.3-0.3c0.1-0.1,0.1-0.2,0.1-0.4c0-0.2,0-0.3-0.1-0.4c-0.1-0.1-0.2-0.2-0.4-0.3
			c-0.2-0.1-0.3-0.1-0.5-0.1h-0.1c-0.2,0-0.4,0-0.4,0c-0.1,0-0.2,0-0.4,0c0,0.4,0,0.6,0,0.8c0,0.2,0,0.4,0,0.8
			C76.5,17.5,76.6,17.5,76.8,17.5z M76.8,19.4c0.1,0,0.3,0,0.6,0c0.2,0,0.4,0,0.5-0.1c0.1-0.1,0.3-0.2,0.3-0.3
			c0.1-0.1,0.1-0.3,0.1-0.4c0-0.2,0-0.3-0.1-0.4s-0.2-0.2-0.4-0.3c-0.2-0.1-0.3-0.1-0.5-0.1c-0.3,0-0.5,0-0.6,0s-0.3,0-0.6,0
			c0,0.4,0,0.6,0,0.8c0,0.2,0,0.4,0,0.8C76.5,19.4,76.7,19.4,76.8,19.4z"/>
		<path class="st0" d="M80.5,19.7c-0.2-0.1-0.4-0.3-0.5-0.5c-0.1-0.2-0.2-0.5-0.2-0.9v-2.7h0.4v2.7c0,0.3,0,0.5,0.1,0.7
			c0.1,0.2,0.2,0.3,0.4,0.4c0.2,0.1,0.4,0.1,0.6,0.1c0.3,0,0.6-0.1,0.8-0.3c0.2-0.2,0.3-0.5,0.3-0.9c0,0,0,0,0-0.1l0-2.7h0.4v2.7
			c0,0.3-0.1,0.6-0.2,0.8s-0.3,0.4-0.5,0.6c-0.2,0.1-0.5,0.2-0.9,0.2C81,19.8,80.7,19.8,80.5,19.7z"/>
		<path class="st0" d="M84.1,15.6l0.5,0c0.4,0.8,0.7,1.4,0.8,1.9c0.2,0.4,0.5,1,0.8,1.8h0c0.4-0.8,0.7-1.4,0.8-1.9
			c0.2-0.4,0.5-1,0.8-1.8h0.5v4.2H88c0-0.2,0-0.3,0-0.5c0-0.7,0-1.2,0-1.5c0-0.3,0-0.8,0-1.5h0c-0.2,0.5-0.4,0.9-0.5,1.2
			c-0.1,0.3-0.3,0.7-0.5,1.2c-0.1,0.2-0.2,0.4-0.2,0.5c-0.1,0.1-0.1,0.3-0.2,0.5h-0.4c-0.1-0.3-0.2-0.4-0.3-0.6
			c-0.1-0.1-0.1-0.3-0.2-0.5c-0.2-0.5-0.4-0.9-0.5-1.2c-0.1-0.3-0.3-0.6-0.5-1.2h0c0,0.7,0,1.2,0,1.5c0,0.3,0,0.8,0,1.5
			c0,0.2,0,0.3,0,0.5h-0.4V15.6z"/>
	</g>
</g>
</svg>
