<?xml version="1.0" encoding="utf-8"?>
<!-- Generator: Adobe Illustrator 28.0.0, SVG Export Plug-In . SVG Version: 6.00 Build 0)  -->
<svg version="1.1" id="레이어_1" xmlns="http://www.w3.org/2000/svg" xmlns:xlink="http://www.w3.org/1999/xlink" x="0px"
	 y="0px" width="340.2px" height="73.7px" viewBox="0 0 340.2 73.7" style="enable-background:new 0 0 340.2 73.7;"
	 xml:space="preserve">
<style type="text/css">
	.st0{fill:#7F214C;}
	.st1{fill:#DDBCAB;}
</style>
<g>
	<g>
		<path class="st0" d="M81.9,4.5c-0.5,0.4-0.9,1-1.6,1.3C80,6,79.5,6.2,79.2,6.4c-0.5,0.2-0.7,0.3-1.1,0.5c-0.7,0.3-1.3,0.5-1.9,1
			c-0.7,0.6-1.5,1-2.2,1.3c-0.4,0.1-0.7,0.2-1,0.3c-1,0.3-1.9,0.6-3,1.2c-0.1,0.1-0.2,0.1-0.3,0.1c-0.7,0-1.4,0.1-2.2,0.3
			c-0.7,0.2-1.6,0.4-2.5,0.4h-4.6v-0.1h-0.7c-1.1,0-2.2,0-3.4,0.1c-0.5,0-1-0.1-1.4-0.2C54.4,11,54,11,53.6,11c-0.8,0-1.8,0-2.7-0.4
			c-0.1-0.1-0.2-0.1-0.3-0.1c-0.8,0.1-1.5-0.1-2.2-0.2c-0.4-0.1-0.8-0.3-1.2-0.3c-0.7,0-1.3-0.2-1.9-0.4c-0.4-0.1-0.7-0.2-1-0.3
			c-1.2-0.3-2.3-0.6-3.4-1c-0.7-0.2-1.4-0.4-2.2-0.6c-0.4-0.1-0.8-0.2-1.3-0.2c-0.2-0.1-0.3-0.1-0.5-0.1h-0.3c-0.6,0-1.3,0-1.8-0.2
			C34.8,7,34.7,7,34.5,7c-0.2,0-0.4,0.1-0.7,0.1c-0.4,0.1-1,0.3-1.7-0.1c-0.2-0.1-0.5-0.1-1.3-0.1h-0.7c-0.4,0-0.7,0-1-0.1h-0.9
			c-0.3,0-0.6,0-0.9,0.1c-0.4,0-1,0.1-1.3,0c-0.9-0.1-1.7,0.2-2.6,0.3c-0.1,0.1-0.3,0.1-0.5,0.1c-0.4,0.1-0.7,0.1-1,0.1
			c-1,0-1.3,0-1.8,0.4c-2.2-0.1-4,0.9-5.8,1.9c-0.5,0.2-0.7,0.4-1.1,0.6c-1,0.5-2,1.2-3,1.9c-0.5,0.4-0.8,0.6-1.2,0.8
			c-0.3,0.5-0.7,1-1.1,1.5C7.3,15,7.2,15.1,7,15.4L6.6,16c-0.5,0.7-1,1.5-1.7,2.2c-0.1,0.1-0.2,0.2-0.3,0.4c-0.1,0.5-0.2,1-0.3,1.6
			C4.1,21,4,21.6,4,22.3c0.1,0.9,0,1.9-0.1,2.8c0,2.2,1.6,5.2,3.4,6.3c1.2,0.7,2.2,0.7,3.3,0c0.9-0.7,2.1-1.1,3.2-1.5
			c0.5-0.2,1.2,0,1.6,0.4c0.5,0.4,0.7,1.2,0.2,1.6c-1,1.2-2.2,1.9-3.8,2.2l-1.1,0.2c-0.8,0.2-1.6,0.4-3.4,0.1
			c-0.1-0.1-0.3-0.1-0.4-0.1c-0.8-0.2-1.6-0.4-2.2-1c-1.6-1.4-3.1-2.8-3.7-5c0-0.1-0.1-0.2-0.1-0.4c-0.1-0.4-0.2-0.6-0.2-0.9
			c0-0.4-0.1-0.7-0.1-1.1C0.4,25,0.2,24.4,0,23.7c0.2-0.6,0.2-1.2,0.4-1.9c0.1-1,0.2-2.1,0.8-3.1c0.3-0.6,0.7-1.2,0.7-1.9
			c0-0.4,0.3-0.7,0.5-1c1.8-2.5,3.5-4.4,5.5-5.9c0.8-0.7,1.8-1.2,2.7-1.7c0.8-0.4,1.6-0.9,2.3-1.4c0.2-0.2,0.5-0.3,0.8-0.4l7.1-2
			c1,0.1,1.8-0.1,2.8-0.3c1-0.2,2.1-0.4,3.2-0.3c0.3,0,0.6,0.1,0.8,0.1c0.6,0.2,0.8,0.2,1.2,0.1c0.5-0.4,1.1-0.1,1.6,0
			c0.2,0.2,0.4,0.2,0.5,0.2h0.4c0.2,0,0.4,0.1,0.5,0c1-0.2,1.9-0.4,3.1-0.1c0.3,0.1,0.6,0.1,1,0.1c0.5,0,1.2,0.1,1.7,0.4
			c0.1,0.1,0.2,0.1,0.5,0.1c1-0.1,2,0.1,3.3,0.7c0.4,0.2,0.7,0.2,1.3,0.4c0.6,0.1,1.3,0.2,1.9,0.5c1.6,0.1,3.1,0.6,4.6,1l1.8,0.4
			c0.1,0.1,0.2,0.1,0.3,0.1c0.5,0.1,0.7,0.2,1.1,0c0.3-0.1,0.8-0.1,1.3,0.1c0.2,0.1,0.4,0.2,0.5,0.2h0.7c0.4,0,1,0,1.4,0.2
			c0.2,0.1,0.4,0.1,0.7,0c0.2-0.1,0.5-0.1,0.8-0.1c1,0.3,2,0.4,3.1,0.4c1.3,0,2.5,0,3.8-0.3c1.3-0.3,2.6-0.5,4-0.7
			c0.7-0.1,1.4-0.3,2.2-0.7l0.5-0.2C72.4,6.5,73.2,6.1,74,6c1.2-0.3,2-0.8,2.8-1.6c0.9-0.8,2-1.3,3.1-1.9c0.7-0.3,1.6,0,2,0.6
			C82.2,3.4,82.3,4.2,81.9,4.5z M49.9,12.7c0.2,0.5-0.5,1.3-1.3,1.6L47,14.8h-0.1c-1.5,0.3-2.7,1.1-4,2.1c-0.5,0.4-0.7,0.5-1,0.7
			c-0.4,0.3-0.7,0.9-1,1.6c-0.1,0.1-0.1,0.1-0.1,0.3c0,0.9-0.5,1.6-0.9,2.3c-0.3,0.4-0.4,0.6-0.5,0.9c-0.4,0.8-0.7,1.6-0.7,2.4
			c0,0.6-0.2,1.2-0.3,1.6c0,0.2-0.1,0.2-0.1,0.4c-0.4,1-0.7,1.8-0.7,2.8c0,0.5-0.1,0.9-0.3,1.1c-0.7,0.6-0.7,1.4-0.7,2.3
			c0,0.2-0.1,0.2-0.1,0.4c-0.1,0.4-0.1,0.5-0.1,0.7c-0.5,1.4-1,3-1.3,4.5c-0.1,0.3-0.2,0.6-0.3,1c-0.1,0.5-0.1,0.9-0.1,1.3
			c-0.2,1-0.2,1.2-0.5,1.6c-0.3,0.2-0.4,0.5-0.4,0.8c0.1,0.4,0,0.7-0.4,1.3c-0.1,0.4-0.2,0.6-0.2,0.7c0.1,0.6-0.1,1-0.6,1.6
			l-0.4,0.5c-0.2,0.4-0.4,0.9-0.6,1.4c-0.2,0.4-0.3,0.6-0.4,0.9c-0.7,1.6-1.2,3.3-2.7,4.6c-0.4,0.9-1,1.6-1.7,2.2
			c-0.6,0.6-1.1,1.1-1.4,1.8c-0.1,0.1-0.3,0.4-0.6,0.5l-0.2,0.2c-0.5,0.4-1.1,0.7-1.5,1.3c-0.7,0.8-1.6,1.3-2.6,1.7
			c-0.6,0.1-0.9,0.3-1.2,0.5L19,63.3c-0.2,0.1-0.5,0.3-0.7,0.3c-0.7,0.1-1.3,0.2-1.9,0.3c-0.7,0.1-1.3,0.2-2,0.3
			c-0.2,0-0.4-0.1-0.7-0.1c-0.2,0-0.4-0.1-0.7-0.1c-2.2-0.3-4.1-1.1-5.6-1.8c-0.4-0.2-0.7-0.4-0.8-0.7c-0.2-0.4-0.5-0.7-1-1
			c-0.4-0.3-1-0.7-1.4-1.4c-0.6-1.6-0.7-1.6-0.7-1.7c-0.4-0.3-0.5-1.3-0.4-3.4v-0.4c0-0.3,0.1-0.6,0.4-1.3c0.1-0.4,0.3-0.9,0.4-1.3
			c0.2-0.8,0.9-1.8,2-2.8c1-0.9,2.2-0.6,2.8,0.7c0.1,0.6-0.2,1.1-1,2.2c-0.5,0.7-1,1.4-1.2,2.3c-0.7,2.8,0.3,3.8,1.4,4.9
			c0.2,0.2,0.4,0.5,0.7,0.7c1,1.2,1.5,1.3,2.2,1.6c0.4,0.2,0.9,0.3,1.3,0.6h0.6c0.2-0.1,0.4-0.1,0.5-0.1c0.4,0,0.9,0,1.3,0.1
			c0.2,0,0.4,0.1,0.7,0.1c0.5,0.2,0.6,0.2,0.8,0.1c0.3-0.1,0.7-0.2,1.1-0.4c0.7-0.1,1.3-0.4,1.9-0.9c0.5-0.6,1.2-1,1.9-1.1
			c0.2,0,0.5-0.3,0.7-0.6c0.3-0.5,0.7-1,1.1-1.3c0.1-0.2,0.4-0.4,0.5-0.6c0.3-0.2,0.5-0.4,0.7-0.7c0.4-0.6,0.8-1.3,1.3-1.9
			c0.5-0.7,1-1.3,1.5-2.2c0.1-0.4,0.4-0.8,0.6-1.2c0.5-1,1-1.9,1.7-2.9c0.1-0.1,0.1-0.4,0.2-0.7c0.1-0.5,0.1-0.7,0.3-1
			c0.2-0.4,0.3-0.9,0.5-1.3c0.1-0.5,0.2-0.8,0.4-1.2c0.3-0.7,0.4-1,0.3-1.3l1.2-4.1c0.1-0.7,0.4-1.5,0.6-2.2c0.2-0.3,0.2-0.7,0.3-1
			l0.4-1.2c0.3-1,0.7-2,0.5-3.1c0.3-0.7,0.4-1.6,0.6-2.4c0.3-1.4,0.6-2.8,1.5-4c0.3-0.4,0.5-1,0.5-1.7c-0.1-1,0.2-1.9,0.9-2.5
			c0.5-0.5,1-1.3,1.4-1.9c0.4-0.7,0.9-1.5,1.6-2.2c0.2-0.7,0.8-1.3,1.9-1.9c0.2-0.1,0.5-0.2,0.7-0.4c1-0.5,1.9-1,3-1.2
			c0.3-0.1,0.7-0.2,1-0.4c0.4-0.1,0.7-0.3,1-0.4c0.4-0.1,0.9-0.1,1.2,0.1C49.3,11.7,49.7,12.2,49.9,12.7z"/>
		<path class="st0" d="M54.8,54.1C54.6,54,54.4,54,54.3,54c-2.1-0.3-3.1-1-4.3-3.1c-0.1-0.2-0.2-0.3-0.3-0.4h-0.1l-1,0.7
			c-0.5,0.4-0.7,0.6-1.1,0.8c-0.2,0.1-0.3,0.2-0.4,0.3L46.2,53c-1.6,1-3.3,0.9-4.8-0.3c-0.8-0.6-1.1-1-1-1.8c0-0.4-0.1-0.7-0.1-1
			c-0.1-0.5-0.1-1,0.2-1.9c0.1-0.2,0.2-0.5,0.3-0.8c0.2-0.5,0.5-1,0.4-1.7c-0.1-0.2,0.1-0.5,0.2-0.8c0.6-0.8,1.2-1.9,1.9-3.1
			c0.6-1,1.2-1.5,2.3-2.1c0.3-0.4,0.7-0.6,1-0.7c0.3-0.1,0.4-0.2,0.7-0.4c0.6-0.4,1.3-0.7,2.2-0.6c2.2,0.4,3.6,1.3,4.3,3
			c0.1,0.1,0.1,0.2,0.2,0.4c0.3,0.4,0.4,0.6,0.4,1c-0.1,0.7-0.6,1.3-1.3,1.3c-0.9,0.1-1.7-0.4-1.8-1L51,42c-0.2-0.2-0.3-0.4-0.4-0.6
			c-0.2-0.7-0.4-0.7-1.2-0.8c-1,0-1.6,0.3-2.1,0.9c-0.3,0.3-0.6,0.6-0.8,0.7c-0.4,0.4-0.7,0.6-1,1.1c-0.1,0.2-0.2,0.4-0.4,0.5
			c-0.4,0.5-0.5,0.7-0.5,1c0,0.4-0.1,0.6-0.3,0.9c-0.7,1-0.8,1.6-0.8,2.7c0,0.3-0.1,0.6-0.1,1c0,0.2,0.1,0.4,0.1,0.7
			c0.1,0.1,0.1,0.4,0.1,0.5c0.1,0.4,0.5,0.6,0.8,0.4c0.7-0.3,1.3-0.7,1.6-1.1c0.4-0.7,0.9-1,1.3-1.3c0.7-0.5,0.9-0.9,1.2-1.8
			l0.4-0.7c0.1-0.2,0.2-0.4,0.4-0.7c0.2-0.4,0.7-0.7,1.3-1c0.5-0.4,1.6,0.2,1.6,0.8c0.2,0.7,0.2,1.2,0,1.6c-0.4,1.3-0.2,2.5,0.4,3.6
			c0.4,0.6,1,1,1.7,1.2c0.4-0.1,0.7-0.1,1.2-0.3c1-0.1,2.4-0.2,3.8-1.8c0.4-0.4,0.7-0.7,1-0.9c0.7-0.5,0.9-0.7,1.3-1.3
			c0.1-0.2,0.3-0.5,0.4-0.8c0.4-0.6,0.6-0.9,0.9-1.3c0.1-0.1,0.1-0.2,0.3-0.4l0.3-0.4c0.4-0.4,1.3-0.3,1.9,0.2
			c0.4,0.3,0.4,0.7,0.3,1.2c0,0.1-0.1,0.1-0.1,0.2v0.1c0,0.1-0.1,0.1-0.2,0.2c-0.1,0.4-0.3,0.6-0.4,0.7c-1.1,1.6-1.8,2.5-2.6,3.6
			c-0.8,1.1-1.6,1.6-2.2,1.9c-0.1,0.1-0.2,0.1-0.3,0.2c-1.5,0.9-2.2,1-3.2,1.2c-0.4,0.1-0.7,0.1-1.3,0.3
			C55.6,54.2,55.1,54.1,54.8,54.1z"/>
		<path class="st0" d="M66.1,54.3c-0.9-0.4-1.6-0.8-2-1.8l-0.4-0.7c-0.1-0.3-0.1-0.5-0.3-0.9c-0.1-0.4-0.2-0.8-0.4-1.1
			c0.1-0.6,0.1-1.2,0.1-1.8c0-0.9,0-1.9,0.4-2.8c0.4-0.8,0.5-1.6,0.5-2.5c0-0.7-0.1-1.5,0.4-2.2c-0.1-1.1,0.3-2.1,0.7-3.1l0.3-0.5
			c0.1-0.2,0.1-0.3,0.1-0.4c-0.2-1.5,0.4-2.9,0.9-4.2c0.3-0.6,0.4-0.9,0.5-1.3l0.2-0.6c0.4-0.8,0.4-1.2,0.4-1.7
			c0-0.3,0.2-0.7,0.3-0.9c0.5-0.6,0.7-1.4,1-2.2c0.1-0.2,0.1-0.4,0.1-0.7l0.7-1.1c0.3-0.4,0.5-0.9,0.7-1.4c0.2-0.7,0.8-1.3,1.3-1.8
			c0.3-0.3,0.4-0.4,0.4-0.5c0.3-0.2,0.7-0.4,1.1-0.4c0.3-0.1,0.7,0,1.1,0.1c1.7,0.4,2.5,1.5,2.2,3.2l-0.1,0.3c-0.1,0.5-0.1,0.7,0,1
			c0.1,0.2,0.1,0.6,0,0.8c-0.4,0.7-0.7,1.5-0.7,2.4c-0.7,0.8-0.8,1.9-1,3.2c-0.2,0.4-0.4,0.8-0.6,1.2L73.7,32
			c-0.4,0.7-0.7,1.5-1,2.3c-0.2,0.5-0.3,0.8-0.4,1.2c-0.3,0.7-1.5,3.8-2,4.5l-0.6,1.2c-0.6,1.1-1.3,2.3-1.9,3.3
			c-0.1,0.3-0.4,0.6-0.7,0.9c-0.7,0.9-0.9,1.3-0.9,1.9c0,0.4,0.1,0.6,0.1,0.6v0.6c-0.1,0.5-0.1,0.8,0.1,1.3c0.1,0.3,0.1,0.6,0.1,1
			c0,0.4,0.2,0.8,0.5,0.9c0.2,0.1,0.5,0.2,0.7,0.4c0.9,0.5,1.1,0.5,1.7,0.4h0.7c1.4,0,3.8-0.9,5.5-3.1l0.7-0.7
			c0.7-0.7,1.3-1.4,1.6-2.2c0.2-0.4,0.4-0.7,0.6-1c0.1-0.1,0.3-0.3,0.4-0.5c0.5-0.8,1.3-1,1.9-0.6c0.7,0.4,0.9,1.3,0.4,1.9l-0.7,1.2
			c-0.7,1.2-1.3,2-2.3,3.4c-0.5,0.7-1.5,1.3-2.2,1.9c-0.4,0.3-0.8,0.5-1,0.9c-1.7,0.7-3.8,1.6-5.6,1.4H69
			C68.1,55,66.8,54.6,66.1,54.3z M68.2,38.2c0.2-0.5,1.3-2.8,1.9-4.6c0.3-0.5,0.5-1.2,0.7-1.8c0.3-0.8,0.5-1.6,1-2.5
			c0.4-0.7,0.4-1.6,0.7-2.5c0.1-0.6,0.2-0.9,0.4-1.3c0.2-0.5,0.3-1.1,0.4-1.7c0-0.2-0.1-0.4-0.2-0.5c-0.2-0.1-0.7,0.5-0.8,1.1
			c-0.2,0.6-0.5,1.1-0.8,1.6c-0.4,0.8-0.9,1.6-0.9,2.5c0,0.1,0,0.1-0.1,0.2c0,0.1,0,0.1-0.1,0.2c-0.4,0.4-0.4,1-0.6,1.6
			c-0.1,0.6-0.4,1.2-0.7,1.9c-0.5,1.3-1.3,2.8-1.3,4.2c-0.1,0.4-0.2,1.1-0.4,1.6c-0.7,2.1-0.4,2.1-0.4,2.2
			C67.3,40.2,67.6,39.6,68.2,38.2z"/>
		<path class="st0" d="M99.5,45.7c-0.1,0.1-0.1,0.2-0.2,0.4c-0.1,0.4-0.2,0.6-0.4,0.7c-0.5,0.7-1,1.2-1.4,1.6
			c-0.4,0.4-0.6,0.6-0.9,1c-1,1.1-1.9,1.8-3.1,2.3c-0.5,0.2-1,0.4-1.3,0.8c-2.3,1.4-3.7,1.5-5.8,1.7h-0.5c-2.6,0.2-5.5-1.3-6.6-3.4
			c-0.7-1.4-1-2.3-0.7-3.4l0.2-1.5c0.1-1,0.1-2,0.6-3c0.2-0.3,0.3-0.6,0.4-0.9l0.4-1c0.5-1.1,1.2-1.9,2-2.7c1.1-1,2.3-1.5,3.6-1.4
			c0.7,0,1.2,0.2,1.7,0.7c1.1,1,1.3,1.8,0.7,2.8c-0.2,0.5-0.4,1.1-0.4,1.6c-0.2,2-1.5,3.1-2.9,4.2c-0.4,0.3-0.8,0.4-1.3,0.7
			c-0.2,0.1-0.4,0.1-0.6,0.3l-0.3,0.1c-1.1,0.4-0.5,0.5-0.5,1.8l0.1,0.4c0.2,0.7,0.7,1.2,1.6,1.6c2.1,1,2.8,0.7,4.4,0
			c0.2-0.1,0.6-0.1,0.9-0.3c0.5-0.2,0.8-0.3,1.2-0.4c0.2-0.1,0.4-0.1,0.6-0.2c0.7-0.5,1.3-1,1.9-1.3c1-0.6,1.8-1.1,2.7-2.2l1.1-1.4
			c0.2-0.3,0.7-0.8,1.1-1.1c0.5-0.4,1.2-0.3,1.7,0.1C99.6,44.7,99.6,45.2,99.5,45.7z M82,44.9v0.1c0.8-0.2,1.6-0.8,1.8-1.5
			c0.1-0.4,0.4-0.8,0.7-1.2c0.4-0.4,0.6-0.8,0.6-1.3v-0.4c0-0.5-0.1-1-0.2-0.9c-0.1-0.1-0.4,0.1-0.7,0.4c-0.1,0.1-0.1,0.1-0.3,0.2
			c-0.4,0.3-0.5,0.7-0.8,1.3C83,41.8,83,41.9,82.9,42c-0.4,0.5-0.5,1.2-0.6,1.9C82.2,44.3,82.2,44.6,82,44.9z"/>
		<path class="st0" d="M118.5,45.5c-0.1,0.1-0.1,0.2-0.1,0.2c-0.1,0.2-0.2,0.4-0.4,0.7c-0.3,0.5-0.7,1-1.2,1.3
			c-0.4,0.4-0.7,0.7-0.9,1.1c-0.1,0.3-0.5,0.8-0.9,1.1c-0.8,0.8-1.6,1.3-2.2,1.8c-0.6,0.4-0.9,0.6-1.2,1c-0.9,0.8-1.7,1-2.6,1.3
			c-0.4,0.1-0.9,0.3-1.5,0.6c-0.7,0.3-1.8,0.3-2.7,0.4c-0.6,0-1.1,0-1.6,0.1c-1.3-0.2-2.2-0.4-3.3-0.4c-0.2,0-0.4-0.1-0.7-0.1
			c-1.2-0.1-1.6-0.7-2.2-1.9v-0.4c0-0.1,0-0.2-0.1-0.3c0-0.8,0.2-1.3,0.8-1.5c0.7-0.3,1.3-0.2,1.8,0.3c0.2,0.3,0.4,0.4,0.5,0.6
			l0.4,0.4c0.3,0.3,0.6,0.3,0.8,0.2c1-0.6,1.7-1.6,2-2.8c0.1-0.4,0.1-0.7,0.1-0.9c-0.4-1.3-0.9-2.6-1.3-3.9l-0.5-1.6v-0.2
			c0-0.1,0-0.1-0.1-0.1l-0.2,0.2c0,0.1-0.1,0.1-0.1,0.1l-0.2,0.5c-0.1,0.4-0.2,0.6-0.5,1c-0.3,0.4-0.4,0.8-0.7,1.2
			c-0.2,0.5-0.5,1.1-1.1,1.6c-0.7,0.6-1.3,0.6-2.1,0.2c-0.3-0.2-0.6-0.5-0.4-0.7c0.4-0.9,0.7-1.9,1.5-2.7c0.7-1,1.1-1.9,1.6-2.7
			c0.4-0.9,0.8-1.7,1.6-2.8c0.1-0.2,0.1-0.4,0.1-0.6c-0.1-0.6-0.1-1,0.3-1.5c0.5-0.8,1.9-1.2,2.8-0.9c0.5,0.2,0.9,0.7,0.7,1.1
			c-0.2,0.5-0.3,0.8-0.4,1.1c-0.1,0.3-0.1,0.6-0.5,1.3c-0.4,0.7-0.4,1.2,0.1,2.2l0.4,1.2c0.1,0.4,0.4,1,0.8,1.6
			c0.3,0.4,0.7,1,0.8,1.5c0.7,2.1,0.6,4.4-0.4,6.5V52c0,0.1-0.1,0.1-0.1,0.1c0,0.1,0.1,0.1,0.1,0.1l1.1-0.2c1-0.2,1.9-0.4,2.6-1
			l1.9-1.3l0.4-0.3c0.3-0.3,0.5-0.4,0.6-0.7c0.7-0.3,2.3-2.1,3.4-3.8c0.1-0.3,1.5-1.3,2.4-0.3C118.6,44.9,118.6,45.1,118.5,45.5z"/>
		<path class="st0" d="M135.9,54.7c-0.4-0.3-0.7-0.6-1.2-0.9l-0.1-0.1c-0.2-0.2-0.4-0.3-0.5-0.5c-0.5-1-1-2.2-1.1-3.4l0.2-1.2
			l0.1-0.3c0.1-0.2,0.1-0.4,0.1-0.6c0-0.1-0.1-0.2-0.1-0.4c-0.1-0.5-0.2-0.8,0-1.2c0.2-0.3,0.4-0.8,0.5-1.3c0.2-0.8,0.4-1.3,0.8-1.6
			c0.3-0.2,0.4-0.6,0.5-1c0.1-0.4,0.1-0.6,0.3-0.7c0.6-0.5,1.6-1.4,2.6-2.7c1-1.3,3.9-1.3,5.1-0.1c0.8,1,1,1.4,0.8,2.1
			c-0.3,0.8-0.1,1.3,0.6,1.8l0.4,0.2c0.4,0.2,1,0.5,1.2,1.3c0,0.2,0.1,0.4,0.1,0.5c0.1,0.7,0.4,1.6,0.1,2.5
			c-0.1,0.1-0.2,0.5-0.2,0.6c-0.1,0.6,0,0.9,0.2,1c1.8,0.7,3.4,0.4,5-0.8c0.1-0.2,0.3-0.3,0.5-0.4c0.1-0.1,0.1-0.1,0.1-0.1
			c0.5-0.3,1.3-0.8,1.7-1.3c0.5-0.7,0.8-1,1.4-1.5c0.4-0.4,1.3-0.3,1.6,0.2c0.1,0.1,0.3,0.4,0.4,0.5c0.1,0.5-0.7,1.9-1.1,2.2
			l-1.8,1.8l-0.6,0.3c-0.1,0.1-0.1,0.1-0.1,0.1l-1.1,0.6c-1.3,0.7-2.9,1.6-5.9,1.1c-0.6,0-1.3-0.1-1.7-0.3c-0.3-0.1-0.4-0.1-1,1.1
			c-0.7,1.3-1.9,1.8-3.1,2.2l-0.9,0.2c-0.7,0.1-0.9,0.2-1.2,0.4C137.7,55.3,136.8,55.2,135.9,54.7z M139.6,52.2l1-0.8
			c1.3-1,1.3-1.1-0.2-2c-2.1-1.1-2.5-3.7-1-5.5c0.1-0.2,0.4-0.4,0.6-0.6c0.1-0.1,0.3-0.3,0.4-0.5c0.3-0.2,0.4-0.5,0.4-0.7
			c0.2-0.7,0.1-0.7-0.4-1.6c-0.1,0,0-0.1-0.2,0c-0.3,0.1-0.5,0.4-0.7,0.7c-1.5,2-2.2,3.3-2.8,5.3l-0.2,0.7c-0.3,0.9-0.6,1.6-0.2,2.5
			v0.7c0,0.4-0.1,0.8,0,1.1c0.1,0.3,0.3,0.6,0.5,0.7c0.1,0.1,0.3,0.1,0.4,0.2c0.2,0,0.5,0,0.7,0.1C138.5,52.6,139.1,52.6,139.6,52.2
			z M143,47.5c0.1-0.2,0.2-0.4,0.2-0.7v-0.5c-0.1-0.3-0.1-0.5-0.1-0.8s-0.2-0.6-0.2-0.9c-0.1-0.1-0.3,0-0.4,0.1
			c-0.3,0.3-0.6,0.7-0.7,1.3l-0.1,0.6c-0.3,0.5,0.1,1.1,0.9,1.3C142.8,47.9,143,47.8,143,47.5z"/>
		<path class="st0" d="M172.9,46.3l-0.4,0.6c-0.5,0.8-1.3,1.3-2,1.8c-1.3,1.1-2.6,1.6-4,2.2l-0.8,0.4c-1.1,0.4-3,0.6-4,0.6h-0.9
			c-0.1,0.1-0.4,0.1-0.6,0.1l0.2,0.1c0.1,0.1,0.2,0.2,0.4,0.3c0.7,0.7,1.1,1.6,1.5,2.5c0.1,0.4,0.2,0.7,0.1,1.1c0,0-0.1,0.1-0.1,0.1
			c-0.1,0.4-0.1,0.5,0,0.6c0.4,1.2,0.4,2.3,0.4,3.4V61c0,0.5-0.1,1-0.1,1.5c-0.1,0.9-0.2,1.7,0,2.6c-0.1,0.4-0.2,0.7-0.3,1.1
			c-0.2,0.9-0.4,1.9-1,2.8l-0.4,0.7c-0.4,0.6-0.7,1-0.9,1.3c-0.2,0.5-0.7,0.9-1.4,1.3l-2,1c-0.8,0.5-1.7,0.6-2.5,0.2
			c-0.1-0.1-0.2-0.1-0.7,0c-1.3,0-2.2-0.6-2.8-1.8c0-0.1-0.1-0.1-0.1-0.3c-0.1-0.1-0.1-0.2-0.2-0.4v-0.1l-0.4-4
			c0.4-0.7,0.3-1.5,0.3-2.4c0-0.4,0.1-0.7,0.1-1c0.1-1.3,0.2-2.8,0.5-4.1l0.2-1c0.1-0.7,0.3-1.3,0.2-2.1c0-0.2,0.1-0.4,0.1-0.6
			c0.6-1.2,1-2.7,1.4-4.3c0.1-0.4,0.1-0.5-0.1-0.7c-0.3-0.4-0.4-0.7-0.3-1.2c0.1-0.4,0.7-0.8,1-1c0.5-0.4,0.7-0.5,0.7-0.7
			c0.1-0.4,0.4-0.9,0.5-1.3c0.3-0.7,0.6-1.3,0.6-1.9c0-0.4,0.1-0.9,0.6-1.7c0.5-0.9,0.7-1.3,0.5-1.7c0.1-0.3,0.1-0.6,0.2-0.9
			c0.1-0.7,0.2-1,0.5-1.3c0.7-1.1,1.1-1.8,1-3.1c0-0.4,0.1-0.7,0.4-1.1c0.5-0.7,1-2.2,1.5-3.6c0.7-1.9,1-2.8,1.4-3.4l0.9-1.4
			c0.8-1,1.6-1.8,2.5-2.2c0.8-0.5,1.6-0.6,2.5-0.2c1.1,0.5,1.6,1.1,1.5,2.2c0,0.8,0.1,1.7-0.3,2.5c-0.1,0.2-0.1,0.4-0.1,0.7
			c-0.1,0.3-0.1,0.5-0.1,0.7c-0.1,0.7-0.2,1.1-0.5,1.6c-0.4,0.4-0.7,1-0.9,1.7c-0.4,1-0.9,2.5-2.8,5c-0.2,0.4-0.5,0.7-0.7,1
			c-0.5,0.5-1,1-1.2,1.8c-0.5,1-1.3,1.9-2.2,2.5c-0.2,0.2-0.4,0.5-0.7,0.9c-0.3,0.4-0.7,0.8-1.3,1.4c0,0.1-0.1,0.1-0.1,0.2v0.1
			l-0.9,2.5c-0.1,0.2,0.3,0.6,0.1,0.2c0.4,0.5,1.3,0.7,2.7,0.7h0.4c2.6-0.1,5.5-0.7,7.3-2c1.8-1.1,1.8-1.1,3.1-2.5
			c0.4-0.5,0.8-0.7,1.3-0.7c0.3,0,0.9,0,1.2,0.4C173.2,45.1,173.2,45.8,172.9,46.3z M159.2,40c0.4,0.2,1.9-2.9,2.9-4.3
			c0.1-0.1,0.2-0.3,0.3-0.5c0.1-0.2,0.3-0.4,0.4-0.7c1-1.6,2.5-5,2.5-7.2l-0.1-0.1c-0.7,0.5-1,1-1.2,1.6c-0.2,0.5-0.4,1-0.7,1.3
			c-0.4,0.7-1.9,3.7-2,4.5c0,0.7-0.4,1.3-0.7,1.8c-0.1,0.2-0.3,0.5-0.4,0.7C159.5,38.1,159.2,39,159.2,40z M159.4,60.9v-3.7
			c0.1-0.4,0-0.7-0.2-0.8c-0.4-0.4-0.6-1-0.8-1.5c-0.1-0.5-0.4-1-0.7-1.6l-0.2-0.5c-0.2-0.4-0.5-0.5-0.9-0.7
			c-0.3,0.1-0.5,0.1-0.7,0.1c-0.4,0-0.5,0-0.6,0.6c-0.1,0.4-0.2,0.8-0.3,1.3c-0.2,0.7-0.4,1.3-0.3,1.9c0.1,0.4,0,0.7-0.2,1
			c-0.7,0.7-0.7,1.6-0.7,2.6c0,0.7,0,1.1-0.1,1.5c-0.3,0.7-0.3,1.6-0.3,2.3c-0.1,0.3-0.1,0.6-0.1,0.8v1.2c0,0.9-0.1,1.9-0.3,2.8
			c-0.4,1.4,0.4,2.9,1.9,3.2c0.5,0.1,0.7,0,0.9-0.1c1.1-1,2-1.8,2.5-3.3C158.9,65.3,159.8,62.9,159.4,60.9z"/>
		<path class="st0" d="M244.1,47c-0.4,0.4-0.6,0.8-0.8,1.3c-0.1,0.1-0.1,0.2-0.2,0.4c-0.3,0.6-0.7,1.2-1.1,1.7c-0.5,0.7-1,1.2-1.3,2
			c-1.3,1.1-2.6,2.3-3.6,3.7c-0.6,0.2-1,0.6-1.3,1c-0.3,0.3-0.4,0.4-0.7,0.7l-2,1.2c-0.3,0.2-0.5,0.4-0.8,0.5
			c-0.6,0.4-1.1,0.7-1.8,1c-2,0.8-4.5,1.2-6.6,0.9c-2.7-0.4-4.8-1.8-6.4-4.3c-0.2-0.2-0.3-0.4-0.3-0.6c0-0.7-0.2-1.2-0.5-1.8
			c-0.2-0.6-0.4-1.2-0.5-1.9c0-0.2,0-0.4-0.1-0.7c-0.1-0.7-0.3-1.9-0.2-4.3c0.1-0.7,0.1-1.6,0.1-2.5v-0.8c-0.1-2.1-0.7-3.7-1.6-4.9
			c-0.3-0.2-0.5-0.4-0.8-0.5c-1.9-0.3-3.7-0.4-5.2,1.1c-0.4,0.4-1,0.6-1.4,0.7l-0.7,0.4c-0.4,0.2-0.6,0.4-0.8,1
			c-0.4,1.5-1,2.9-1.6,4.4l-1.4,4.7c-0.2,0.4-0.4,0.7-0.5,1c-0.1,0.7-0.7,2.3-1.3,4c-0.5,1.4-1,3-1.3,4.1c-0.1,0.4-0.4,1-0.6,1.4
			c-0.4,1-1.6,1.4-2.6,0.8l-0.7-0.4H195c-0.4-0.4,0-2.1,0.4-2.6c0.7-0.7,1.3-2.9,1.9-4.9c0.4-1.2,0.7-2.4,1-3.1c0,0,0.2-0.4,0.8-2.6
			c0.4-1.4,1-3.1,1.4-4c0.2-0.4,0.4-0.8,0.5-1.3c0.1-0.4,0.4-0.9,0.1-1.1c-0.1-0.1,0-0.1-0.3,0.1c-0.2,0.1-0.4,0.1-0.6,0.1
			c-0.8,0.1-1.5,0.3-2.1,0.7c-1.2,0.8-2.2,0.6-3.1-0.9c-0.1-0.1-0.1-0.4-0.1-0.7V42c0-0.1,0-0.2,0.1-0.2l2-1.5l0.7-0.4l1-0.7
			c0.5-0.4,1.1-0.7,2-0.7c0.2,0,0.5-0.1,0.7-0.1l0.9-0.2c1-0.1,1.2-1,1.3-1.9v-0.4c0.1-0.6,0.1-0.8,0.5-1.1c0.3-0.2,0.4-0.6,0.5-1.3
			c0.1-1,0.1-2,0.9-3c0.4-0.3,0.5-0.7,0.5-1.3c0-1,0.2-1.9,0.8-3c0.2-0.5,0.5-1.2,0.6-1.8c0-0.1,0.1-0.3,0.2-0.6
			c0.2-0.5,0.2-0.7,0-0.9v-0.3c0.1-0.3,0.2-0.5,0.5-0.9c0.4-0.6,0.4-0.8,0.2-1.3l0.1-0.6c0.3-0.8,0.4-1.2,0.7-1.6
			c0.5-0.7,0.7-1.6,0.9-2.5c0.1-0.6,0.2-1.1,0.4-1.7c-0.2-0.7,0-1.2,0.7-2c0.1-0.1,0.2-0.3,0.4-0.5c0.1-0.2,0.5-0.4,0.8-0.6
			c0.1,0,0.1,0,0.1-0.1c0.8-0.3,2.2,0.6,2.1,1.5c0,0.4-0.1,0.7-0.1,1.3c0,0.1-0.1,0.3-0.2,0.4c0,0.1-0.1,0.2-0.1,0.4l-1.1,2.8
			c-0.2,0.3-0.2,0.7-0.3,1.2c0,0.7-0.1,1-0.2,1.4l-0.2,0.6c-0.2,0.7-0.4,1-0.7,1.4c-0.1,0.1-0.1,0.4-0.2,0.3c0.4,0.7,0,1.3-0.3,1.9
			c-0.4,0.7-0.7,1.7-0.7,2.7c0,0.7-0.1,1.4-0.5,2.1c-0.5,1.1-1,2.3-1,3.6c0,0.3,0,0.4-0.1,0.7c-0.7,0.7-0.9,1.7-1.2,2.7l-0.3,1
			c0,0.1-0.1,0.1-0.1,0.1l2.1-0.4c1.5-0.3,2.9-0.6,4.3-1.3c0.4-0.3,1-0.4,1.3-0.6c0.4-0.2,0.7-0.2,1-0.4c0.4-0.3,1-0.4,1.4-0.6
			c0.6-0.2,0.9-0.4,1.2-0.5c2.2-0.8,4-1.7,5.5-2.8l0.9-0.7c1.7-1.1,3.4-2.2,4.6-3.8c0.4-0.3,0.7-0.7,1-1.1c0.4-0.5,0.7-1,1.3-1.5
			c1-0.8,3.7-6.3,2.7-7.7c0-0.2-0.1-0.2-0.1-0.4c-0.1-0.4-0.2-0.6-0.1-0.9c0.1-1.4-0.5-2.6-1.9-4.2l-1.1-1.3
			c-1.1-1.4-2.4-2.4-3.7-2.9c-0.1-0.1-0.3-0.1-0.4-0.2c-0.3-0.2-0.7-0.3-1-0.5c-0.5-0.3-1-0.5-1.6-0.5c-0.6-0.1-1.3-0.2-1.9-0.5
			c-0.2-0.1-0.5-0.2-1-0.2c-0.2,0-0.4,0-0.7,0.1c-0.4,0-0.9,0.1-1.3,0L218.1,3c-1.4-0.3-2.8-0.1-4.3,0.1c-0.3,0.1-0.6,0.1-0.9,0.1
			c-0.5,0.1-1,0.1-1.5,0c-0.6,0-1.1,0-1.7,0.2c-0.4,0.1-1,0.3-1.5,0.5c-0.4,0.2-1,0.4-1.6,0.5c-1.9,0.4-3.8,1.2-6,2.5l-5.1,3.1
			c-0.9,0.5-1.6,1.3-2.2,2.1c-0.4,0.4-0.6,0.7-0.9,1c-0.1,0.1-0.2,0.2-0.4,0.4c-0.1,0.2-0.1,0.2-0.1,0.3c-0.1,0.2-0.4,0.5-0.6,0.7
			c-0.4,0.5-0.8,0.9-1,1.4c-0.2,0.6-0.5,1.2-0.7,1.7l-0.4,0.8v0.1c0,0.1-0.1,0.2-0.1,0.2c-0.1,0.7-0.2,1.6-0.4,2.2
			c-0.2,1.2-0.4,2-0.3,2.5c0.1,1,0.4,2.3,0.7,3.1l0.6,1c0.6,1.2,1.2,1.6,2.5,2.5l1,0.8c0.4,0.2,0.7,0.5,1.4,1
			c0.5,0.5,0.1,2.2-0.7,2.5c-0.4,0.2-1,0.2-1.5,0c-1.1-0.6-2.2-1.2-3.1-2.1c-1.1-1.5-2.3-3-3.9-5.1c-0.1-0.2-0.2-0.5-0.1-0.7
			c-0.3-0.4-0.4-1-0.3-2.1c0-0.9,0-1.3-0.1-1.5c-0.4-0.7-0.3-1.4,0.1-3c0.1-0.3,0.2-0.6,0.2-0.8c0-0.2,0.1-0.3,0.1-0.5
			c0.1-0.9,0.2-1.9,1.2-3l0.3-0.2c0.3-0.4,0.5-1,0.7-1.5c0.4-0.9,0.7-1.8,1.8-2.4c0.6-0.3,1.1-0.9,1.7-1.6c0.4-0.5,0.7-0.8,1.1-1.1
			c1.2-1.2,2.2-1.9,3.3-2.7c0.6-0.5,1.3-0.8,2.1-1.2l0.5-0.3c1.8-0.8,3.6-1.6,5.5-2.4c0.3-0.1,0.7-0.3,1-0.4
			c0.5-0.3,1.1-0.6,1.8-0.7l2.8-0.5c1-0.2,1.9-0.4,2.8-0.6c0.5-0.1,1.2-0.1,1.7,0h0.9l1.4,0.2c0.5,0,1,0,1.6,0.1
			c0.8,0.1,1.6,0.2,2.5-0.1c0.3-0.1,1,0.1,1.3,0.3c0.4,0.2,0.7,0.3,1,0.3c1.9,0,3.6,0.7,5.2,1.4c0.7,0.3,1.3,0.5,1.9,0.7
			c0.4,0.1,0.7,0.3,1,0.5c0.4,0.1,0.6,0.4,1,0.7c0.5,0.4,0.9,0.7,1.5,0.8c0.2,0.3,0.4,0.5,0.8,0.9c0.7,0.7,1.4,1.4,1.9,2.2
			c1,1.9,1.9,3.9,2.3,6c0.1,0.5,0.3,1.1,0.2,1.7c0,1.7-0.4,2.8-0.7,4c-0.1,0.4-0.2,0.7-0.3,1.2c-0.6,0.5-1,1.4-1.5,2.2
			c-0.8,1.4-1.6,3-3.2,3.7c-0.2,0.1-0.4,0.4-0.7,0.7c-0.3,0.3-0.6,0.7-1.1,0.9c-0.4,0.2-0.7,0.6-1,1c-0.1,0.3-0.2,0.3-0.3,0.4
			c-0.2,0.3-0.7,0.5-1,0.6c-0.1,0.1-0.1,0.1-0.2,0.1c-1.1,0.7-2.2,1.5-3.3,2.3c-0.4,0.4-1.1,0.6-1.7,0.7c-0.3,0.1-0.6,0.4-1,0.7
			c-0.4,0.4-0.6,0.6-0.8,0.7c-0.6,0.4-1.1,0.4-1.6,0.4c-0.5,0.1-0.7,0.1-1.1,0.3c-0.7,0.3-1.3,0.4-2,0.6c-0.4,0.1-0.9,0.2-1.3,0.4
			c0,0.1,0,0.1,0.1,0.2c0.1,0.1,0.1,0.1,0.4,0.1c0.1,0.1,0.4,0.1,0.7,0.3c1.7,1.1,2.5,2.8,2.6,5.6c0.1,0.4,0,0.7-0.1,1.5V45
			c-0.1,0.3-0.1,0.4,0,0.6c0.3,1,0.3,2.9,0.3,4.5c0,1.2,0,2.2,0.1,2.7c0.1,0.3,0.1,0.6,0.2,1.1c0.1,0.6,0.2,1.1,0.4,1.6
			c0.2,0.3,0.4,0.5,0.7,1c0.4,0.4,0.8,0.9,1,1.4c0.2,0.3,0.4,0.5,0.7,0.6c1.3,0.4,2.8,0.7,4.2,0.2l1.4-0.4c1.7-0.5,3.2-1,4.7-2.5
			c0.1-0.1,0.4-0.2,0.4-0.4c0.3-0.2,0.4-0.3,0.6-0.6c0.1-0.4,0.6-0.7,0.9-0.8c1-0.3,1.6-1.2,2.4-2.3l0.6-0.6c0.6-0.6,1.1-1,1.5-1.9
			c0.3-0.8,0.7-1.3,1.3-1.7c0.1-0.1,0.4-0.4,0.7-1.1l0.3-0.5c0.7-1.3,1.2-1.8,2-1.4l0.1,0.1l0.7,0.4C244.8,45.2,244.6,45.7,244.1,47
			z"/>
		<path class="st0" d="M255.7,54.1c-0.2-0.1-0.4-0.1-0.5-0.1c-2.1-0.3-3.1-1-4.3-3.1c-0.1-0.2-0.2-0.3-0.3-0.4h-0.1l-1,0.7
			c-0.5,0.4-0.7,0.6-1.1,0.8c-0.1,0.1-0.3,0.2-0.4,0.3l-0.9,0.5c-1.6,1-3.3,0.9-4.8-0.3c-0.8-0.6-1.1-1-1-1.8c0-0.4-0.1-0.7-0.1-1
			c-0.1-0.5-0.1-1,0.1-1.9c0.1-0.2,0.2-0.5,0.3-0.8c0.2-0.5,0.4-1,0.4-1.7c-0.1-0.2,0.1-0.5,0.1-0.8c0.6-0.8,1.2-1.9,1.9-3.1
			c0.6-1,1.2-1.5,2.3-2.1c0.3-0.4,0.7-0.6,1-0.7c0.3-0.1,0.4-0.2,0.7-0.4c0.6-0.4,1.3-0.7,2.2-0.6c2.2,0.4,3.6,1.3,4.3,3
			c0.1,0.1,0.1,0.2,0.2,0.4c0.3,0.4,0.4,0.6,0.4,1c-0.1,0.7-0.6,1.3-1.3,1.3c-0.9,0.1-1.7-0.4-1.8-1l-0.2-0.5
			c-0.2-0.2-0.3-0.4-0.4-0.6c-0.2-0.7-0.4-0.7-1.2-0.8c-1,0-1.6,0.3-2.1,0.9c-0.3,0.3-0.6,0.6-0.8,0.7c-0.4,0.4-0.7,0.6-1,1.1
			c-0.1,0.2-0.2,0.4-0.4,0.5c-0.4,0.5-0.5,0.7-0.5,1c0,0.4-0.1,0.6-0.3,0.9c-0.7,1-0.8,1.6-0.8,2.7c0,0.3-0.1,0.6-0.1,1
			c0,0.2,0.1,0.4,0.1,0.7c0.1,0.1,0.1,0.4,0.1,0.5c0.1,0.4,0.5,0.6,0.8,0.4c0.7-0.3,1.3-0.7,1.6-1.1c0.4-0.7,0.9-1,1.3-1.3
			c0.7-0.5,0.9-0.9,1.2-1.8l0.4-0.7c0.1-0.2,0.2-0.4,0.4-0.7c0.2-0.4,0.7-0.7,1.3-1c0.5-0.4,1.6,0.2,1.6,0.8c0.1,0.7,0.1,1.2,0,1.6
			c-0.4,1.3-0.2,2.5,0.4,3.6c0.4,0.6,1,1,1.7,1.2c0.4-0.1,0.7-0.1,1.2-0.3c1-0.1,2.4-0.2,3.8-1.8c0.4-0.4,0.7-0.7,1-0.9
			c0.7-0.5,0.9-0.7,1.3-1.3c0.1-0.2,0.3-0.5,0.4-0.8c0.4-0.6,0.6-0.9,0.9-1.3c0.1-0.1,0.1-0.2,0.3-0.4l0.3-0.4
			c0.4-0.4,1.3-0.3,1.9,0.2c0.4,0.3,0.4,0.7,0.3,1.2c0,0.1-0.1,0.1-0.1,0.2v0.1c0,0.1-0.1,0.1-0.1,0.2c-0.1,0.4-0.3,0.6-0.4,0.7
			c-1.1,1.6-1.8,2.5-2.6,3.6c-0.8,1.1-1.6,1.6-2.2,1.9c-0.1,0.1-0.2,0.1-0.3,0.2c-1.5,0.9-2.2,1-3.2,1.2c-0.4,0.1-0.7,0.1-1.3,0.3
			C256.4,54.2,256,54.1,255.7,54.1z"/>
		<path class="st0" d="M309.5,45.7c-1,1.9-3.1,3.6-5.1,4c-1,0.6-2.6,0.9-3.5,0.7c-1,0.1-2.3-0.2-3.1-0.6c-0.2,0-0.4-0.1-0.5-0.1
			c-0.1,0-0.1-0.1-0.1-0.1c-0.1,0.4-0.4,0.7-0.5,0.8c-0.2,0.3-0.4,0.4-0.4,0.8c-0.5,1.5-1.6,2.5-3.1,3.1c-0.1,0-0.4,0.1-0.4,0.1
			c-0.1,0-0.2,0-0.3,0.1c-2.1,1.3-5.5-0.3-6.3-2.9c-0.4-1.3-0.7-2-0.6-3.1c-0.7,0.4-1.6,0.8-2.3,1c-1.6,0.4-2.4,0.3-3.1,0.2
			c-0.2-0.1-0.4-0.1-0.7-0.1c-0.9,0-1.3-0.4-1.9-0.7c-0.1,0-0.1-0.1-0.4,0.2c-0.3,0.4-0.5,0.8-0.7,1.3c-0.9,1.4-2.2,2.6-3.7,3.5
			c-0.7,0.4-1.8,1-2.8,0.4c-0.1-0.1-0.3-0.1-0.6-0.1h-0.3c-1.9-0.2-3.6-1.3-4.2-2.9c-0.4-1.3-0.7-2.4-0.7-3.4
			c0.1-0.4,0.1-0.7,0.1-1.1v-1.1c0-0.3,0.1-0.6,0.3-1.1c0.2-0.5,0.3-0.7,0.3-1c0-0.7,0.2-1.6,0.7-2.8l0.4-0.9
			c0.1-0.4,0.3-0.8,0.6-1.4c0.2-0.4,0.3-0.7,0.4-1l0.3-1c0.4-0.8,0.7-1.6,0.7-2.5c0-0.3,0.1-0.6,0.3-1c0.1-0.1,0.1-0.2,0.1-0.3
			c0.2-0.4,0.4-0.7,0.7-1c0.1-0.1,0.1-0.2,0.3-1c0.1-0.3,0.3-0.7,0.4-1c0.4-0.4,1-1.3,1.3-2c0.7-1.3,1.8-2,2.7-1.7
			c0.1,0.1,0.4,0.3,0.6,0.6c0.1,0.2,0.1,0.3,0.2,0.3c0.7,0.7,0.4,3.7-0.7,6.4c-1.3,2-1.8,3.1-2.2,4.2c-0.3,0.7-0.5,1.3-1.1,2.2
			c-0.2,0.2-2,3.1-2.1,3.7c-0.2,0.7-0.5,1.3-0.8,2.1c-0.1,0.4-0.2,0.5-0.3,0.8c0,1.6,0,1.4,0.1,3.2c0,0.4,0.3,0.8,0.4,1.2
			c0.7,1.1,1.8,1.4,3.5,1c0.2-0.1,0.4-0.3,0.7-0.7c0.3-0.4,0.6-1,0.9-1.6c0.3-0.6,0.5-0.9,0.7-1.3c0.2-0.4,0.2-0.4-0.3-0.8
			c-0.1-0.1-0.4-0.3-0.5-0.6c-0.1-0.2-0.1-0.3-0.2-0.4c-1.3-1.2-1.9-2.8-1.9-5c-0.1-0.8,0.3-1.6,1.3-2.1c0.1-0.1,0.4-0.1,0.5-0.1
			l0.4-0.2c0.6-0.1,1.2,0,1.5,0.2c1,0.6,2.1,1.3,2.2,2.7c0,0.3,0.1,0.5,0.4,0.9c0.4,0.5,0.6,0.9,0.6,1.3c-0.1,0.7-0.1,1.5,0,2.2
			c0,0.2,0.1,0.3,0.5,0.5c0.5,0.3,1,0.7,2.2,0.5c0.2,0,0.5,0,0.8,0.1c0.8,0.2,1.1,0.1,1.6-0.4c0.6,0,2.5-1.6,3.1-2.5
			c0.1-1,0.3-2.1,0.4-2.8c0.1-0.2,0.1-0.4,0.3-0.7c0.1-0.3,0.1-0.4,0.1-0.6c0-0.6,0.1-1.1,0.2-1.7c0.1-0.6,0.2-1.1,0.1-1.7
			c0-0.1,0.2-0.6,0.4-0.8l0.2-0.7c0.1-0.6,0.3-1.3,0.5-1.9c1-2.5,1.9-4.9,4-6.8c0.1-0.2,0.3-0.4,0.5-0.7l0.3-0.5
			c1-1.1,2.4-1.6,4-1.3c0.4,0.2,0.9,0.5,1,0.9c0.2,1.3,0.1,2.6-0.1,4.1c-0.1,0.5-0.3,1-0.5,1.5c-0.2,0.6-0.4,1.1-0.4,1.8
			c0,0.1-0.1,0.4-0.3,0.6l-0.1,0.2c-0.4,0.7-0.6,1.1-0.7,1.5c-0.1,0.3-0.2,0.6-0.3,0.9c-0.2,0.9-0.4,1.3-0.7,1.7
			c-0.8,1.3-1.9,2.8-2.8,4.1c-0.1,0.2-0.2,0.3-0.4,0.5c-0.1,0.1-0.1,0.2-0.1,0.3c-0.8,1.6-1.3,1.9-1.7,2.2l-0.2,0.2
			c-0.4,0.5-0.5,0.7-0.4,1.4c-0.3,1.3-0.1,2-0.1,2.9c0.1,0.4,0.1,1,0.1,1.6c0,0.7,0.4,1.3,0.9,1.6c0.5,0.4,1,0.4,1.4,0.1
			c1-0.7,2-1.7,2.8-2.8c0.1-0.3,0.3-0.5,0.4-0.7c0.2-0.4,0.1-0.3-0.3-0.7c-1.9-1.4-2.3-3.3-1.4-5.4c0.7-1.4,1.6-1.8,2.4-2.2
			c0.8-0.2,1.3-0.2,1.9,0.1c0.5,0.2,0.9,0.5,1,1c0.6,1.6,0.7,3.1,0.2,4.6c0,0.2-0.1,0.3-0.1,0.4c-0.1,0.5,0.1,0.7,0.6,0.8
			c0.1,0.1,0.2,0.1,0.4,0.1c0.2,0.1,0.5,0.2,0.7,0.3c0.9,0.4,3.6,0,4.3-0.7c0.6,0.1,2.6-1.9,3.1-2.7c0.6-0.6,1.7-0.4,2.2,0.2
			C309.5,45.1,309.6,45.5,309.5,45.7z M295.3,26.9L295.3,26.9L295.3,26.9z M289.3,40.4c0.4,0,1.9-2.5,2.1-3.2
			c0.2-0.6,0.6-1.1,0.9-1.6c0.2-0.1,0.4-0.4,0.5-0.7c0.1-0.5,0.3-1,0.4-1.5c0.3-1,0.5-2,1-3c0.2-1.2,0.3-1.5,0.5-2.3
			c0.1-0.2,0.1-0.4,0.3-0.7l0.2-0.4c-0.2,0.4-0.6,1-0.9,1.4c-0.7,1.3-1.5,2.5-2.2,3.8c-0.8,1.6-1.6,3.1-1.7,5c0,0.2-0.1,0.4-0.1,0.6
			c-0.1,0.1-0.1,0.2-0.1,0.2C289.3,39.8,290.2,38.7,289.3,40.4z M274,42.8v0.7c0,0.3,0,0.4,0.1,0.5l0.5,0.7c0,0,0-0.1,0.1-0.1v-0.3
			c-0.1-0.2-0.1-0.3-0.1-0.4c-0.1-0.2-0.1-0.4-0.1-0.7c-0.1-0.5-0.1-0.6-0.2-0.7c-0.3-0.3-0.4-0.3-0.4-0.3c0,0.1,0.1,0.1,0.1,0.2
			C274,42.5,274,42.6,274,42.8z M295.6,43.6c0,0.1-0.1,0.2-0.1,0.4c-0.1,0.5-0.1,1,0,1.3c0.1-0.5,0.1-1,0.1-1.3V43.6z"/>
		<path class="st0" d="M310.9,29.3c-0.1-0.7,0.1-1,0.7-1.5l0.7-0.4l0.4-0.3c0.7-0.4,1.9,0.2,2,1c0.1,1.3-1,2.5-2.4,2.5
			C311.7,30.5,311,30,310.9,29.3z M309.8,54c-0.4-0.1-1.1-0.2-1.4-0.7c-0.6-0.7-1.1-1.4-1.6-2.2c-0.1-0.2-0.2-0.4-0.2-0.8v-2.1
			c-0.1-2.4,0.5-4.7,1.3-7c0.1-0.4,0.3-0.7,0.7-1.1c0.5-0.7,1.9-0.6,2.4,0.1c0.1,0.2,0.2,0.6,0.2,0.8V41l-1.1,4.9
			c-0.3,1.1-0.4,2.4-0.2,4.1c0.1,1,0.5,1.5,1.3,1.8l0.5,0.2c0.1,0.1,0.3,0.1,0.4,0.1c0.2,0.2,0.4,0.2,0.7,0.1c1-0.1,1.9-0.7,2.8-1.3
			c1-0.7,1.9-1.4,2.6-2.4c0.3-0.5,0.7-0.9,1-1.2c0.4-0.5,0.8-1,1.3-1.9c0.3-0.7,0.7-0.9,1.5-1.3c0.4-0.2,1.4,0.2,1.5,0.8
			c0,0.4,0,0.5-0.2,0.9l-0.3,0.8c-0.1,0-0.7,1-0.7,1.3c-0.1,0.1-0.4,0.4-0.7,0.7c-0.5,0.7-1.3,1.6-2.2,2.5c-1.3,1.2-2.1,1.9-3.1,2.4
			c-2.2,1-4,1.3-5.8,0.7C310.1,54.1,310,54,309.8,54z"/>
		<path class="st0" d="M340.1,45.7l-0.2,0.4c-0.2,0.5-0.4,0.8-0.7,1.1c-0.3,0.3-0.7,0.8-1.2,1.3c-0.6,0.6-0.9,1-1.3,1.3
			c-1,1-1.8,1.4-2.8,1.9l-1.2,0.7c-1.3,0.8-2.1,1-3.6,1.5c-3.1,0.8-4.8-0.1-5.8-0.6c-0.3-0.2-0.4-0.3-0.6-0.3
			c-0.3-0.1-0.6-0.3-0.7-0.5c-0.1-0.1-0.1-0.1-0.1-0.1c-1-0.3-1.6-2.1-1.5-3.7c0-2.4,0.2-4,0.8-5.7c0.1-0.3,0.2-0.6,0.4-0.9
			c0.1-0.3,0.2-0.5,0.3-0.7c0-0.5,0-0.8,0.1-1.1c0.5-0.7,0.7-1.3,0.9-2c0.1-0.4,0.1-0.8,0.4-1.3c0.1-0.3,0.2-0.2-0.4-0.1
			c-0.2,0-0.4,0-0.5-0.1c-0.1,0-0.2-0.1-1,0.1h-0.7c-0.4,0-0.9,0.1-1.3,0c-0.5-0.2-0.9-0.5-0.9-1c-0.1-0.4,0.1-0.5,0.5-0.7
			c0.1,0,0.1,0,0.1-0.1c0.7-0.3,1.6-0.4,2.4-0.4c0.8,0.1,1,0.1,1.3-0.1c0.2,0,0.5-0.1,1.3-0.1c0.1,0,0.4-0.3,0.6-0.8
			c0.2-0.2,0.4-0.8,0.4-1c-0.1-0.5,0-0.8,0.4-1.3c0.3-0.3,0.3-0.4,0.2-0.7l1.1-2.7c0.4-0.9,1.4-1.1,2.3-0.4c0.1,0,0.1,0.1,0.2,0.2
			c0.3,0.4,0.4,0.5,0.4,0.9v0.6c0,0.5,0,0.7-0.1,1c-0.3,0.7-0.4,1.1-0.5,1.6c-0.1,0.5-0.2,1-0.7,1.9c0,0.1-0.1,0.1-0.1,0.2l-0.1,0.3
			c0.4,0.2,0.7,0.1,1.2-0.1c2.1-0.6,3.7-0.4,5.7-0.4c0.3,0,0.8,0.1,0.9,0.4h0.1c0.1,0.2,0.3,0.4,0.3,0.5c0,0.3-0.2,0.7-0.5,0.9
			c-0.3,0.2-0.7,0.3-1.1,0.3s-0.7,0.1-1,0.1c-0.6,0.1-1.1,0.1-1.9,0.1c-0.1,0-0.2,0-0.4,0.1H331c-0.6,0-1,0-1.5,0.1
			c-0.4,0-1,0.1-1.6,0.1c-0.6,0.1-0.7,0.1-0.7,0.7c-0.2,0.7-0.5,1.1-0.7,1.4c-0.4,0.6-0.5,0.9-0.5,1.7c0,0.2-0.1,0.4-0.4,0.9
			c-0.2,0.3-0.2,0.3-0.2,0.4c-1.9,4-2,5.6-1.7,8.4c0,0.3,0.1,0.4,0.5,0.8c1.2,1.3,2.5,1.6,4.3,0.9c1.5-0.5,2.7-0.8,3.7-1.9
			c0.5-0.5,0.9-0.7,1.3-0.8c0.2-0.1,0.4-0.1,0.7-0.3c0.7-0.4,1.2-0.9,1.6-1.5c0.2-0.2,0.5-0.6,0.8-1c0.6-0.8,1-1.2,1.4-1.5
			c0.4-0.3,1.1-0.3,1.5,0.1l0.1,0.1C340.1,45.2,340.2,45.4,340.1,45.7z"/>
	</g>
	<g>
		<path class="st1" d="M8.4,40.9c0-1.3-0.1-2.2-0.2-2.7c-0.1-0.4-0.5-0.7-1.3-0.9c-0.4,0-0.6-0.2-0.6-0.6c0-0.4,0.2-0.6,0.7-0.6
			c2.6-0.2,3.8,0.2,3.8,1.4c0,0.2,0,0.5-0.1,0.8c-0.2,0.9-0.3,1.8-0.3,2.5c1.6-0.1,2.8-0.2,3.8-0.3c0.5-0.1,1-0.3,1.4-0.7
			c0.2-0.2,0.4-0.3,0.7-0.3c0.3,0,0.6,0.2,0.9,0.5c0.9,0.8,1.4,1.5,1.4,2.1c0,0.3-0.1,0.6-0.4,0.8c-0.2,0.1-0.5,0.6-1,1.4
			c-1.9,3.5-4.1,6.3-6.4,8.4c-2.6,2.5-5.7,4.3-9.1,5.4c-0.5,0.2-0.8,0.1-1.1-0.4s-0.2-0.8,0.2-1c7.3-3.2,12.1-8.1,14.3-14.6
			L4.4,42.7c0,0.1,0,0.3,0.1,0.5c0.2,0.9,0.5,2.2,0.9,3.7c0,0.1,0.1,0.3,0.1,0.6c0.1,0.5,0,1-0.2,1.3c-0.3,0.4-0.7,0.6-1.1,0.6
			c-0.7,0-1.1-0.4-1.2-1.3c0-0.2-0.1-0.4-0.1-0.7c-0.1-1.1-0.2-2-0.3-2.6c-0.2-1.1-0.4-1.9-0.6-2.2c-0.2-0.4-0.6-0.8-1.2-1.1
			C0.3,41.5,0.1,41.3,0,41c-0.1-0.3,0.2-0.5,0.8-0.7c1.5-0.1,2.5,0.1,2.9,0.8c1.3,0,2.8-0.1,4.5-0.2H8.4z"/>
		<path class="st1" d="M38.4,42.1v-0.4c0-0.6,0-1,0-1c0-1.5-0.1-2.4-0.3-2.8c-0.1-0.4-0.4-0.5-0.7-0.5c-0.5,0-0.7-0.2-0.8-0.6
			c0-0.4,0.3-0.7,0.8-0.7c2.3-0.1,3.5,0.6,3.5,1.9c0,0.1,0,0.4-0.1,0.7c-0.1,0.9-0.2,2-0.2,3.3c1.6-0.1,2.8-0.3,3.5-0.6
			c0.4-0.1,0.7-0.2,0.8-0.2c0.8,0,1.4,0.3,2.1,0.9c0.4,0.3,0.6,0.6,0.6,0.9c0,0.6-0.6,0.9-1.7,0.9h-0.4c-0.3,0-0.5,0-0.8,0
			c-0.8,0-1.5-0.1-2.3-0.1h-1.8c0,2.6-0.8,5.3-2.3,8.3c-1.6,2.9-4.7,5.2-9.4,6.7c-0.5,0.2-0.9,0.1-1.1-0.3s-0.1-0.8,0.3-1
			c4.1-1.5,6.8-3.6,8.2-6.1c1.4-2.5,2.1-5,2.1-7.5l-2,0.1c-1,0.1-1.7,0.2-2,0.2v1c0,0.1,0,0.8,0,2c0,0.3,0.1,0.5,0.1,0.8
			c0,1.2-0.5,1.9-1.5,1.9c-0.7,0-1-0.5-1-1.4c0-0.1,0-0.3,0.1-0.8c0.1-1.2,0.1-2.3,0.1-3.3c-0.7,0.1-1.8,0.2-3.6,0.4
			c-0.5,0.1-1,0.2-1.3,0.2c-1.1,0-2.1-0.5-3.1-1.6c-0.2-0.2-0.3-0.6-0.2-1c0-0.4,0.3-0.6,0.8-0.4c1.1,0.5,2.4,0.8,4,0.8
			c1.4,0,2.5,0,3.5-0.1v-0.2c0-1.7-0.1-2.8-0.3-3.3c-0.1-0.4-0.6-0.7-1.5-0.9C30.1,38,30,37.8,30,37.6s0.4-0.4,1-0.5
			c2.4-0.1,3.6,0.5,3.6,1.8l-0.1,0.5c0,0.4-0.1,1.4-0.1,3.1c1-0.1,2.1-0.2,3.2-0.3L38.4,42.1z"/>
		<path class="st1" d="M61.9,41.7l0-0.2c-0.3-1.3-0.5-2.2-0.9-2.8c-0.3-0.5-0.9-0.6-1.8-0.4c-0.4,0.1-0.6,0-0.8-0.3
			c-0.1-0.3,0-0.5,0.6-0.9c0.8-0.5,1.5-0.8,2.2-0.8c1.5,0,2.3,0.6,2.4,1.9c0.1,1,0.1,2,0.3,3.1v0l0.7-0.2c1.6-0.3,2.7-0.7,3.4-1.1
			c0.4-0.3,0.7-0.4,1.1-0.4c0.6,0,1.2,0.2,1.9,0.7c0.5,0.3,0.7,0.6,0.7,0.9c0,0.6-0.5,0.9-1.6,0.9c-1.7,0-3.6,0.3-5.9,0.8
			c0,0.1,0,0.2,0,0.3c0.1,0.5,0.3,1.7,0.8,3.5c1-0.2,2.2-0.5,3.4-0.8c0.3,0,0.4-0.1,0.5-0.1c0.6-0.1,1.3-0.4,2-0.8
			c0.4-0.2,0.8-0.3,1.1-0.3c0.7,0,1.4,0.3,2.1,0.8c0.3,0.2,0.5,0.5,0.5,0.7c0,0.6-0.6,0.9-1.7,1c-2.7,0.2-5.2,0.5-7.4,1h0
			c0.9,3.7,1.6,6.1,2,7.1c0.1,0.6,0.2,1,0.2,1.4c0,0.5-0.2,1-0.5,1.4c-0.3,0.4-0.5,0.5-0.8,0.5c-0.8,0-1.2-0.8-1.5-2.4
			c-0.3-1.9-0.7-4.3-1.3-7.3l-0.1-0.3c-1.2,0.3-3.3,0.9-6.3,1.9c-0.4,0.1-0.7,0.1-1,0.1c-1.1,0-2.1-0.5-3.1-1.6
			c-0.4-0.4-0.5-0.8-0.3-1.2c0.1-0.4,0.5-0.5,1.1-0.2c0.8,0.5,1.4,0.8,2,0.8c0.5,0,3-0.4,7.2-1.3l-0.8-3.8c-1.9,0.5-3.5,1-4.7,1.4
			c-0.4,0.1-0.8,0.2-1.1,0.2c-1,0-1.9-0.5-2.8-1.6c-0.4-0.4-0.5-0.8-0.2-1.2s0.6-0.5,1-0.1c0.5,0.4,1.1,0.6,1.7,0.6
			C57,42.7,58.9,42.4,61.9,41.7z M70.2,36.7c2.3,0.4,3.9,1.3,4.8,2.6c0.3,0.7,0.1,1.2-0.7,1.3c-0.5,0.1-1-0.2-1.4-0.8
			c-0.7-0.8-1.7-1.5-3-2.1c-0.4-0.2-0.6-0.4-0.5-0.7S69.7,36.6,70.2,36.7z M72.2,34.6c2.4,0,4.1,0.6,5.2,1.7
			c0.4,0.7,0.3,1.1-0.4,1.4c-0.5,0.2-1,0-1.6-0.5c-0.8-0.7-1.9-1.3-3.4-1.6c-0.4-0.1-0.6-0.3-0.6-0.6C71.5,34.8,71.7,34.6,72.2,34.6
			z"/>
		<path class="st1" d="M88.2,42.5c0.4-1.1,0.6-2.2,0.8-3.3c0.1-1-0.6-1.5-2.1-1.5c-0.4,0-0.6-0.1-0.6-0.4c0-0.3,0.2-0.5,0.6-0.7
			c1.2-0.3,2.3-0.3,3.3,0c1,0.2,1.5,0.9,1.4,2.1c0,0.5-0.4,1.7-1.2,3.5c0.3,0,0.9,0,1.8,0c2.3,0.1,3.3,1.6,3.1,4.5
			c-0.4,4.3-1.6,7.5-3.5,9.4c-1.1,1.1-2,1.3-2.9,0.7c-0.8-0.7-1.6-1.8-2.3-3.3c-0.2-0.5-0.3-0.9-0.1-1.2c0.2-0.3,0.4-0.3,0.7,0
			c1,1.3,1.8,2,2.3,2.1c0.5,0.1,0.9,0,1.1-0.3c1.3-1.7,2.1-4.3,2.5-7.8c0.1-1.5-0.2-2.3-1.1-2.4c-0.8,0-1.6,0.1-2.3,0.2
			c-1.1,2.8-2.9,6.1-5.2,9.7c-1.7,2.8-2.9,4.1-3.4,4.1c-0.7-0.1-1-0.6-0.9-1.6c0.1-0.6,0.5-1.3,1.3-2.1c1.3-1.5,2.8-3.7,4.5-6.6
			c0.8-1.4,1.3-2.4,1.5-3c-0.8,0.2-1.8,0.4-2.9,0.8c-0.5,0.1-0.8,0.1-1.1,0.1c-1.3,0-2.3-1.1-3.1-3.2c-0.1-0.5-0.1-0.9,0.3-1.1
			s0.6-0.1,0.8,0.4c0.4,0.8,1.2,1.3,2.3,1.5c0.3,0,1.2,0,2.5-0.2l1.3-0.2L88.2,42.5z M97.9,49.7c1.9-0.3,3.1-0.7,3.6-1.4
			c0.5-0.7,0.4-1.5-0.4-2.5c-0.6-1-2.2-1.7-4.7-2.3c-0.5-0.1-0.7-0.4-0.6-0.8s0.5-0.6,1.1-0.5c3,0.4,5.1,1.3,6.4,2.8
			c1.2,1.6,1.5,2.9,0.8,3.9c-0.7,1-1.9,1.7-3.8,1.9c-0.5,0.1-1.3,0.2-2.5,0.3c-0.5,0-0.7-0.1-0.7-0.5S97.5,49.8,97.9,49.7z M98,36.5
			c2.4,0.4,4,1.3,4.8,2.6c0.3,0.7,0.1,1.2-0.7,1.3c-0.5,0.1-1-0.2-1.4-0.8c-0.7-0.9-1.7-1.6-3-2.2c-0.4-0.1-0.6-0.4-0.5-0.6
			C97.3,36.5,97.5,36.4,98,36.5z M100.1,34.4c2.4,0,4.1,0.6,5.2,1.7c0.4,0.7,0.3,1.2-0.4,1.4c-0.5,0.2-1,0-1.5-0.5
			c-0.8-0.7-1.9-1.3-3.4-1.6c-0.4-0.1-0.7-0.3-0.6-0.5S99.6,34.4,100.1,34.4z"/>
		<path class="st1" d="M115.4,31.6c0.1-0.3,0.3-0.5,0.6-0.7c0.2-0.1,0.4-0.1,0.6-0.1c0.1,0,0.2,0,0.3,0c0.3,0.1,0.5,0.3,0.6,0.5
			s0.1,0.6,0,0.8c-0.8,1.8-1.6,3.6-2.7,5.3c-0.1,0.2-0.2,0.4-0.2,0.6v20.3c0,0.3-0.1,0.6-0.3,0.8c-0.2,0.2-0.5,0.3-0.8,0.3
			s-0.6-0.1-0.8-0.3c-0.2-0.2-0.3-0.5-0.3-0.8V41.6c0,0,0-0.1-0.1-0.1c0,0-0.1,0-0.1,0c-0.8,1.1-1.6,2.1-2.4,3
			c-0.2,0.3-0.5,0.4-0.8,0.3c-0.3,0-0.6-0.2-0.8-0.5c-0.2-0.3-0.3-0.6-0.3-0.9c0-0.4,0.1-0.8,0.4-1.1c1.3-1.4,2.6-3.1,3.8-4.9
			C113.6,35.5,114.6,33.6,115.4,31.6z M137.7,57.5c0.1,0.2,0.1,0.3,0.1,0.5c0,0.2,0,0.3-0.1,0.5c-0.1,0.3-0.3,0.6-0.7,0.7
			c-0.2,0.1-0.3,0.1-0.5,0.1c-0.1,0-0.3,0-0.4-0.1c-0.3-0.1-0.5-0.3-0.6-0.6c-0.2-0.5-0.4-0.9-0.7-1.4c-0.1-0.2-0.2-0.3-0.4-0.3
			c-1.8,0.2-7.2,0.6-16.2,1.3c-0.4,0-0.7-0.1-1-0.3s-0.5-0.5-0.5-0.8c0-0.1,0-0.1,0-0.2c0-0.3,0.1-0.5,0.2-0.7
			c0.2-0.3,0.5-0.4,0.8-0.4l2-0.1c0.2,0,0.4-0.1,0.4-0.3c1.2-3.1,2.3-6.6,3.3-10.4c0-0.1,0-0.1,0-0.2s-0.1-0.1-0.2-0.1h-5.2
			c-0.3,0-0.6-0.1-0.8-0.3c-0.2-0.2-0.3-0.5-0.3-0.8c0-0.3,0.1-0.6,0.3-0.8c0.2-0.2,0.5-0.3,0.8-0.3h18.6c0.3,0,0.6,0.1,0.8,0.3
			c0.2,0.2,0.3,0.5,0.3,0.8c0,0.3-0.1,0.6-0.3,0.8c-0.2,0.2-0.5,0.3-0.8,0.3h-9.9c-0.2,0-0.4,0.1-0.4,0.3c-1.4,4.2-2.6,7.6-3.6,10.2
			c0,0.1,0,0.2,0,0.2c0,0.1,0.1,0.1,0.2,0.1c2.5-0.2,6-0.4,10.5-0.8c0.1,0,0.1,0,0.2-0.1s0-0.1,0-0.2c-0.8-1.4-1.7-2.8-2.6-4.1
			c-0.2-0.2-0.2-0.5-0.1-0.8c0.1-0.3,0.2-0.5,0.5-0.6c0.3-0.1,0.6-0.2,0.9-0.1s0.6,0.2,0.8,0.5C135.1,52.3,136.7,55,137.7,57.5z
			 M134.8,32.9c0.3,0,0.6,0.1,0.8,0.3c0.2,0.2,0.3,0.5,0.3,0.8c0,0.3-0.1,0.6-0.3,0.8c-0.2,0.2-0.5,0.3-0.8,0.3h-14.3
			c-0.3,0-0.6-0.1-0.8-0.3c-0.2-0.2-0.3-0.5-0.3-0.8c0-0.3,0.1-0.6,0.3-0.8s0.5-0.3,0.8-0.3H134.8z"/>
		<path class="st1" d="M145.8,42.7c-0.4,1.1-0.4,1.7,0.1,1.9c0.3,0.1,1.6-0.1,3.8-0.8s3.5-1.2,3.7-1.6c0.2-0.2,0.5-0.4,0.7-0.4
			c0.4-0.1,1,0.2,1.8,0.8c0.5,0.4,0.9,0.8,0.9,1.1c0.1,0.3-0.1,0.6-0.4,0.9c-0.8,0.7-3.4,3.1-7.9,7.4c0.6-0.3,1.3-0.5,2.1-0.5
			c1.6,0,2.4,1.1,2.4,3.2c-0.1,1.5,0.7,2.4,2.3,2.5c2.3-0.2,3.7-0.4,4.3-0.6c0.2,0,0.4-0.1,0.6-0.1c0.5,0,1,0.3,1.4,0.8
			c0.2,0.3,0.3,0.6,0.3,0.9c0,0.7-0.6,1-1.8,1.1c-1.2,0-2.9,0.1-5,0.1c-3,0-4.4-1.5-4.3-4.2c0-0.8,0-1.4-0.1-1.8
			c-0.1-0.3-0.4-0.4-1.1-0.2c-1,0.1-2,0.7-3,1.8c-0.7,0.6-1.4,1.5-2.1,2.6c-0.3,0.4-0.6,0.6-0.8,0.6c-0.7,0-1-0.5-1-1.6
			c0-0.6,0.3-1.2,0.8-1.7c1.7-1.3,5-4.8,10-10.6c-3.3,1.5-5.3,2.4-6.1,2.7c-0.9,0.3-1.7,0.1-2.5-0.6c-1.1-1-1-2.3,0.1-4
			c0.2-0.2,0.4-0.3,0.7-0.2S145.9,42.5,145.8,42.7z M147.1,40c1.4-0.6,2.3-1,2.8-1.2c-1.1-0.5-2-1.5-2.6-3.1
			c-0.2-0.5-0.1-0.7,0.2-0.8s0.7,0,0.9,0.3c0.8,0.9,1.7,1.6,2.7,2c0.6,0.3,1.3,0.5,2.3,0.7c1.5,0.2,2.1,0.9,1.9,1.9
			c-0.1,0.6-0.5,0.9-1.2,0.8c-0.2-0.1-0.4-0.1-0.7-0.3c-0.3-0.1-0.6-0.2-0.8-0.3c-1.1-0.2-2.7,0-4.8,0.7c-0.4,0.1-0.6,0-0.7-0.2
			C146.9,40.4,146.9,40.2,147.1,40z"/>
		<path class="st1" d="M169.8,55.7c-0.1-0.1-0.1-0.2-0.1-0.4c-0.1-0.5,0-1,0.3-1.5c0.5-0.6,1.2-1,2.1-1.2c1.5-0.3,3,0.1,4.3,1
			c0.8,0.6,1.3,1.2,1.5,1.7c0.5-0.1,1.1-0.5,1.8-1.1c1.1-1,1.7-2.2,1.7-3.5c0-1.4-0.6-2.4-1.8-3.2c-0.9-0.5-2-0.8-3.3-0.8
			c-0.9,0-2.2,0.4-3.7,1.3c-1.5,0.9-2.8,2.4-4,4.6c-0.3,0.6-0.7,1-1.2,1c-0.7,0.1-1-0.4-1.1-1.5c0-0.6,0.1-1.2,0.6-1.6l3.4-4
			c1.1-1.3,3-3.6,5.6-7l0.7-0.9c-2.2,0.9-3.9,1.5-4.8,1.9c-0.4,0.2-0.8,0.3-1,0.3c-1.2,0-2-0.9-2.5-2.6c-0.1-0.5-0.1-0.8,0.3-1
			s0.6-0.1,0.8,0.1c0.3,0.6,0.8,0.8,1.3,0.8c0.9,0,2.5-0.3,4.9-1c0.7-0.2,1.2-0.4,1.4-0.7c0.1-0.1,0.3-0.2,0.5-0.2
			c0.5-0.1,1,0.1,1.6,0.4c0.5,0.4,0.8,0.7,0.9,1c0.1,0.4,0,0.8-0.4,1.1c-0.5,0.5-3.1,3.1-7.7,7.8c1.2-1,2.8-1.5,5-1.5
			c2.1,0,3.7,0.5,5,1.4c1.5,1.1,2.2,2.5,2.2,4.2c0,1.9-0.8,3.5-2.4,4.9c-1.7,1.5-3.5,2.3-5.4,2.4c-2,0.1-3.6-0.1-5-0.8
			C170.4,56.8,170,56.3,169.8,55.7z M174.6,54.8c-0.8-0.6-1.6-0.9-2.3-0.8c-0.7,0.1-1,0.4-0.9,0.8c0.1,0.3,0.3,0.6,0.8,0.8
			c0.9,0.5,2.1,0.6,3.4,0.3C175.2,55.5,174.9,55.1,174.6,54.8z"/>
		<path class="st1" d="M191.2,45.2c0,0.1,0,0.2,0.1,0.2c0.1,0.1,0.1,0.1,0.2,0.1h3.9c0.8,0,1.4,0.3,1.9,0.8c0.5,0.5,0.7,1.1,0.7,1.8
			c0,0.7-0.1,2.2-0.3,4.5c-0.1,1.2-0.2,2.2-0.3,3s-0.3,1.5-0.4,1.9c-0.2,0.5-0.4,0.8-0.6,1c-0.5,0.5-1.2,0.9-2.2,0.9
			c-0.4,0-0.9,0-1.5,0c-0.4,0-0.9,0-1.4,0c-0.3,0-0.6-0.1-0.8-0.3s-0.4-0.5-0.5-0.8c-0.1-0.2,0-0.4,0.1-0.6c0.1-0.2,0.3-0.3,0.5-0.3
			c1,0.1,1.9,0.1,2.7,0.1c0.5,0,0.9-0.1,1.1-0.3c0.3-0.3,0.6-1.2,0.8-2.6s0.4-3.6,0.5-6.7c0-0.1,0-0.2-0.1-0.2
			c-0.1-0.1-0.1-0.1-0.2-0.1H191c-0.1,0-0.2,0.1-0.2,0.2c0,0.1,0,0.2,0,0.3c0,0.3-0.2,0.5-0.4,0.7c-0.2,0.2-0.5,0.2-0.8,0.2
			c-0.3-0.1-0.5-0.2-0.7-0.5c-0.1-0.2-0.2-0.4-0.2-0.6c0-0.1,0-0.1,0-0.2c0.4-2.4,0.7-5.1,0.9-8.1c0-0.2,0.1-0.3,0.2-0.4
			s0.2-0.2,0.4-0.2h0.1c0,0,0,0,0,0h5.2c0.2,0,0.3-0.1,0.3-0.3v-4.2c0-0.2-0.1-0.3-0.3-0.3h-5.3c-0.3,0-0.5-0.1-0.8-0.3
			s-0.3-0.5-0.3-0.8c0-0.3,0.1-0.6,0.3-0.8s0.5-0.3,0.8-0.3h5.1c0.8,0,1.4,0.3,1.9,0.8c0.5,0.5,0.8,1.2,0.8,1.9v3.8
			c0,0.8-0.3,1.4-0.8,1.9c-0.5,0.5-1.2,0.8-1.9,0.8h-3.4c-0.2,0-0.3,0.1-0.3,0.3C191.4,42.7,191.3,43.9,191.2,45.2z M217.9,57.9
			c0.1,0.2,0.1,0.3,0.1,0.5c0,0.1,0,0.3-0.1,0.4c-0.1,0.3-0.3,0.5-0.6,0.7c-0.2,0.1-0.3,0.1-0.5,0.1c-0.1,0-0.2,0-0.3-0.1
			c-0.3-0.1-0.5-0.3-0.6-0.5c-0.1-0.4-0.3-0.7-0.5-1c-0.1-0.2-0.2-0.2-0.4-0.2c-0.9,0.1-5.9,0.5-14.8,1.2c-0.3,0-0.6,0-0.9-0.3
			c-0.3-0.2-0.4-0.5-0.5-0.8c0-0.1,0-0.1,0-0.2c0-0.3,0.1-0.5,0.3-0.7c0.2-0.3,0.5-0.4,0.8-0.4c1.9-0.1,4.2-0.3,6.9-0.4
			c0.2,0,0.3-0.1,0.3-0.3v-4.5c0-0.2-0.1-0.3-0.3-0.3h-3.9c-0.8,0-1.4-0.3-1.9-0.8c-0.5-0.5-0.8-1.2-0.8-1.9v-3.2
			c0-0.8,0.3-1.4,0.8-1.9c0.5-0.5,1.2-0.8,1.9-0.8h3.9c0.2,0,0.3-0.1,0.3-0.3v-2.7c0-0.1,0-0.2-0.1-0.2s-0.1-0.1-0.2-0.1
			c-1.1,0.1-3.1,0.2-6.1,0.4c-0.3,0-0.6-0.1-0.9-0.3c-0.3-0.2-0.4-0.5-0.5-0.8c0-0.3,0-0.6,0.2-0.8c0.2-0.2,0.4-0.4,0.8-0.4l1.3-0.1
			c0.2,0,0.3-0.1,0.4-0.3c1-1.7,2-3.4,2.9-5.4c0.1-0.3,0.4-0.6,0.7-0.7c0.2-0.1,0.4-0.1,0.5-0.1c0.1,0,0.3,0,0.5,0.1
			c0.3,0.1,0.5,0.3,0.6,0.6c0.1,0.3,0.1,0.6-0.1,0.9c-1,1.8-1.9,3.3-2.6,4.5c0,0.1,0,0.1,0,0.2s0.1,0.1,0.1,0.1
			c3-0.1,5.7-0.3,8.3-0.4c0.1,0,0.1,0,0.1-0.1c0-0.1,0-0.1,0-0.2c-0.5-0.6-1-1.2-1.4-1.6c-0.2-0.2-0.3-0.5-0.2-0.7s0.2-0.5,0.4-0.6
			c0.3-0.2,0.6-0.2,0.9-0.2c0.3,0,0.6,0.2,0.8,0.4c1.6,1.7,2.9,3.2,3.9,4.7c0.2,0.3,0.2,0.6,0.2,0.9c-0.1,0.3-0.3,0.6-0.5,0.8
			c-0.3,0.2-0.6,0.2-0.9,0.1c-0.3-0.1-0.6-0.2-0.7-0.5c-0.2-0.3-0.3-0.5-0.5-0.8c-0.1-0.1-0.2-0.2-0.4-0.2c-2.1,0.1-3.7,0.3-4.8,0.3
			c-0.2,0-0.3,0.1-0.3,0.3v2.9c0,0.2,0.1,0.3,0.3,0.3h4c0.8,0,1.4,0.3,1.9,0.8c0.5,0.5,0.8,1.2,0.8,1.9v3.2c0,0.8-0.3,1.4-0.8,1.9
			c-0.5,0.5-1.2,0.8-1.9,0.8h-4c-0.2,0-0.3,0.1-0.3,0.3v4.4c0,0.1,0,0.2,0.1,0.2s0.1,0.1,0.2,0.1c0.4,0,1.1-0.1,1.9-0.1
			c0.9-0.1,1.5-0.1,2-0.2c0.1,0,0.1,0,0.1-0.1c0-0.1,0-0.1,0-0.2c-0.5-0.7-0.9-1.4-1.4-1.9c-0.2-0.2-0.3-0.5-0.2-0.7
			c0.1-0.3,0.2-0.5,0.5-0.6c0.3-0.1,0.5-0.2,0.8-0.1c0.3,0.1,0.6,0.2,0.7,0.4C215.8,54.4,217,56.2,217.9,57.9z M202.3,48.7
			c0,0.2,0.1,0.3,0.3,0.3h4.1c0.2,0,0.3-0.1,0.3-0.3v-4c0-0.2-0.1-0.3-0.3-0.3h-4.1c-0.2,0-0.3,0.1-0.3,0.3V48.7z M214.2,44.8
			c0-0.2-0.1-0.3-0.3-0.3h-4.2c-0.2,0-0.3,0.1-0.3,0.3v4c0,0.2,0.1,0.3,0.3,0.3h4.2c0.2,0,0.3-0.1,0.3-0.3V44.8z"/>
		<path class="st1" d="M222.8,34.1c-0.3,0-0.6-0.1-0.8-0.3s-0.3-0.5-0.3-0.8s0.1-0.6,0.3-0.8s0.5-0.3,0.8-0.3h12.9
			c0.3,0,0.6,0.1,0.8,0.3s0.3,0.5,0.3,0.8s-0.1,0.6-0.3,0.8s-0.5,0.3-0.8,0.3h-5.8c-0.2,0-0.4,0.1-0.4,0.3c-0.4,0.8-0.8,1.6-1.2,2.3
			c0,0.1,0,0.1,0,0.2c0,0.1,0.1,0.1,0.2,0.1h5.3c0,0,0.1,0,0.1,0c0.3-0.1,0.5-0.1,0.7,0l0.4,0.2c0.2,0.1,0.4,0.2,0.5,0.4
			s0.1,0.4,0.1,0.6c-1.8,6.8-5.9,11.5-12.2,14.1c-0.3,0.1-0.6,0.1-0.9,0c-0.3-0.1-0.6-0.3-0.8-0.6c-0.1-0.2-0.2-0.5-0.1-0.8
			s0.2-0.5,0.5-0.6c2.7-1,5-2.5,6.9-4.5c0.1-0.2,0.1-0.3,0-0.5c-1.1-1.1-2.5-2.2-4.2-3.4c-0.2-0.1-0.3-0.1-0.5,0.1
			c-0.3,0.3-0.7,0.6-1.1,1c-0.3,0.2-0.6,0.3-0.9,0.3s-0.6-0.1-0.9-0.4c-0.2-0.2-0.3-0.5-0.3-0.8c0-0.3,0.1-0.6,0.4-0.8
			c2.3-1.9,4.2-4.3,5.6-7.2c0-0.1,0-0.1,0-0.2c0-0.1-0.1-0.1-0.2-0.1H222.8z M224,59c-0.2,0.3-0.5,0.4-0.9,0.5c-0.1,0-0.2,0-0.3,0
			c-0.3,0-0.5-0.1-0.7-0.2c-0.3-0.1-0.4-0.3-0.5-0.6c-0.1-0.3,0-0.5,0.2-0.7c1-1.1,1.9-2.5,2.5-4.2c0.1-0.3,0.3-0.5,0.6-0.7
			c0.3-0.1,0.6-0.2,0.9-0.1c0.3,0.1,0.5,0.3,0.7,0.5c0.1,0.3,0.2,0.5,0.1,0.8C226,56.3,225.1,57.8,224,59z M232.8,39.3
			c0-0.1,0-0.2,0-0.2c0-0.1-0.1-0.1-0.2-0.1h-5.4c-0.2,0-0.4,0.1-0.5,0.3c-0.3,0.4-0.5,0.7-0.7,0.9c-0.1,0.1-0.1,0.3,0.1,0.4
			c1.8,1.2,3.2,2.2,4.2,3.2c0.1,0.1,0.3,0.1,0.4,0C231.5,42.4,232.2,40.9,232.8,39.3z M230.7,54.6c-0.1-0.3,0-0.6,0.2-0.8
			c0.2-0.2,0.4-0.4,0.7-0.4c0.3,0,0.6,0,0.8,0.2c0.3,0.2,0.4,0.4,0.5,0.7c0.3,1.3,0.4,2.5,0.5,3.7c0,0.3,0,0.6-0.3,0.9
			c-0.2,0.3-0.5,0.4-0.8,0.5c-0.1,0-0.1,0-0.2,0c-0.2,0-0.4-0.1-0.6-0.2c-0.2-0.2-0.4-0.5-0.4-0.8C231,57.1,230.9,55.8,230.7,54.6z
			 M237.4,54.6c0-0.1-0.1-0.2-0.1-0.3c0-0.1,0-0.3,0.1-0.4c0.1-0.3,0.3-0.4,0.6-0.5c0.3-0.1,0.6-0.1,0.9,0.1
			c0.3,0.1,0.5,0.4,0.6,0.7c0.5,1.3,1,2.5,1.4,3.6c0.1,0.3,0,0.6-0.1,0.9c-0.2,0.3-0.4,0.5-0.8,0.5c-0.3,0.1-0.6,0-0.9-0.1
			c-0.3-0.2-0.5-0.4-0.6-0.7C238.4,57.2,237.9,55.9,237.4,54.6z M240.3,33.8v12.1c0,0.3-0.1,0.6-0.4,0.8s-0.5,0.3-0.8,0.3
			c-0.3,0-0.6-0.1-0.8-0.3s-0.3-0.5-0.3-0.8V33.8c0-0.3,0.1-0.6,0.3-0.8s0.5-0.3,0.8-0.3c0.3,0,0.6,0.1,0.8,0.3
			S240.3,33.5,240.3,33.8z M248,32.1v16.9c0,0.7-0.1,1.3-0.3,1.7c-0.2,0.4-0.6,0.7-1.1,0.8c-0.7,0.3-2,0.4-4.1,0.4
			c-0.4,0-0.7-0.1-1-0.3c-0.3-0.2-0.5-0.5-0.6-0.8c0-0.1-0.1-0.2-0.1-0.3c0-0.2,0.1-0.3,0.2-0.5c0.1-0.2,0.4-0.3,0.7-0.3
			c0.8,0,1.4,0,2,0s0.9,0,1.2,0c0.3,0,0.5,0,0.6-0.1c0.1-0.1,0.2-0.3,0.2-0.5V32.1c0-0.3,0.1-0.6,0.3-0.8c0.2-0.2,0.5-0.3,0.8-0.3
			c0.3,0,0.6,0.1,0.8,0.3C247.9,31.5,248,31.8,248,32.1z M244.2,54.3c-0.1-0.2-0.2-0.3-0.2-0.5c0-0.1,0-0.2,0-0.3
			c0.1-0.3,0.2-0.5,0.5-0.6c0.2-0.1,0.4-0.1,0.6-0.1c0.1,0,0.3,0,0.4,0.1c0.3,0.1,0.6,0.3,0.8,0.5c1.2,1.5,2.2,2.9,3,4.3
			c0.1,0.2,0.2,0.4,0.2,0.6c0,0.1,0,0.2-0.1,0.3c-0.1,0.3-0.3,0.6-0.6,0.7c-0.2,0.1-0.3,0.1-0.5,0.1c-0.1,0-0.3,0-0.4-0.1
			c-0.3-0.1-0.6-0.3-0.8-0.6C246.3,57.3,245.4,55.8,244.2,54.3z"/>
		<path class="st1" d="M259.5,40.4c0.5-1.5,0.7-2.4,0.7-2.9c0-0.4-0.3-0.6-1-0.5c-0.6,0.1-0.9-0.1-0.9-0.5c-0.1-0.4,0.2-0.6,0.8-0.7
			c2.5-0.4,3.7,0,3.7,1.2c0,0.3-0.2,0.9-0.6,1.9l-0.4,1.1l0.7-0.4c0.3-0.2,0.6-0.4,1-0.5c0.5-0.1,0.8,0.1,1.2,0.4
			c0.3,0.2,0.4,0.5,0.4,0.8c0,0.8-1.4,1.4-4.2,1.9l-0.1,0.3c-1.3,3.3-3.1,6.6-5.2,9.9c-0.4,0.6-0.8,1-1.2,1c-0.8,0-1.2-0.5-1.2-1.6
			c0-0.5,0.2-1,0.7-1.5c2-2.5,3.6-5.1,4.7-7.8c-0.6,0.1-1.2,0.1-1.6,0.1c-1.3,0-2.5-0.7-3.4-2c-0.3-0.5-0.3-0.8,0.1-1.1
			c0.4-0.3,0.8-0.2,1.2,0.2c0.6,0.7,1.2,1.1,1.8,1.1C257.4,40.6,258.3,40.6,259.5,40.4z M260.5,57.1c-0.6-0.5-0.9-1.2-0.8-2
			c0-0.8,0.3-1.5,1-2.1c0.9-0.8,2-1.2,3.2-1.3c0.7,0,1.3,0,1.7,0l-0.1-3.5v-0.6c0-2.3,0.6-3.9,1.7-4.8c0.6-0.5,1.2-0.9,2-1.2
			c0,0-0.1-0.1-0.1-0.1c-0.6-0.5-1.2-0.6-1.8-0.3c-0.5,0.2-0.9,0.1-1.1-0.2c-0.2-0.4,0.1-0.7,0.8-0.9c1.7-0.6,3.4-0.2,5,1.1
			c0.7,0.6,1,1.2,1,1.9c0,1-0.3,1.4-1,1.4c-0.3,0-0.7-0.2-1-0.6c-0.3-0.5-0.7-0.8-1.3-0.8c-0.5,0-1,0.3-1.5,0.7
			c-0.7,0.8-0.9,2.3-0.7,4.6c0.1,1.7,0.3,2.9,0.3,3.7c1,0.2,2,0.6,3.2,1.2c1.3,0.6,1.9,1.3,1.8,2c0,0.8-0.4,1.2-1,1.2
			c-0.3,0-0.7-0.2-1.2-0.6c-1-0.8-1.9-1.4-2.7-1.8v0.3c-0.1,2.2-1.4,3.4-4.1,3.6C262.5,58.1,261.4,57.8,260.5,57.1z M265.6,53.4
			c-0.5-0.1-1.2-0.2-1.9-0.1c-0.8,0.1-1.5,0.3-2,0.8c-0.3,0.3-0.4,0.6-0.5,0.9c0,0.1,0.1,0.3,0.3,0.5c0.4,0.5,1,0.7,2,0.7
			c0.8-0.1,1.4-0.3,1.7-0.6c0.3-0.3,0.4-0.7,0.4-1.3v-0.5L265.6,53.4z"/>
		<path class="st1" d="M290,45.7c0,0.3,0,0.6-0.2,0.9c-0.2,0.3-0.4,0.4-0.7,0.5l-2.7,0.9c-0.2,0.1-0.3,0.2-0.3,0.4v10.3
			c0,0.3-0.1,0.5-0.3,0.8c-0.2,0.2-0.5,0.3-0.8,0.3s-0.6-0.1-0.8-0.3c-0.2-0.2-0.3-0.5-0.3-0.8v-9.6c0-0.1,0-0.2-0.1-0.2
			c-0.1-0.1-0.1-0.1-0.2,0c-0.1,0-1.4,0.4-3.9,1.2c-0.3,0.1-0.6,0-0.9-0.1c-0.3-0.2-0.5-0.4-0.6-0.7c-0.1-0.3,0-0.6,0.1-0.9
			c0.2-0.3,0.4-0.5,0.7-0.5c1.8-0.5,3.3-0.9,4.5-1.3c0.2-0.1,0.3-0.2,0.3-0.4v-6.5c0-0.2-0.1-0.3-0.3-0.3h-2.3
			c-0.2,0-0.3,0.1-0.4,0.3c-0.3,1.4-0.6,2.5-0.9,3.5c-0.1,0.3-0.3,0.4-0.6,0.5s-0.5,0.1-0.7-0.1c-0.3-0.1-0.4-0.4-0.5-0.7
			c-0.1-0.1-0.1-0.3-0.1-0.4s0-0.3,0.1-0.4c0.7-2,1.3-4.9,1.7-8.7c0-0.3,0.1-0.5,0.4-0.7c0.2-0.2,0.5-0.2,0.8-0.2
			c0.3,0,0.5,0.2,0.7,0.4c0.2,0.2,0.2,0.5,0.2,0.8c-0.1,0.8-0.3,1.8-0.4,3c0,0.1,0,0.2,0.1,0.2s0.1,0.1,0.2,0.1h1.8
			c0.2,0,0.3-0.1,0.3-0.3v-5.1c0-0.3,0.1-0.5,0.3-0.8c0.2-0.2,0.5-0.3,0.8-0.3s0.6,0.1,0.8,0.3c0.2,0.2,0.3,0.5,0.3,0.8v5.1
			c0,0.2,0.1,0.3,0.3,0.3h1.9c0.3,0,0.6,0.1,0.8,0.3c0.2,0.2,0.3,0.5,0.3,0.8s-0.1,0.6-0.3,0.8c-0.2,0.2-0.5,0.3-0.8,0.3h-1.9
			c-0.2,0-0.3,0.1-0.3,0.3v5.9c0,0.1,0,0.2,0.1,0.2c0.1,0.1,0.1,0.1,0.2,0l2.4-0.7c0.3-0.1,0.5-0.1,0.8,0.1
			C289.9,45.2,290,45.5,290,45.7z M305,35.8C305,35.8,305,35.8,305,35.8l1.1,0c0.3,0,0.6,0.1,0.8,0.3c0.2,0.2,0.3,0.4,0.3,0.7
			c0,0,0,0.1,0,0.2c-0.4,7.2-0.7,12.3-1.1,15.3s-0.9,5-1.6,5.8c-0.5,0.7-1.3,1.1-2.2,1.2c-0.4,0-0.9,0.1-1.5,0.1c-0.3,0-0.6,0-1,0
			c-0.3,0-0.6-0.1-0.9-0.4c-0.3-0.2-0.4-0.5-0.5-0.9c-0.1-0.3,0-0.5,0.1-0.7s0.4-0.3,0.6-0.3c0.8,0,1.5,0.1,2.1,0.1
			c0.5,0,0.9-0.2,1.2-0.6c0.5-0.6,1-2.2,1.4-5c0.4-2.8,0.7-7.2,1-13.3c0-0.1,0-0.2-0.1-0.2c-0.1-0.1-0.1-0.1-0.2-0.1h-0.9
			c-0.2,0-0.3,0.1-0.4,0.3c-0.8,4.2-2,8-3.7,11.6s-3.6,6.4-5.8,8.5c-0.3,0.2-0.6,0.3-0.9,0.3s-0.7-0.1-1-0.3
			c-0.2-0.2-0.4-0.4-0.4-0.7s0.1-0.5,0.3-0.7c2.2-1.9,4.1-4.5,5.7-7.8c1.6-3.3,2.8-6.9,3.6-10.9c0-0.1,0-0.1,0-0.2S301,38,300.9,38
			h-2c-0.2,0-0.3,0.1-0.4,0.3c-0.7,2.6-1.7,5.1-2.9,7.5s-2.6,4.4-4.1,5.9c-0.2,0.2-0.5,0.3-0.9,0.3c-0.3,0-0.6-0.1-0.9-0.3
			c-0.2-0.2-0.4-0.4-0.4-0.7s0.1-0.5,0.3-0.7c1.4-1.3,2.8-3.1,3.9-5.3c1.2-2.2,2.1-4.5,2.8-6.8c0-0.1,0-0.1,0-0.2s-0.1-0.1-0.2-0.1
			h-2.1c-0.2,0-0.4,0.1-0.4,0.3c-0.9,1.9-1.8,3.6-2.8,4.9c-0.2,0.3-0.4,0.4-0.8,0.4c-0.3,0-0.6,0-0.8-0.2c-0.3-0.2-0.4-0.5-0.4-0.9
			c0-0.2,0.1-0.4,0.2-0.7c2-2.6,3.6-6,4.7-10.4c0.1-0.3,0.2-0.6,0.5-0.7c0.2-0.1,0.4-0.2,0.6-0.2c0.1,0,0.2,0,0.3,0
			c0.3,0.1,0.5,0.2,0.7,0.5c0.2,0.3,0.2,0.5,0.1,0.8c-0.3,1.3-0.7,2.4-1.1,3.6c0,0.1,0,0.1,0,0.2c0,0.1,0.1,0.1,0.2,0.1H305z"/>
		<path class="st1" d="M311.6,37.8c-0.3,0-0.5-0.1-0.7-0.3c-0.2-0.2-0.3-0.4-0.3-0.7c0-0.3,0.1-0.5,0.3-0.7s0.4-0.3,0.7-0.3h9.8
			c0.3,0,0.5,0.1,0.7,0.3c0.2,0.2,0.3,0.4,0.3,0.7c0,0.3-0.1,0.5-0.3,0.7c-0.2,0.2-0.4,0.3-0.7,0.3H311.6z M318.6,49
			c0.8,0,1.4,0.3,1.9,0.8c0.5,0.5,0.8,1.2,0.8,1.9v3.9c0,0.8-0.3,1.4-0.8,1.9c-0.5,0.5-1.2,0.8-1.9,0.8h-4.3c-0.1,0-0.1,0-0.1,0.1
			v0.3c0,0.3-0.1,0.5-0.3,0.7c-0.2,0.2-0.5,0.3-0.7,0.3c-0.3,0-0.5-0.1-0.7-0.3c-0.2-0.2-0.3-0.4-0.3-0.7v-7c0-0.8,0.3-1.4,0.8-1.9
			c0.5-0.5,1.2-0.8,1.9-0.8H318.6z M320.3,40.3c0.3,0,0.5,0.1,0.7,0.3c0.2,0.2,0.3,0.4,0.3,0.7c0,0.3-0.1,0.5-0.3,0.7
			c-0.2,0.2-0.4,0.3-0.7,0.3h-7.3c-0.3,0-0.5-0.1-0.7-0.3c-0.2-0.2-0.3-0.4-0.3-0.7c0-0.3,0.1-0.5,0.3-0.7c0.2-0.2,0.4-0.3,0.7-0.3
			H320.3z M313.1,46.6c-0.3,0-0.5-0.1-0.7-0.3c-0.2-0.2-0.3-0.4-0.3-0.7c0-0.3,0.1-0.5,0.3-0.7c0.2-0.2,0.4-0.3,0.7-0.3h7.2
			c0.3,0,0.5,0.1,0.7,0.3c0.2,0.2,0.3,0.4,0.3,0.7c0,0.3-0.1,0.5-0.3,0.7c-0.2,0.2-0.4,0.3-0.7,0.3H313.1z M320.2,31.6
			c0.3,0,0.5,0.1,0.7,0.3c0.2,0.2,0.3,0.4,0.3,0.7s-0.1,0.5-0.3,0.7c-0.2,0.2-0.4,0.3-0.7,0.3h-6.9c-0.3,0-0.5-0.1-0.7-0.3
			s-0.3-0.4-0.3-0.7s0.1-0.5,0.3-0.7c0.2-0.2,0.4-0.3,0.7-0.3H320.2z M319.3,51.3c0-0.2-0.1-0.3-0.3-0.3h-4.5
			c-0.2,0-0.3,0.1-0.3,0.3V56c0,0.2,0.1,0.3,0.3,0.3h4.5c0.2,0,0.3-0.1,0.3-0.3V51.3z M337.4,43.5c0,0.2,0.1,0.3,0.3,0.3h1.4
			c0.3,0,0.5,0.1,0.8,0.3s0.3,0.5,0.3,0.8c0,0.3-0.1,0.5-0.3,0.8s-0.5,0.3-0.8,0.3h-15.6c-0.3,0-0.5-0.1-0.8-0.3s-0.3-0.5-0.3-0.8
			c0-0.3,0.1-0.5,0.3-0.8s0.5-0.3,0.8-0.3h2.7c0.2,0,0.3-0.1,0.4-0.3c0.2-0.9,0.4-2.3,0.8-4c0-0.1,0-0.2-0.1-0.2s-0.1-0.1-0.2-0.1
			h-2.2c-0.3,0-0.5-0.1-0.7-0.3c-0.2-0.2-0.3-0.4-0.3-0.7s0.1-0.5,0.3-0.7c0.2-0.2,0.4-0.3,0.7-0.3h2.5c0.2,0,0.3-0.1,0.3-0.3
			c0-0.3,0.2-1.1,0.4-2.7c0-0.1,0-0.2-0.1-0.2s-0.1-0.1-0.2-0.1h-3.5c-0.3,0-0.5-0.1-0.7-0.3s-0.3-0.4-0.3-0.7
			c0-0.3,0.1-0.5,0.3-0.7s0.4-0.3,0.7-0.3H338c0.3,0,0.5,0.1,0.7,0.3s0.3,0.4,0.3,0.7c0,0.3-0.1,0.5-0.3,0.7s-0.4,0.3-0.7,0.3h-7.1
			c-0.2,0-0.3,0.1-0.4,0.3c-0.1,0.5-0.2,1.4-0.4,2.7c0,0.1,0,0.2,0.1,0.2s0.1,0.1,0.2,0.1h4.3c0.8,0,1.4,0.3,1.9,0.8
			c0.5,0.5,0.8,1.2,0.8,1.9V43.5z M324.6,58.7V51c0-0.8,0.3-1.4,0.8-1.9c0.5-0.5,1.2-0.8,1.9-0.8h8.1c0.8,0,1.4,0.3,1.9,0.8
			c0.5,0.5,0.8,1.2,0.8,1.9v7.5c0,0.3-0.1,0.6-0.3,0.8c-0.2,0.2-0.5,0.3-0.8,0.3c-0.3,0-0.6-0.1-0.8-0.3c-0.2-0.2-0.3-0.5-0.3-0.8
			v-0.1c0-0.1-0.1-0.1-0.2-0.1H327c-0.1,0-0.2,0.1-0.2,0.2v0.3c0,0.3-0.1,0.6-0.3,0.8s-0.5,0.3-0.8,0.3c-0.3,0-0.6-0.1-0.8-0.3
			C324.7,59.3,324.6,59.1,324.6,58.7z M335.8,50.8c0-0.2-0.1-0.3-0.3-0.3h-8.3c-0.2,0-0.3,0.1-0.3,0.3v5.1c0,0.2,0.1,0.3,0.3,0.3
			h8.3c0.2,0,0.3-0.1,0.3-0.3V50.8z M335.1,39.4c0-0.2-0.1-0.3-0.3-0.3H330c-0.2,0-0.3,0.1-0.3,0.3c-0.2,1.3-0.5,2.6-0.8,4
			c0,0.1,0,0.2,0,0.2c0.1,0.1,0.1,0.1,0.2,0.1h5.7c0.2,0,0.3-0.1,0.3-0.3V39.4z"/>
	</g>
</g>
</svg>
