<?xml version="1.0" encoding="utf-8"?>
<!-- Generator: Adobe Illustrator 28.0.0, SVG Export Plug-In . SVG Version: 6.00 Build 0)  -->
<svg version="1.1" id="레이어_1" xmlns="http://www.w3.org/2000/svg" xmlns:xlink="http://www.w3.org/1999/xlink" x="0px"
	 y="0px" width="170.1px" height="28.3px" viewBox="0 0 170.1 28.3" style="enable-background:new 0 0 170.1 28.3;"
	 xml:space="preserve">
<style type="text/css">
	.st0{fill:#DD66AA;}
</style>
<g>
	<path class="st0" d="M12.4,22.1c0,0.3-0.1,0.4-0.2,0.6c-0.2,0.1-0.4,0.2-0.6,0.2l-4.9,0.5v2.6c0,0.7-0.1,1.2-0.4,1.7
		C6,28,5.5,28.3,4.8,28.3c-0.2,0-0.5,0-0.7-0.1c-0.3-0.1-0.5-0.2-0.8-0.3c-0.2-0.1-0.5-0.3-0.6-0.4c0,0,0,0,0-0.1c0,0,0,0,0.1,0
		c0,0,0,0,0,0c0,0,0,0,0,0c0,0,0,0,0,0c0.2,0.1,0.4,0.1,0.7,0.1c0.2,0,0.5,0.1,0.7,0c0.4,0,0.7-0.1,0.8-0.3c0.2-0.2,0.3-0.4,0.3-0.6
		c0.1-0.2,0.1-0.5,0.1-0.8v-2.3L0,24.1v-0.5L5.5,23c0-0.4,0-0.7,0-1.1c0-0.4,0-0.7,0-1.1l-3,0.3v-0.4l5.8-0.6c0,0,0-0.1,0-0.1
		c0,0,0-0.1,0-0.1c0-0.2,0.1-0.3,0.2-0.5c0.1-0.1,0.3-0.2,0.4-0.2c0.2,0,0.3,0,0.4,0.1c0.1,0.1,0.2,0.2,0.2,0.4
		c0,0.2-0.1,0.4-0.2,0.5c-0.2,0.1-0.3,0.2-0.4,0.2l-2.2,0.2v2.2l4.4-0.4c0,0,0-0.1,0-0.1c0,0,0-0.1,0-0.1c0-0.2,0.1-0.4,0.2-0.5
		c0.2-0.1,0.3-0.2,0.5-0.2s0.3,0,0.5,0.1C12.3,21.7,12.4,21.9,12.4,22.1z M12.2,17.4c0,0.1,0,0.1,0,0.2c-0.1,0.3-0.3,0.6-0.5,0.9
		c-0.2,0.3-0.4,0.6-0.6,0.9c-0.2,0.3-0.5,0.5-0.7,0.7c0,0,0,0,0,0c0,0,0,0,0,0c0,0-0.1,0-0.1,0c0,0-0.1,0-0.1,0c0,0,0-0.1,0-0.1
		c0,0,0-0.2,0.1-0.3c0-0.2,0.1-0.4,0.1-0.6c0.1-0.2,0.1-0.4,0.1-0.6c0-0.2,0.1-0.4,0.1-0.5l-8.6,0.9v2.2l-1.1,0.1v-2.6L5.6,18
		c-0.1-0.3-0.2-0.6-0.2-1c-0.1-0.3-0.1-0.6-0.2-0.9c0.3,0,0.5-0.1,0.8-0.1c0.3,0,0.5,0,0.8,0c0.1,0,0.1,0,0.2,0c0,0,0.1,0.1,0.1,0.1
		c0,0.1,0,0.2-0.1,0.3c-0.1,0.2-0.1,0.3-0.2,0.5c-0.1,0.2-0.2,0.4-0.2,0.5c-0.1,0.2-0.1,0.3-0.2,0.4l5.8-0.6
		C12.1,17.4,12.1,17.4,12.2,17.4C12.2,17.4,12.2,17.4,12.2,17.4z"/>
	<path class="st0" d="M25.2,16c0,0.1,0,0.2-0.1,0.4c-0.1,0.2-0.2,0.4-0.4,0.7c-0.1,0.3-0.3,0.5-0.5,0.8c-0.2,0.2-0.3,0.5-0.5,0.6
		c-0.1,0.2-0.3,0.2-0.3,0.3c-0.1,0-0.1,0-0.1-0.1c0,0,0-0.1,0-0.1c0-0.3,0-0.7,0.1-1c0-0.4,0.1-0.7,0.1-1l-8.9,0.9v2.3l-1.1,0.1
		v-2.7l5.1-0.5c-0.1-0.3-0.2-0.6-0.3-0.9c-0.1-0.3-0.2-0.7-0.2-1c0.2,0,0.4,0,0.6,0c0.2,0,0.4,0,0.5,0c0.1,0,0.2,0,0.3,0
		c0.1,0,0.2,0,0.3,0c0.2,0,0.2,0.1,0.2,0.2c0,0.1,0,0.2-0.1,0.3c-0.1,0.2-0.1,0.3-0.2,0.5c-0.1,0.2-0.2,0.4-0.2,0.6
		c-0.1,0.2-0.1,0.3-0.2,0.4l5.8-0.6C25.2,15.9,25.2,15.9,25.2,16z M23.6,24c0,0.5-0.1,0.9-0.3,1.2c-0.2,0.3-0.5,0.6-0.9,0.7
		c-0.4,0.2-0.8,0.3-1.3,0.3L14.8,27v-6.2l3.7-0.4V18l1.1-0.1v2.4l4-0.4V24z M18.5,23.1v-2.2l-2.6,0.3v2.2L18.5,23.1z M18.5,26.2
		v-2.6l-2.6,0.3v2.6L18.5,26.2z M22.5,24.4c0-0.7,0-1.3,0-2c0-0.6,0-1.3,0-2l-2.9,0.3V23l1.4-0.1c0-0.1,0.1-0.3,0.1-0.4
		c0.1-0.1,0.2-0.2,0.3-0.2c0.1,0,0.3,0,0.3,0.1c0.1,0.1,0.1,0.2,0.1,0.3c0,0.1,0,0.2-0.1,0.4c-0.1,0.1-0.2,0.2-0.4,0.2l-1.9,0.2V26
		l1.4-0.1c0.4,0,0.8-0.2,1.1-0.4C22.4,25.2,22.5,24.9,22.5,24.4z"/>
	<path class="st0" d="M37.8,20.7c0,0.1-0.1,0.2-0.2,0.3c-0.1,0.1-0.2,0.2-0.4,0.4c-0.2,0.1-0.3,0.2-0.4,0.3
		c-0.1,0.1-0.3,0.1-0.4,0.1c-0.2,0-0.3,0-0.5,0c-0.4-0.1-0.8-0.2-1.1-0.4c-0.4-0.2-0.7-0.3-1-0.5c-0.3-0.2-0.5-0.4-0.8-0.6
		c-0.2-0.2-0.5-0.4-0.7-0.6c-0.4-0.3-0.7-0.7-1.1-1c-0.1-0.1-0.2-0.1-0.2-0.2c-0.1-0.1-0.2-0.2-0.3-0.2c-0.1,0-0.1-0.1-0.2-0.1
		c-0.1,0-0.2-0.1-0.3-0.1c-0.1,0-0.2,0.1-0.3,0.1c-0.1,0.1-0.2,0.1-0.2,0.2c-0.3,0.3-0.5,0.7-0.7,1.1c-0.2,0.4-0.4,0.8-0.6,1.2
		c-0.1,0.1-0.1,0.2-0.2,0.3c-0.1,0.1-0.1,0.2-0.2,0.3c0,0.1-0.1,0.1-0.1,0.2c0,0.1-0.1,0.1-0.1,0.2c-0.1,0.1-0.2,0.1-0.3,0.2
		c-0.2,0-0.4,0-0.6,0c-0.2,0-0.4-0.1-0.7-0.2c-0.2-0.1-0.4-0.2-0.5-0.3c-0.1-0.1-0.2-0.2-0.3-0.4c-0.1-0.2-0.1-0.3-0.1-0.5
		c0,0,0-0.1,0-0.1c0,0,0-0.1,0.1-0.1c0.3,0.2,0.6,0.3,1,0.2c0.1,0,0.1,0,0.2,0c0.1,0,0.1,0,0.2,0c0.1,0,0.3-0.1,0.5-0.2
		c0.2-0.1,0.3-0.2,0.4-0.3c0.3-0.3,0.5-0.6,0.8-1s0.5-0.7,0.8-1c0.3-0.4,0.7-0.6,1.2-0.6c0.2,0,0.5,0,0.7,0.1
		c0.3,0.1,0.5,0.3,0.8,0.4c0.2,0.2,0.5,0.3,0.6,0.4c0.4,0.3,0.9,0.6,1.4,0.8c0.5,0.3,1,0.5,1.5,0.7c0.3,0.1,0.7,0.2,1,0.3
		c0.3,0.1,0.7,0.1,1,0.2c0.1,0,0.2,0.1,0.4,0.1C37.7,20.5,37.8,20.6,37.8,20.7z"/>
	<path class="st0" d="M49.6,21.3c0,0.2,0,0.5,0,0.7c0,0.3-0.1,0.5-0.2,0.7c-0.1,0.2-0.2,0.4-0.4,0.6c-0.2,0.2-0.4,0.3-0.7,0.3
		c-0.2,0-0.5,0-0.8-0.1c-0.3-0.1-0.6-0.2-0.9-0.3c-0.3-0.1-0.5-0.3-0.6-0.4c0,0,0,0,0-0.1c0,0,0,0,0-0.1c0,0,0,0,0-0.1
		c0,0,0,0,0.1,0c0,0,0.1,0,0.1,0c0,0,0.1,0,0.1,0c0.1,0,0.2,0,0.2,0c0.2,0,0.3,0,0.5,0c0.2,0,0.3,0,0.5,0c0.3,0,0.5-0.1,0.6-0.3
		c0.1-0.2,0.2-0.4,0.3-0.6c0-0.2,0.1-0.5,0.1-0.7v-6.5l-8,0.8v8.8l-1.2,0.1v-9.3L49.6,14V21.3z M44.7,12.2c0,0.1-0.1,0.2-0.3,0.4
		c-0.2,0.2-0.4,0.4-0.7,0.6c-0.3,0.2-0.5,0.5-0.8,0.7c-0.2,0.2-0.5,0.3-0.7,0.5c-0.2,0.1-0.4,0.2-0.4,0.2c-0.1,0-0.1,0-0.1-0.1
		c0-0.1,0-0.1,0-0.1c0.2-0.4,0.5-0.8,0.7-1.3c0.2-0.4,0.5-0.8,0.7-1.3c0.2,0,0.4,0.1,0.6,0.1c0.2,0,0.4,0.1,0.6,0.1c0,0,0,0,0.1,0
		c0,0,0,0,0.1,0c0,0,0,0,0.1,0C44.6,12.1,44.6,12.1,44.7,12.2C44.7,12.2,44.7,12.2,44.7,12.2z M46.9,19c0,0.7-0.1,1.2-0.4,1.5
		c-0.3,0.3-0.8,0.5-1.5,0.6l-3,0.3v-4.2l5-0.5V19z M45.8,17.2l-2.9,0.3v3.3l1.8-0.2c0.4,0,0.7-0.2,0.9-0.4c0.2-0.3,0.3-0.6,0.3-0.9
		V17.2z"/>
	<path class="st0" d="M57.7,17.9c0,0.3,0,0.7-0.1,1.1c-0.1,0.4-0.2,0.8-0.4,1.2c-0.2,0.4-0.4,0.8-0.7,1.1c-0.3,0.3-0.6,0.5-1,0.6
		l0,0c-0.2,0-0.3,0-0.4-0.2c-0.1-0.1-0.2-0.3-0.4-0.6c-0.1-0.2-0.2-0.5-0.3-0.8c-0.1-0.3-0.1-0.5-0.2-0.8c0-0.2-0.1-0.4-0.1-0.5
		c-0.1,0.2-0.2,0.4-0.3,0.6c-0.1,0.2-0.2,0.4-0.3,0.6c-0.1,0.2-0.2,0.3-0.4,0.5c-0.2,0.2-0.3,0.3-0.5,0.3c-0.1,0-0.2,0-0.3-0.2
		c-0.1-0.1-0.1-0.2-0.1-0.4c0-0.1,0-0.3,0.1-0.5c0.1-0.2,0.1-0.3,0.3-0.4c0,0,0.1-0.1,0.1-0.1c0,0,0.1,0,0.1-0.1
		c0,0,0.1-0.1,0.1-0.2c0.4-0.5,0.7-1,0.9-1.5c0.3-0.5,0.5-1.1,0.6-1.6c-0.3,0.2-0.7,0.5-1,0.7c-0.3,0.2-0.6,0.5-1,0.8
		c0,0-0.1,0.1-0.1,0.1c0,0-0.1,0.1-0.2,0.1c-0.1,0.1-0.2,0.1-0.3,0.1c-0.1,0-0.2,0-0.3-0.1c-0.1-0.1-0.2-0.1-0.2-0.2
		c-0.1-0.1-0.2-0.2-0.3-0.3c-0.1-0.1-0.1-0.2-0.1-0.4c0-0.1,0-0.2,0.1-0.3c0.1-0.1,0.1-0.2,0.2-0.3c0,0.1,0.1,0.1,0.1,0.3
		c0.1,0.1,0.1,0.2,0.2,0.3c0.1,0.1,0.2,0.1,0.2,0.1c0.1,0,0.3-0.1,0.5-0.2c0.2-0.1,0.5-0.2,0.8-0.4c0.3-0.2,0.6-0.3,0.8-0.4
		c0.3-0.1,0.4-0.2,0.5-0.3c0.1-0.3,0.2-0.7,0.3-1.1c0.1-0.4,0.1-0.8,0.1-1.1c0-0.2,0-0.4-0.1-0.6c-0.1-0.2-0.3-0.2-0.5-0.2
		c0,0,0,0-0.1,0c0,0-0.1,0-0.1,0c0-0.1,0.1-0.1,0.2-0.2c0.1-0.1,0.3-0.1,0.4-0.2c0.2-0.1,0.3-0.1,0.3-0.1c0.2,0,0.3,0,0.5,0
		c0.2,0,0.3,0.1,0.5,0.2c0.1,0.1,0.2,0.3,0.2,0.4c0,0.1,0,0.3-0.1,0.5c-0.1,0.2-0.1,0.5-0.2,0.7c-0.1,0.3-0.2,0.5-0.3,0.7
		c-0.1,0.2-0.2,0.4-0.2,0.5c0.1,0,0.1-0.1,0.2-0.1c0.1,0,0.2-0.1,0.2-0.1c0.5-0.1,0.9,0,1.1,0.3c0.3,0.2,0.4,0.5,0.5,0.9
		C57.7,17.1,57.7,17.5,57.7,17.9z M56.5,17.6c0-0.1,0-0.3,0-0.5c0-0.2,0-0.4-0.1-0.6c-0.1-0.2-0.1-0.3-0.2-0.4
		C56.1,16,56,15.9,55.8,16c-0.1,0-0.1,0-0.2,0.1c-0.1,0-0.1,0.1-0.2,0.1c-0.2,0.5-0.3,1-0.5,1.4c-0.2,0.5-0.4,0.9-0.6,1.4
		c0,0.1,0.1,0.3,0.2,0.5c0.1,0.2,0.2,0.4,0.4,0.6c0.1,0.2,0.3,0.4,0.4,0.5c0.2,0.1,0.3,0.2,0.5,0.2c0.1,0,0.2-0.1,0.3-0.3
		c0.1-0.2,0.2-0.4,0.2-0.7c0.1-0.3,0.1-0.6,0.1-0.9c0-0.3,0.1-0.6,0.1-0.8C56.5,17.9,56.5,17.7,56.5,17.6z M63.1,15.8
		c0,0.2-0.1,0.3-0.2,0.5c-0.1,0.1-0.3,0.2-0.5,0.3c-0.1-0.1-0.2-0.2-0.3-0.2c-0.1-0.1-0.3-0.1-0.4-0.1c-0.2,0-0.5,0.1-0.8,0.3
		c-0.3,0.2-0.6,0.3-0.9,0.5c-0.3,0.2-0.5,0.3-0.7,0.5c-0.2,0.1-0.3,0.2-0.4,0.2c0,0-0.1,0-0.1,0c0,0,0,0,0,0
		c0.1-0.1,0.3-0.3,0.4-0.4c0.2-0.1,0.3-0.3,0.4-0.4c0.3-0.2,0.6-0.5,0.8-0.7c0.3-0.2,0.6-0.5,0.8-0.7c0-0.1-0.2-0.2-0.4-0.4
		c-0.2-0.1-0.4-0.2-0.7-0.3c-0.3-0.1-0.5-0.2-0.8-0.2c-0.2-0.1-0.4-0.1-0.6-0.1c0,0-0.1,0-0.2,0c-0.1,0-0.1,0-0.1,0
		c0,0,0.1-0.1,0.2-0.1c0.1,0,0.3-0.1,0.4-0.1c0.1,0,0.2,0,0.3,0c0.3,0,0.6,0,0.9,0c0.3,0,0.6,0,0.8,0.1c0.3,0.1,0.5,0.1,0.8,0.3
		c0.3,0.1,0.5,0.3,0.7,0.5C63,15.2,63.1,15.5,63.1,15.8z"/>
	<path class="st0" d="M71.6,15.1c0,0.7-0.1,1.4-0.3,2c-0.2,0.6-0.5,1.2-0.9,1.7c-0.4,0.5-0.8,1.1-1.4,1.6c-0.2,0.2-0.5,0.4-0.8,0.6
		c-0.3,0.2-0.7,0.4-1.1,0.6c-0.4,0.2-0.7,0.3-0.9,0.4c0,0,0,0-0.1,0c-0.1,0-0.1,0-0.1,0c0,0,0-0.1,0-0.1c0,0,0.1,0,0.1,0
		c0.4-0.3,0.8-0.6,1.2-1c0.4-0.3,0.7-0.7,1.1-1.1c0.6-0.8,1-1.5,1.3-2.3c0.3-0.8,0.4-1.6,0.4-2.5c0-0.1,0-0.3,0-0.5
		c0-0.2-0.1-0.4-0.1-0.6c-0.1-0.2-0.2-0.3-0.3-0.5c-0.1-0.1-0.3-0.2-0.5-0.1c-0.2,0-0.5,0.1-0.8,0.3c-0.3,0.2-0.6,0.4-0.8,0.6
		c-0.3,0.2-0.4,0.5-0.6,0.7c-0.1,0.1-0.2,0.2-0.3,0.4c-0.1,0.1-0.3,0.2-0.4,0.2c-0.2,0-0.4,0-0.6-0.2c-0.2-0.1-0.3-0.3-0.3-0.6
		c0-0.2,0.1-0.5,0.3-0.8s0.5-0.6,0.8-0.9c0.3-0.3,0.6-0.6,0.9-0.8c0.3-0.2,0.6-0.4,0.7-0.6c-0.2,0-0.5,0-0.7,0
		c-0.3,0-0.5-0.1-0.7-0.2c-0.2-0.1-0.3-0.3-0.3-0.6c0,0,0-0.1,0-0.1c0,0,0.1-0.1,0.1-0.1c0.2,0.2,0.4,0.3,0.6,0.3
		C67.5,11,67.7,11,68,11c0.3,0,0.5,0,0.7,0c0.1,0,0.2,0,0.3,0c0.1,0,0.2,0,0.3-0.1c0.1-0.1,0.2-0.1,0.3-0.2c0.1-0.1,0.2-0.1,0.3-0.1
		c0.1,0,0.3,0,0.4,0.1c0.1,0,0.2,0.1,0.3,0.2s0.2,0.2,0.2,0.3c0,0.1,0,0.2-0.1,0.3c-0.1,0-0.2,0.1-0.3,0.1c-0.1,0-0.2,0.1-0.4,0.1
		c-0.1,0-0.2,0-0.4,0.1c-0.3,0-0.5,0.1-0.9,0.3c-0.3,0.1-0.6,0.3-1,0.5c-0.3,0.2-0.6,0.4-0.9,0.6c-0.3,0.2-0.4,0.5-0.6,0.7
		c0,0.1,0,0.1-0.1,0.2c0,0.1,0,0.1,0,0.2c0,0,0,0.1,0.1,0.1c0,0,0.1,0,0.1,0.1c0.4-0.3,0.9-0.6,1.4-0.8c0.5-0.3,1-0.4,1.5-0.5
		c0.5,0,0.9,0,1.2,0.2c0.3,0.2,0.6,0.4,0.7,0.8C71.6,14.3,71.6,14.7,71.6,15.1z"/>
	<path class="st0" d="M86.8,12.7c0,0.2-0.1,0.4-0.3,0.6c-0.2,0.2-0.4,0.2-0.5,0.3l-11.9,1.2v-0.5l7-0.7c0.1-0.4,0.2-0.9,0.4-1.3
		c0.1-0.4,0.2-0.8,0.3-1.2l1,0.2c0.1,0,0.1,0,0.2,0c0.1,0,0.1,0,0.2,0c0,0,0.1,0,0.1,0.1c0,0.1-0.1,0.2-0.2,0.4
		c-0.1,0.2-0.3,0.4-0.5,0.6c-0.2,0.2-0.4,0.5-0.6,0.7c-0.2,0.2-0.3,0.4-0.4,0.5l3.9-0.4c0-0.1-0.1-0.1-0.1-0.2
		c0-0.2,0.1-0.4,0.2-0.5c0.2-0.1,0.3-0.2,0.5-0.2c0.2,0,0.3,0,0.5,0.1C86.7,12.4,86.8,12.5,86.8,12.7z M85.2,9.5
		c0,0.2-0.1,0.4-0.3,0.6c-0.2,0.1-0.4,0.2-0.5,0.2l-9,0.9v-0.5l4.3-0.4c0-0.3-0.1-0.6-0.1-1c0-0.3-0.1-0.7-0.1-1.1
		c0.2,0,0.4,0,0.6-0.1c0.2,0,0.4,0,0.6,0c0.2,0,0.3,0,0.4,0c0.1,0,0.1,0,0.2,0c0.1,0,0.1,0.1,0.1,0.2c0,0.1,0,0.2-0.1,0.4
		C81.2,9,81.1,9.1,81,9.3c-0.1,0.2-0.2,0.4-0.3,0.5c-0.1,0.2-0.2,0.3-0.3,0.4l3.4-0.3c0-0.1,0-0.2,0-0.2c0-0.2,0.1-0.4,0.2-0.5
		C84.1,9,84.3,9,84.5,8.9c0.2,0,0.3,0,0.5,0.1C85.1,9.2,85.2,9.3,85.2,9.5z M84.1,18.1c0,0.5-0.1,0.9-0.3,1.2
		c-0.2,0.3-0.4,0.5-0.8,0.7c-0.3,0.1-0.7,0.2-1.2,0.3l-5.3,0.5v-5.3l7.6-0.8V18.1z M78.7,13.1c0,0,0,0.1,0,0.1c0,0,0,0.1,0,0.1
		c0,0.1-0.1,0.1-0.2,0.2c-0.1,0-0.1,0-0.2-0.1c-0.1-0.1-0.1-0.2-0.2-0.2C78.1,13.2,78,13.1,78,13c-0.2-0.2-0.3-0.4-0.5-0.5
		c-0.2-0.2-0.3-0.4-0.5-0.5c0.1,0,0.3-0.1,0.5-0.2c0.2-0.1,0.4-0.2,0.6-0.2c0.2-0.1,0.3-0.1,0.4-0.1c0,0,0.1,0,0.1,0
		c0,0,0.1,0.1,0.1,0.1c0,0.1,0,0.2,0.1,0.4c0,0.2,0.1,0.4,0.1,0.6C78.7,12.8,78.7,13,78.7,13.1z M83,15.4l-5.3,0.6v1.9l3.2-0.3
		c0-0.2,0.1-0.4,0.2-0.5c0.1-0.1,0.3-0.2,0.4-0.2c0.1,0,0.3,0,0.4,0.1C82,16.9,82,17,82,17.2c0,0.2-0.1,0.3-0.2,0.4
		c-0.1,0.1-0.2,0.2-0.4,0.2l-3.9,0.4v1.9l4.1-0.4c0.3,0,0.6-0.2,0.8-0.3c0.2-0.2,0.3-0.4,0.4-0.6c0.1-0.2,0.1-0.5,0.1-0.7V15.4z"/>
	<path class="st0" d="M99.4,13.7c0,0.2-0.1,0.3-0.2,0.4c-0.1,0.1-0.2,0.2-0.4,0.2L94,14.9v4.2l-1.1,0.1v-3.5
		c-0.8,0.9-1.6,1.7-2.5,2.3c-0.9,0.6-1.9,1.1-2.9,1.4c0,0-0.1,0-0.1,0c0,0,0,0,0,0c0,0,0,0,0,0c-0.1,0-0.1,0-0.1,0
		c0,0,0-0.1,0.1-0.1c0,0,0,0,0,0c0,0,0,0,0,0c0.1-0.1,0.2-0.2,0.4-0.2c0.1-0.1,0.2-0.2,0.3-0.2c0.4-0.3,0.8-0.7,1.3-1.1
		c0.5-0.4,0.9-0.9,1.3-1.3c0.4-0.5,0.8-0.9,1.1-1.4l-4.1,0.4v-0.5l5.2-0.5v-0.9l-1.6,0.2V8.9l1.2-0.1c0.1-0.3,0.1-0.6,0.2-1
		c0.1-0.3,0.1-0.7,0.2-1c0.2,0,0.5,0,0.8,0.1c0.3,0,0.5,0,0.7,0.1c0,0,0,0,0,0c0,0,0,0,0,0c0,0,0,0,0.1,0c0,0,0.1,0,0.1,0.1
		c0,0.1-0.1,0.2-0.2,0.3c-0.1,0.1-0.3,0.3-0.5,0.5c-0.2,0.2-0.4,0.4-0.6,0.5c-0.2,0.2-0.3,0.3-0.4,0.3l2.9-0.3v3.2
		c0,0.6-0.1,1-0.4,1.3c-0.3,0.3-0.7,0.5-1.4,0.6v0.9l4.2-0.4c0,0,0,0,0-0.1c0,0,0,0,0,0c0-0.2,0.1-0.3,0.2-0.5
		c0.1-0.1,0.3-0.2,0.4-0.2c0.1,0,0.3,0,0.4,0.1C99.3,13.4,99.4,13.6,99.4,13.7z M91,11.4c0,0,0,0.1-0.1,0.2
		c-0.1,0.1-0.3,0.3-0.5,0.6c-0.2,0.2-0.5,0.5-0.8,0.7c-0.3,0.2-0.5,0.4-0.7,0.6c-0.2,0.2-0.4,0.2-0.4,0.3c0,0-0.1,0-0.2-0.1
		c0,0-0.1-0.1-0.1-0.1c0,0-0.1-0.1-0.1-0.1C88,13.2,88,13.1,87.9,13c-0.1-0.1-0.1-0.2-0.2-0.2c0.1-0.1,0.3-0.1,0.4-0.2
		c0.1-0.1,0.3-0.1,0.4-0.2c0.1-0.1,0.3-0.1,0.4-0.2c0.1-0.1,0.2-0.1,0.4-0.2c0.3-0.1,0.5-0.3,0.8-0.4c0.3-0.1,0.5-0.3,0.8-0.4
		c0,0,0,0,0,0C90.9,11.4,90.9,11.4,91,11.4C90.9,11.4,90.9,11.4,91,11.4C90.9,11.4,91,11.4,91,11.4z M90.5,10.5c0,0.1,0,0.1-0.1,0.1
		c0,0-0.1,0-0.3-0.1c-0.2-0.1-0.4-0.1-0.7-0.2c-0.3-0.1-0.5-0.2-0.7-0.2c-0.2-0.1-0.4-0.1-0.5-0.2c0.1-0.2,0.3-0.4,0.5-0.7
		c0-0.1,0.1-0.1,0.1-0.2c0-0.1,0.1-0.1,0.1-0.2c0,0,0.1-0.1,0.1-0.1c0,0,0.1,0,0.1-0.1c0.1,0,0.1,0,0.3,0.1c0.1,0.1,0.2,0.2,0.4,0.4
		c0.1,0.2,0.3,0.3,0.4,0.5c0.1,0.2,0.2,0.3,0.3,0.5C90.5,10.4,90.5,10.5,90.5,10.5z M94.7,9l-2.4,0.2l0,1.8l1-0.1
		c0-0.2,0.1-0.4,0.2-0.5c0.1-0.1,0.2-0.2,0.3-0.2c0.1,0,0.2,0,0.3,0.1c0.1,0.1,0.2,0.2,0.2,0.4c0,0.2-0.1,0.3-0.2,0.4
		c-0.1,0.1-0.2,0.1-0.4,0.1l-1.4,0.1v1.8l1.5-0.2c0.3,0,0.6-0.2,0.7-0.4c0.1-0.2,0.2-0.4,0.2-0.7V9z M100,17.6
		c0,0.2-0.1,0.3-0.2,0.4c-0.1,0.1-0.2,0.2-0.4,0.2c-0.4,0-0.9,0-1.4-0.1c-0.5-0.1-0.9-0.3-1.4-0.5c-0.5-0.2-0.9-0.5-1.3-0.8
		c-0.4-0.3-0.7-0.6-1-1l1.2-0.7c0.4,0.6,0.8,1.1,1.4,1.6c0.5,0.5,1.2,0.9,1.9,1.2c0-0.1,0-0.1,0-0.2c0-0.2,0.1-0.3,0.2-0.4
		c0.1-0.1,0.3-0.2,0.4-0.2c0.1,0,0.3,0,0.4,0.1C99.9,17.2,100,17.4,100,17.6z M98.9,8.3c0,0,0,0.1-0.1,0.2c-0.1,0.1-0.2,0.2-0.4,0.3
		c-0.2,0.1-0.4,0.3-0.6,0.5c-0.2,0.2-0.5,0.3-0.7,0.5c-0.2,0.2-0.4,0.3-0.6,0.4c-0.2,0.1-0.3,0.2-0.4,0.2c0,0,0,0,0,0c0,0,0,0,0,0
		c0,0,0,0,0,0c0,0,0-0.1,0-0.1c0,0,0-0.1,0.1-0.1c0.2-0.4,0.5-0.8,0.7-1.2c0.2-0.4,0.4-0.8,0.6-1.2c0.1,0,0.2,0.1,0.3,0.1
		c0.1,0,0.2,0.1,0.3,0.1c0.1,0,0.3,0.1,0.4,0.2c0.1,0.1,0.2,0.1,0.2,0.1C98.9,8.2,98.9,8.3,98.9,8.3z M99.9,12
		c0,0.2-0.1,0.3-0.2,0.4c-0.1,0.1-0.2,0.1-0.3,0.1c-0.2,0-0.5,0-0.8-0.1c-0.3-0.1-0.6-0.2-0.9-0.3c-0.3-0.1-0.6-0.3-0.9-0.4
		c0,0,0,0,0,0c0,0,0,0,0,0c0,0,0,0-0.1,0c0,0,0,0-0.1,0c0,0,0,0,0,0c0,0,0,0-0.1,0c0,0,0,0,0,0c0,0,0-0.1,0.1-0.1
		c0,0,0.1-0.1,0.1-0.1c0,0,0.1-0.1,0.1-0.2c0.1-0.1,0.2-0.2,0.2-0.3c0.1-0.1,0.2-0.2,0.2-0.3c0.3,0.3,0.5,0.6,0.8,0.9
		c0.3,0.3,0.6,0.5,0.8,0.6c0-0.2,0.1-0.3,0.2-0.4c0.1-0.1,0.2-0.1,0.3-0.2c0.1,0,0.2,0,0.3,0.1C99.9,11.7,99.9,11.9,99.9,12z"/>
	<path class="st0" d="M106,8.7c0,0.1-0.1,0.3-0.2,0.4c-0.1,0.1-0.2,0.2-0.3,0.2l-1.6,0.2c0,0.3-0.1,0.7-0.1,1c0,0.3-0.1,0.7-0.1,1
		l2.3-0.2c0,0.3-0.1,0.8-0.2,1.4c-0.1,0.6-0.2,1.2-0.3,1.7c-0.1,0.6-0.2,1.2-0.4,1.7c-0.1,0.5-0.3,0.9-0.5,1.2
		c-0.1,0.2-0.3,0.4-0.5,0.6c-0.2,0.2-0.4,0.3-0.7,0.3c-0.1,0-0.3,0-0.5-0.1c-0.2-0.1-0.3-0.2-0.5-0.4c-0.2-0.1-0.3-0.3-0.4-0.3
		c0,0,0,0-0.1-0.1s-0.1-0.1-0.1-0.1c0,0,0-0.1,0-0.1c0,0,0.1,0,0.1,0c0,0,0.1,0,0.1,0c0,0,0,0,0.1,0c0.1,0.1,0.2,0.1,0.4,0.1
		c0.1,0,0.3,0,0.5,0c0.1,0,0.2,0,0.2-0.1c0.1,0,0.1-0.1,0.2-0.1c0.1-0.1,0.3-0.3,0.4-0.5c0.1-0.2,0.2-0.4,0.2-0.7
		c0.1-0.2,0.1-0.4,0.1-0.6c0.1-0.6,0.2-1.2,0.3-1.8c0.1-0.6,0.2-1.2,0.2-1.9l-1.3,0.1c-0.1,0.4-0.2,0.9-0.3,1.3
		c-0.1,0.4-0.3,0.9-0.4,1.3c-0.1,0.3-0.3,0.7-0.5,1s-0.4,0.7-0.6,1c-0.1,0.1-0.2,0.3-0.3,0.4c-0.1,0.1-0.2,0.3-0.3,0.4
		c0,0,0,0-0.1,0.1c0,0-0.1,0.1-0.1,0.1c-0.1,0.1-0.1,0.1-0.2,0.2c-0.1,0.1-0.2,0.1-0.2,0c-0.1,0-0.1-0.1,0-0.2
		c0.2-0.4,0.5-0.8,0.7-1.1c0.2-0.4,0.4-0.8,0.5-1.2c0.3-0.9,0.5-1.9,0.7-2.8c0.1-1,0.2-1.9,0.3-2.8L101,9.7V9.2l2.1-0.2
		c-0.1-0.5-0.2-1-0.2-1.4c-0.1-0.5-0.1-0.9-0.2-1.4l1.2-0.1c0.1,0,0.2,0,0.2,0s0.2,0,0.2,0c0,0,0,0,0,0c0,0,0,0,0,0c0,0,0,0,0,0
		c0,0,0,0,0,0l0,0l0,0c0,0,0,0,0,0.1c0,0,0,0.1,0,0.1c0,0.1,0,0.2-0.1,0.5c-0.1,0.2-0.2,0.5-0.3,0.8c-0.1,0.3-0.2,0.6-0.4,0.9
		c-0.1,0.3-0.2,0.5-0.3,0.6l1.4-0.1c0-0.2,0.1-0.3,0.2-0.5c0.1-0.1,0.2-0.2,0.4-0.2c0.1,0,0.2,0,0.4,0.1C105.9,8.4,106,8.5,106,8.7z
		 M112.8,7.2c0,0.2-0.1,0.4-0.2,0.5c-0.1,0.1-0.3,0.2-0.5,0.2l-4.6,0.5c-0.2,0.3-0.5,0.7-0.7,1c-0.3,0.3-0.6,0.6-0.8,0.8
		c-0.1,0.1-0.2,0.1-0.2,0.1c-0.1,0-0.1-0.1,0-0.2c0.1-0.2,0.2-0.3,0.3-0.5c0.1-0.2,0.2-0.4,0.3-0.5c0.3-0.6,0.6-1.2,0.8-1.8
		c0.2-0.6,0.5-1.2,0.6-1.9l1.3,0.2c0.1,0,0.1,0.1,0.1,0.1c0,0.1-0.1,0.2-0.2,0.4c-0.1,0.2-0.2,0.4-0.4,0.6c-0.1,0.2-0.3,0.5-0.4,0.7
		c-0.1,0.2-0.3,0.4-0.3,0.5l3.6-0.4c0-0.1-0.1-0.2-0.1-0.2c0-0.2,0.1-0.4,0.2-0.5c0.1-0.1,0.3-0.2,0.4-0.2c0.2,0,0.3,0,0.4,0.1
		C112.8,6.9,112.8,7,112.8,7.2z M111.7,9.4c0,0,0,0.1-0.1,0.1c-0.1,0-0.1,0.1-0.1,0.1c-0.3,0.1-0.6,0.3-1,0.4
		c-0.4,0.1-0.8,0.3-1.1,0.4c-0.4,0.1-0.7,0.2-1,0.3v7.1l-1.1,0.1V11c-0.4,0.1-0.7,0.2-0.9,0.2c0,0-0.1,0-0.1,0c0,0,0-0.1,0-0.1
		c0,0,0.1,0,0.1,0c0,0,0,0,0.1,0c0,0,0,0,0.1,0c0,0,0.1,0,0.1,0c0.1,0,0.3-0.1,0.4-0.2c0.6-0.3,1.2-0.6,1.8-0.9
		c0.6-0.3,1.1-0.7,1.7-1.2c0.1,0,0.2,0.1,0.3,0.2c0.1,0.1,0.2,0.1,0.4,0.2c0.2,0.1,0.3,0.2,0.4,0.2C111.6,9.3,111.7,9.4,111.7,9.4z
		 M113.8,16c0,0.2-0.1,0.3-0.2,0.4c-0.1,0.1-0.2,0.2-0.3,0.2c-0.2,0-0.4,0-0.6,0c-0.4-0.1-0.8-0.2-1.1-0.4c-0.3-0.2-0.6-0.4-1-0.7
		c-0.3-0.3-0.6-0.6-0.9-1c-0.3-0.4-0.5-0.7-0.7-1.1c-0.2-0.4-0.4-0.7-0.5-1.1c0.3-0.2,0.7-0.4,1.1-0.6c0.4-0.2,0.8-0.4,1.2-0.7
		c0.4-0.2,0.7-0.5,1-0.7c0.1,0.1,0.1,0.1,0.2,0.2c0.1,0.1,0.2,0.1,0.3,0.2c0.1,0.1,0.2,0.2,0.3,0.3c0.1,0.1,0.1,0.1,0.1,0.2
		c0,0.1-0.1,0.1-0.2,0.2c-0.1,0-0.2,0.1-0.2,0.1c0,0-0.1,0-0.1,0c0,0-0.1,0-0.1,0c-0.1,0-0.2,0.1-0.3,0.1c-0.1,0-0.2,0-0.2,0.1
		c-0.3,0.1-0.6,0.2-1,0.3c-0.3,0.1-0.7,0.2-1,0.3c0.1,0.3,0.2,0.7,0.4,1.1c0.2,0.4,0.4,0.8,0.7,1.2c0.3,0.4,0.6,0.8,0.9,1.1
		c0.3,0.3,0.6,0.6,0.9,0.7c0-0.2,0.1-0.4,0.2-0.5c0.1-0.1,0.2-0.2,0.3-0.2s0.2,0,0.4,0.1C113.8,15.7,113.8,15.8,113.8,16z"/>
	<path class="st0" d="M118,8.2c0,0.1-0.1,0.2-0.2,0.4c-0.1,0.2-0.3,0.4-0.4,0.6c-0.2,0.2-0.3,0.4-0.5,0.6c-0.2,0.2-0.3,0.3-0.3,0.4
		v6.4l-1.1,0.1v-5.4c-0.3,0.3-0.6,0.6-0.9,0.9c-0.4,0.3-0.7,0.5-1.1,0.7c0,0-0.1,0-0.1,0c0,0,0,0-0.1,0c0,0,0,0,0,0c0,0,0,0,0.1-0.1
		l0,0c0.2-0.2,0.4-0.4,0.6-0.7c0.2-0.2,0.4-0.4,0.6-0.7c0.4-0.5,0.8-1.1,1.2-1.7s0.7-1.2,0.9-1.9l1.2,0.3C117.9,8.1,118,8.1,118,8.2
		z M118.1,5.1c0,0.1-0.1,0.2-0.2,0.4c-0.1,0.2-0.3,0.4-0.5,0.5c-0.2,0.2-0.4,0.4-0.5,0.5c-0.2,0.2-0.3,0.3-0.4,0.4
		c-0.3,0.3-0.7,0.6-1.1,0.9c-0.4,0.3-0.8,0.6-1.2,0.8c-0.1,0-0.1,0-0.1,0c-0.1,0-0.1,0-0.1,0c0,0,0-0.1,0-0.1c0,0,0,0,0-0.1
		c0.6-0.6,1.1-1.2,1.5-1.8c0.4-0.7,0.8-1.3,1.2-2L118.1,5.1L118.1,5.1L118.1,5.1C118.1,5,118.1,5,118.1,5.1
		C118.1,5,118.1,5.1,118.1,5.1z M126,8.2c0,0.3-0.1,0.4-0.2,0.6c-0.2,0.1-0.4,0.2-0.6,0.2l-1.5,0.2v4.5c0,0.3,0,0.6,0,0.9
		c0,0.3-0.1,0.6-0.2,0.8c-0.1,0.3-0.3,0.5-0.5,0.6c-0.2,0.2-0.6,0.3-1,0.3c-0.2,0-0.5,0-0.8-0.1c-0.3-0.1-0.5-0.2-0.8-0.4
		c-0.3-0.1-0.5-0.3-0.6-0.4c0,0-0.1,0-0.1-0.1c0,0,0,0,0-0.1c0,0,0-0.1,0.1-0.1c0,0,0.1,0,0.1,0c0,0,0,0,0.1,0c0,0,0,0,0.1,0
		c0,0,0,0,0,0c0,0,0,0,0,0c0.1,0,0.1,0,0.2,0c0.1,0,0.1,0,0.2,0c0.2,0,0.4,0,0.6,0.1c0.2,0,0.4,0,0.6,0c0.3,0,0.5-0.1,0.7-0.3
		c0.1-0.2,0.2-0.4,0.3-0.6c0-0.2,0.1-0.5,0.1-0.7V9.2l-4.1,0.4V9.2l6.2-0.6c0-0.1,0-0.1,0-0.2c0-0.2,0.1-0.3,0.2-0.5
		c0.1-0.2,0.3-0.2,0.5-0.3c0.2,0,0.4,0,0.5,0.2C125.9,7.8,126,8,126,8.2z M124.3,5c0,0.2-0.1,0.4-0.2,0.5c-0.1,0.2-0.3,0.2-0.5,0.3
		L119,6.2V5.7l4-0.4c0-0.1,0-0.2,0-0.2c0-0.2,0.1-0.3,0.2-0.5c0.1-0.1,0.3-0.2,0.5-0.3c0.2,0,0.4,0,0.5,0.2
		C124.3,4.6,124.3,4.8,124.3,5z"/>
	<path class="st0" d="M137.3,8.8c0,0.9-0.2,1.6-0.6,2.3c-0.4,0.7-0.9,1.2-1.5,1.7c-0.6,0.5-1.3,0.9-2.1,1.2c-0.1,0-0.3,0.1-0.5,0.2
		c-0.2,0.1-0.4,0.1-0.6,0.2c-0.2,0.1-0.4,0.1-0.5,0.1c-0.1,0-0.1,0-0.1-0.1c0,0,0,0,0-0.1c0,0,0,0,0.1,0c0.4-0.2,0.9-0.4,1.3-0.7
		c0.4-0.2,0.8-0.5,1.2-0.9c1.1-1.2,1.7-2.5,1.7-4c0-0.5-0.1-1-0.2-1.5c-0.1-0.5-0.4-0.9-0.7-1.2c-0.1-0.1-0.2-0.1-0.3-0.2
		c-0.2-0.1-0.3-0.2-0.5-0.3c-0.2-0.1-0.3-0.1-0.4-0.1c-0.1,0-0.1,0-0.1,0.1c0,0.1,0,0.1,0,0.2c0,0.4-0.1,0.8-0.2,1.2
		c-0.1,0.4-0.3,0.8-0.5,1.2c-0.2,0.4-0.4,0.8-0.6,1.1c-0.2,0.3-0.4,0.6-0.7,0.9c-0.3,0.4-0.6,0.7-0.9,1c-0.3,0.3-0.7,0.6-1,0.9
		c-0.4,0.2-0.7,0.4-1,0.4c-0.3,0-0.6-0.1-0.6-0.5c0-0.1,0-0.2,0-0.3c0-0.1,0-0.2,0-0.3c0-0.2-0.1-0.4-0.2-0.5
		c-0.1-0.1-0.2-0.3-0.2-0.4c-0.1-0.1-0.1-0.4-0.1-0.7c0-0.3,0.1-0.6,0.2-1c0.1-0.3,0.3-0.7,0.5-1c0.2-0.3,0.4-0.6,0.6-0.8
		c0.5-0.5,1.1-1,1.8-1.3c0.7-0.3,1.4-0.5,2.1-0.6c0-0.2,0-0.3-0.1-0.5c0-0.2-0.1-0.3-0.2-0.4c0,0-0.1-0.1-0.1-0.1c0,0-0.1,0-0.1,0
		l0,0c0,0,0.1-0.1,0.2-0.1c0.1,0,0.1,0,0.2,0c0.1,0,0.1,0,0.2,0c0.1,0,0.1,0,0.2,0.1c0.2,0.1,0.4,0.2,0.5,0.4
		c0.1,0.2,0.2,0.4,0.2,0.6c0.2,0,0.4,0,0.7,0.1c0.2,0,0.4,0.1,0.6,0.2c0.8,0.2,1.4,0.7,1.9,1.2S137.3,8,137.3,8.8z M132.5,5.6
		c-0.6,0.1-1.1,0.2-1.6,0.5c-0.5,0.3-0.9,0.6-1.3,1.1c-0.4,0.4-0.7,0.9-0.9,1.4c-0.1,0.2-0.2,0.5-0.3,0.8c-0.1,0.3-0.1,0.5-0.1,0.8
		c0,0.1,0,0.3,0,0.5c0,0.2,0.1,0.4,0.2,0.5c0.1,0.2,0.2,0.2,0.4,0.2c0.2,0,0.5-0.2,0.8-0.4c0.3-0.3,0.6-0.6,0.9-1
		c0.3-0.4,0.6-0.8,0.8-1.3c0.2-0.4,0.5-0.9,0.6-1.3c0.2-0.4,0.3-0.7,0.4-0.9c0-0.1,0.1-0.3,0.1-0.4C132.5,5.9,132.5,5.7,132.5,5.6z"
		/>
	<path class="st0" d="M144.2,5.2c0,0.2-0.1,0.3-0.2,0.4c-0.1,0.1-0.2,0.2-0.4,0.2L141.3,6c-0.2,0.6-0.3,1.2-0.5,1.9
		c-0.2,0.6-0.4,1.2-0.6,1.8c0.2,0.1,0.4,0.1,0.6,0.2c0.2,0.1,0.4,0.2,0.6,0.3c0.2-0.6,0.4-1.3,0.6-1.9s0.2-1.3,0.3-2l1,0.3
		c-0.1,0.7-0.2,1.3-0.4,2c-0.2,0.7-0.4,1.3-0.7,1.9c0.3,0.2,0.6,0.4,0.9,0.6c0.3,0.2,0.5,0.4,0.7,0.7c0,0,0,0.1,0,0.1
		c0,0.1,0,0.1-0.1,0.1c0,0-0.1,0-0.1,0c-0.1-0.1-0.3-0.2-0.4-0.2c-0.1-0.1-0.3-0.1-0.4-0.2c-0.1-0.1-0.3-0.2-0.4-0.2
		c-0.1-0.1-0.3-0.1-0.5-0.2c-0.4,0.7-0.9,1.3-1.5,1.8c-0.6,0.5-1.3,1-2,1.3c0,0,0,0-0.1,0c-0.1,0-0.1,0-0.1-0.1c0,0,0-0.1,0.1-0.1
		c0.1-0.1,0.1-0.1,0.2-0.1c0.1,0,0.1-0.1,0.2-0.1c0.1,0,0.1-0.1,0.2-0.1c0.1,0,0.1-0.1,0.2-0.1c0.4-0.4,0.9-0.8,1.3-1.3
		c0.4-0.5,0.7-1,1-1.5c-0.3-0.1-0.6-0.2-1-0.2c-0.3-0.1-0.7-0.1-1-0.1c0.2-0.7,0.4-1.4,0.6-2.2c0.2-0.7,0.3-1.5,0.5-2.2l-1.9,0.2
		V5.9l2-0.2c0.1-0.6,0.2-1.1,0.3-1.7c0.1-0.6,0.2-1.2,0.2-1.8l1.3,0.1c-0.1,0.6-0.2,1.1-0.4,1.6c-0.1,0.5-0.3,1.1-0.4,1.6l1.8-0.2
		c0-0.1,0-0.3,0.1-0.4c0.1-0.2,0.2-0.3,0.4-0.3c0.2,0,0.3,0,0.4,0.2C144.2,5,144.2,5.1,144.2,5.2z M151.2,6.9c0,0.2-0.1,0.3-0.2,0.4
		c-0.1,0.1-0.3,0.2-0.4,0.2c-0.1,0-0.3,0-0.4-0.1c-0.1-0.1-0.2-0.2-0.2-0.3c0-0.2,0.1-0.3,0.2-0.4c0.1-0.1,0.3-0.1,0.4-0.2
		c-0.2-0.3-0.4-0.5-0.7-0.7c-0.3,0.3-0.6,0.5-0.9,0.7c-0.3,0.2-0.6,0.4-1,0.5c-0.6,0.2-1.3,0.4-2,0.6c-0.7,0.1-1.3,0.3-2,0.4
		l-0.3-0.8c0.2-0.1,0.3-0.1,0.4-0.2c0.1-0.1,0.2-0.2,0.3-0.4c0.2-0.3,0.4-0.6,0.5-1c0.1-0.3,0.3-0.7,0.4-1c0.2-0.5,0.4-0.9,0.6-1.4
		c0.2-0.5,0.4-0.9,0.5-1.4c0.1,0,0.2,0,0.3,0c0.1,0,0.3,0.1,0.5,0.1c0.2,0,0.3,0.1,0.4,0.1c0.1,0,0.2,0,0.2,0.1c0,0,0,0,0,0.1
		s-0.1,0.2-0.2,0.4c-0.1,0.2-0.3,0.5-0.5,0.8c-0.2,0.3-0.5,0.7-0.7,1c-0.3,0.4-0.5,0.7-0.8,1.1c-0.2,0.3-0.5,0.6-0.6,0.9
		c-0.2,0.3-0.3,0.4-0.4,0.5c0.5-0.1,1.1-0.2,1.6-0.3c0.5-0.1,1.1-0.2,1.6-0.3c0.3-0.1,0.6-0.2,0.9-0.3c0.3-0.1,0.6-0.3,0.8-0.4
		c-0.2-0.2-0.5-0.3-0.7-0.5c-0.3-0.1-0.5-0.3-0.8-0.4l0.8-0.8c0.2,0.1,0.4,0.3,0.7,0.6c0.2,0.2,0.5,0.5,0.7,0.7
		c0.2,0.3,0.4,0.5,0.5,0.8C151.1,6.4,151.2,6.7,151.2,6.9z M150.1,11.5c0,0.6-0.2,1.1-0.5,1.3c-0.3,0.3-0.8,0.4-1.4,0.5l-3.6,0.4V9
		l5.5-0.6V11.5z M149,9l-3.4,0.3v3.8l2.5-0.3c0.3,0,0.5-0.1,0.7-0.3c0.2-0.2,0.2-0.4,0.2-0.7V9z"/>
	<path class="st0" d="M161.3,10.9c0,0.1,0,0.2-0.1,0.4c-0.1,0.1-0.2,0.2-0.3,0.2c-0.1,0-0.2-0.1-0.3-0.1c-0.1,0-0.2,0-0.4,0
		c-0.2,0-0.4,0.1-0.6,0.2c-0.2,0.1-0.4,0.2-0.6,0.3c-0.1,0.1-0.1,0.1-0.2,0.1l0,0c0,0,0.1-0.1,0.1-0.2c0.1-0.1,0.2-0.2,0.3-0.4
		s0.2-0.2,0.3-0.4c0.1-0.1,0.1-0.2,0.1-0.2c0-0.1-0.1-0.2-0.2-0.3c-0.1-0.1-0.3-0.1-0.5-0.2c-0.2-0.1-0.4-0.1-0.5-0.1
		c-0.2,0-0.3-0.1-0.4-0.1c-0.1,0.6-0.3,1.1-0.7,1.5c-0.4,0.4-1,0.6-1.6,0.7c-0.2,0-0.4,0-0.5-0.1c-0.1-0.1-0.2-0.2-0.4-0.3
		c-0.1-0.1-0.3-0.2-0.5-0.2c-0.1,0-0.2,0-0.3,0c-0.1,0-0.2,0-0.3,0c-0.1,0-0.2,0-0.3-0.1c-0.1-0.1-0.2-0.1-0.2-0.3
		c0-0.2,0.1-0.4,0.2-0.5c0.1-0.2,0.3-0.3,0.5-0.4c0.2-0.1,0.4-0.2,0.5-0.3c0.8-0.4,1.6-0.6,2.4-0.7c0-0.4,0-0.8,0-1.1
		c0-0.4,0-0.8,0-1.1c-0.1,0-0.2,0.1-0.4,0.1c-0.2,0-0.3,0.1-0.5,0.1c-0.2,0-0.3,0.1-0.4,0.1c-0.2,0-0.4,0-0.6,0
		c-0.2,0-0.4-0.1-0.5-0.2c-0.1-0.1-0.2-0.3-0.2-0.5c0-0.2,0-0.3,0.1-0.6c0.1-0.2,0.2-0.4,0.3-0.6c0.1-0.2,0.2-0.4,0.3-0.5
		c-0.1,0-0.3,0.1-0.4,0.1c-0.1,0-0.3,0-0.4,0.1c-0.4,0-0.7,0-1-0.1c-0.3-0.1-0.6-0.2-0.7-0.5c-0.2-0.2-0.3-0.5-0.3-1
		c0,0,0-0.1,0-0.2c0-0.1,0.1-0.2,0.1-0.2c0.1,0.5,0.4,0.8,0.8,0.9c0.4,0.1,0.8,0.2,1.3,0.1c0.1,0,0.3,0,0.5-0.1
		c0.3-0.1,0.5-0.1,0.8-0.2c0.3-0.1,0.5-0.2,0.7-0.3c0.2-0.1,0.3-0.2,0.3-0.3c0-0.2,0-0.3,0-0.4c0-0.1,0-0.3-0.1-0.4
		c0-0.1-0.1-0.2-0.1-0.3c-0.1-0.1-0.1-0.2-0.1-0.3c0-0.1,0.1-0.2,0.2-0.4c0.2-0.1,0.3-0.2,0.5-0.3c0.2-0.1,0.3-0.2,0.4-0.2
		c0.1,0,0.2,0,0.3,0c0.1,0,0.1,0.1,0.1,0.3c0,0.1,0,0.2,0.1,0.3c0,0.1,0.1,0.2,0.1,0.3c0,0,0,0,0,0.1c0,0,0,0,0,0c0,0-0.1,0-0.1-0.1
		c0,0-0.1-0.1-0.1,0c-0.1,0-0.1,0.1-0.2,0.2c0,0.1,0,0.2,0,0.3c0,0.1,0,0.2,0,0.2c0,0.1,0,0.2,0,0.3c0,0.1,0,0.2,0,0.3
		c0.1,0,0.2,0.1,0.3,0.2c0.1,0.1,0.2,0.2,0.2,0.3c0,0.1-0.1,0.2-0.2,0.3c-0.1,0.1-0.2,0.1-0.3,0.2c0,0.4,0,0.7,0,1
		c0,0.3,0,0.7,0.1,1c0.1-0.1,0.3-0.1,0.5-0.2c0.2-0.1,0.3-0.2,0.5-0.3c0.1-0.1,0.2-0.3,0.2-0.4c0-0.1,0-0.3,0-0.4c0-0.1,0-0.2,0-0.4
		c0,0,0-0.1,0-0.1c0.1,0.1,0.3,0.2,0.4,0.3c0.2,0.1,0.3,0.2,0.5,0.1c0.1,0,0.2,0,0.3,0c0.1,0,0.2,0.1,0.2,0.2c0,0.2,0,0.3-0.1,0.4
		c-0.1,0.1-0.2,0.2-0.3,0.3c-0.3,0.3-0.7,0.5-1.1,0.6c-0.4,0.2-0.8,0.3-1.1,0.5c0,0.4,0,0.8,0.1,1.2c0,0.4,0.1,0.8,0.1,1.2
		c0.2,0,0.5,0,0.9,0c0.4,0,0.7,0.1,1.1,0.2c0.4,0.1,0.7,0.2,0.9,0.4C161.1,10.3,161.3,10.5,161.3,10.9z M156.8,10
		c-0.1,0-0.3,0-0.5,0.1c-0.2,0-0.3,0.1-0.5,0.1c-0.1,0-0.3,0.1-0.6,0.2c-0.2,0.1-0.4,0.2-0.6,0.4c-0.2,0.1-0.3,0.3-0.3,0.5
		c0,0.2,0.1,0.3,0.2,0.3c0.1,0.1,0.3,0.1,0.4,0.1c0.2,0,0.3,0,0.4,0c0.4,0,0.7-0.2,1-0.5C156.6,10.7,156.7,10.4,156.8,10z
		 M156.8,4.6c-0.2,0.1-0.4,0.2-0.6,0.2c-0.2,0.1-0.4,0.1-0.6,0.2c-0.1,0.1-0.2,0.2-0.3,0.4c-0.1,0.2-0.2,0.4-0.3,0.6
		c-0.1,0.2-0.1,0.4-0.1,0.5c0,0.2,0.1,0.3,0.2,0.4c0.1,0.1,0.3,0.1,0.5,0.1c0.2,0,0.5-0.1,0.7-0.1c0.2-0.1,0.4-0.2,0.6-0.2
		c0-0.3,0-0.6,0-0.9c0-0.3,0-0.6,0-0.9V4.6z"/>
	<path class="st0" d="M170.1,4.5c0,0.8-0.1,1.5-0.2,2.2c-0.1,0.7-0.4,1.4-0.7,2c-0.3,0.6-0.9,1.2-1.5,1.8c-0.2,0.2-0.4,0.3-0.6,0.4
		c-0.2,0.1-0.4,0.3-0.6,0.4c-0.1,0-0.2,0.1-0.4,0.2c-0.2,0.1-0.4,0.2-0.5,0.3c-0.2,0.1-0.3,0.1-0.4,0.1c-0.1,0-0.1,0-0.1-0.1
		c0,0,0,0,0-0.1c0,0,0,0,0,0c0.3-0.2,0.6-0.5,0.9-0.7c0.3-0.2,0.6-0.5,0.8-0.8c0.3-0.4,0.6-0.9,0.9-1.4c0.2-0.5,0.4-1,0.5-1.6
		c0.1-0.5,0.2-1.1,0.3-1.6c0.1-0.5,0.1-1,0.1-1.5c0-0.1,0-0.3,0-0.5c0-0.2,0-0.4-0.1-0.7c0-0.2-0.1-0.4-0.2-0.6
		c-0.1-0.2-0.2-0.2-0.3-0.2c-0.2,0-0.4,0.1-0.7,0.3s-0.5,0.4-0.7,0.7c-0.2,0.3-0.4,0.6-0.6,0.8c-0.2,0.3-0.3,0.5-0.4,0.7
		c-0.1,0.2-0.2,0.4-0.2,0.6c0,0.2-0.1,0.4-0.1,0.6c0,0.1-0.1,0.2-0.2,0.3c-0.1,0.1-0.2,0.1-0.3,0.1c-0.2,0-0.3-0.1-0.5-0.2
		c-0.1-0.2-0.2-0.4-0.3-0.6c-0.1-0.2-0.1-0.4-0.1-0.5c0-0.4,0.1-0.7,0.2-1.1c0.2-0.4,0.3-0.8,0.5-1.1c0.2-0.4,0.4-0.7,0.5-1.1
		c0.2-0.3,0.2-0.7,0.2-1c0-0.2,0-0.3-0.1-0.4s-0.2-0.2-0.3-0.3c0,0,0,0,0.1-0.1c0,0,0.1,0,0.1,0c0.3,0,0.5,0,0.8,0.1
		c0.2,0.1,0.4,0.3,0.6,0.5c0.1,0.2,0.2,0.5,0.2,0.7c0,0.1-0.1,0.2-0.2,0.3c-0.1,0.1-0.2,0.3-0.4,0.4c-0.1,0.1-0.2,0.2-0.3,0.3
		c-0.2,0.2-0.4,0.6-0.6,0.9c-0.2,0.4-0.3,0.7-0.3,1c0,0.1,0,0.1,0.1,0.1c0.1,0,0.2-0.1,0.3-0.1c0.2-0.2,0.3-0.4,0.5-0.7
		c0.2-0.3,0.4-0.5,0.6-0.8c0.2-0.3,0.5-0.5,0.7-0.7c0.3-0.2,0.5-0.3,0.8-0.3c0.4,0,0.7,0,0.9,0.2c0.2,0.2,0.4,0.4,0.6,0.7
		c0.1,0.3,0.2,0.6,0.3,0.9C170,3.9,170.1,4.2,170.1,4.5z"/>
</g>
</svg>
