<svg xmlns="http://www.w3.org/2000/svg" id="milkyway_logo" viewBox="0 0 280 80.218">
    <g id="milkyway-logo" data-name="milkyway-logo" transform="translate(-162.057 -222.95)">
        <g id="그룹_50" data-name="그룹 50" transform="translate(162.057 222.95)">
            <g id="milyway-logo-image">
                <path id="패스_238" d="M173.381 268.723c.18-.089.357-.183.539-.267a5.306 5.306 0 0 0 3.091-4.784 7.057 7.057 0 0 0-.643-3.622 6 6 0 0 1 .686-6.317 1.82 1.82 0 0 0 .3-1.586c-.8-3.543-4.281-5.2-7.253-3.41a4.934 4.934 0 0 1-5.511.106 5.808 5.808 0 0 1-2.5-5.553 5.646 5.646 0 0 1 3.637-4.615 5.166 5.166 0 0 1 6.507 3.876c.109.483.206.969.331 1.447 1.044 3.972 5.653 5.233 8.318 2.272a1.088 1.088 0 0 0 .3-.66 2.348 2.348 0 0 1 1.2-2.132c.725-.488 1.488-.911 2.249-1.335a9.449 9.449 0 0 0 2.98-2.3 5.122 5.122 0 0 0 .755-1.316 1.258 1.258 0 0 0-.848-1.755c-.105-.031-.217-.038-.323-.067a2.084 2.084 0 0 1-1.458-2.6 1.836 1.836 0 0 1 2.242-1.429 1.96 1.96 0 0 1 1.42 2.529c-.43 1.445-.04 2.018 1.443 2.339a4.82 4.82 0 0 0 3.709-.9 11.656 11.656 0 0 0 1.847-1.691.661.661 0 0 0-.138-1.109 2.151 2.151 0 0 0-.614-.237 5.514 5.514 0 0 1 .225-10.538 4.967 4.967 0 0 1 5.678 3.24 5.608 5.608 0 0 1-2.206 6.8c-1.213.722-1.224 1.023-.076 1.857a4.609 4.609 0 0 0 3.345.8 17.99 17.99 0 0 0 3.669-.79 5.205 5.205 0 0 1 4.947.832 8.98 8.98 0 0 1 .769.667.813.813 0 0 0 1.239.038 1.746 1.746 0 0 0 .319-2.281 3.171 3.171 0 0 1-.441-2.492 2.378 2.378 0 0 1 2.662-1.884 2.5 2.5 0 0 1 2.232 2.394 2.669 2.669 0 0 1-1.776 2.806 5.759 5.759 0 0 1-.842.151 2.428 2.428 0 0 0-1.928 2.429 2.284 2.284 0 0 0 1.786 2.306 2.163 2.163 0 0 0 .966-.092 2.328 2.328 0 0 1 2.982 1.24c.465.821.823.975 1.688.722a2.864 2.864 0 0 0 1.908-3.158 8.3 8.3 0 0 0-.187-.827 4.781 4.781 0 0 1 1.679-5.064 4.007 4.007 0 0 1 4.992.007 4.958 4.958 0 0 1 1.618 5.233 4.291 4.291 0 0 1-5.439 3.023 4.362 4.362 0 0 0-1.415-.262 2.382 2.382 0 0 0-2.19 1.655.91.91 0 0 0 .549 1.345c1.478.591 1.788 1.24 1.412 2.947a2.516 2.516 0 0 0 1.007 2.367 1.475 1.475 0 0 0 1.834-.234 2.186 2.186 0 0 0 .561-1.395 2.947 2.947 0 0 1 3.666-2.664 2.81 2.81 0 0 1 2.118 2.438 3.032 3.032 0 0 1-1.178 3.22 2.6 2.6 0 0 1-3.108.133c-1.112-.706-2.013-.563-2.573.409a1.1 1.1 0 0 0-.063 1.132 15.094 15.094 0 0 1 1.387 5.365 4.068 4.068 0 0 1-.49 2.58 5.132 5.132 0 0 0-.023 5.436 4.511 4.511 0 0 0 7.383.868 3.066 3.066 0 0 1 4.775.207 3.593 3.593 0 0 1-.63 4.909 3.094 3.094 0 0 1-4.376-.71 10.341 10.341 0 0 0-1.648-1.9 4.626 4.626 0 0 0-6.893 1.583 12.151 12.151 0 0 0-1.6 6.634 8.614 8.614 0 0 0 1.081 3.975 4.871 4.871 0 0 0 5.447 2.386 8.762 8.762 0 0 1 3.077-.113 7.837 7.837 0 0 1 6.2 6.671c.818 4.784-2.682 9.271-7.2 9.418a7.53 7.53 0 0 1-7.209-4.917 9.156 9.156 0 0 1-.527-4.173c.354-3.666-2.467-6.677-5.858-6.259a1.564 1.564 0 0 0-1.371.71 4.329 4.329 0 0 1-3.9 2.21 10.322 10.322 0 0 0-5.338 1.59 6.848 6.848 0 0 0-1.322 1.413.594.594 0 0 0 .192.986 1.97 1.97 0 0 0 .366.159 3.029 3.029 0 0 1 1.315 4.761 2.737 2.737 0 0 1-2.922.953 2.672 2.672 0 0 1-1.974-2.312 2.947 2.947 0 0 1 .524-2.407 1.764 1.764 0 0 0 .247-.418c.232-.562.034-.884-.54-.818a5.493 5.493 0 0 1-2.652-.383c-.422-.163-.827-.343-1.211.1a1.631 1.631 0 0 0-.305 1.768 3.548 3.548 0 0 0 .841.961 2.84 2.84 0 0 1-.045 4.43 2.418 2.418 0 0 1-3.372-.561 2.757 2.757 0 0 1 .389-3.731 6.79 6.79 0 0 1 .778-.529 2.543 2.543 0 0 0 1.055-2.421c-.114-.706-.335-.882-.941-.6a4.908 4.908 0 0 1-2.366.5 5.914 5.914 0 0 1-3.128-.967c-.572-.388-.807-.334-1.218.233a2.66 2.66 0 0 0 .511 3.649 5.828 5.828 0 0 1-.676 9.02 4.871 4.871 0 0 1-6.02-.552 4.784 4.784 0 0 1-1.364-1.969 3.039 3.039 0 0 0-.386-.737c-1.922-2.811-.477-6.759 2.709-7.379.323-.063.653-.085.981-.125a2.621 2.621 0 0 0 2.294-2.361c.077-.653-.028-.849-.6-1.051a6.139 6.139 0 0 0-1.016-.3 1.921 1.921 0 0 1-1.663-1.735 4.717 4.717 0 0 0-.689-1.571 1 1 0 0 0-1.421-.314 7.547 7.547 0 0 0-1.234.927c-.319.282-.239.686-.136 1.057a3.422 3.422 0 0 1-.027 2.022 2.9 2.9 0 0 1-3.614 1.993 3.2 3.2 0 0 1-2.054-3.713 2.96 2.96 0 0 1 3.251-2.436 1.884 1.884 0 0 0 1.736-.379 1.445 1.445 0 0 0 .085-2.152 14.117 14.117 0 0 1-3.358-5.112 2.851 2.851 0 0 1-.184-1.656c.782-3.314-1.976-6.754-5.416-6.16-.13.023-.262.032-.393.047zM201.6 285.88a17.768 17.768 0 0 0 7.143-1.442 21.211 21.211 0 0 0 9.933-7.409 23.942 23.942 0 0 0 4.767-17.133 23.138 23.138 0 0 0-9.02-16.7A20.353 20.353 0 0 0 191.3 241.8a22.159 22.159 0 0 0-8.516 9.236 25.5 25.5 0 0 0-2.714 13.046 23.421 23.421 0 0 0 2.648 9.646 22.614 22.614 0 0 0 8.034 8.888 21.51 21.51 0 0 0 10.848 3.264z" class="cls-2" data-name="패스 238" transform="translate(-162.057 -222.95)"/>
                <path id="패스_252" d="M175.459 306.662c-.358.165-.73.306-1.074.5a4.722 4.722 0 0 0-2.145 2.395 3.158 3.158 0 0 1-5.317.845 3.292 3.292 0 0 1-.141-3.917 3.211 3.211 0 0 1 3.961-.938 4.288 4.288 0 0 1 .515.292 5.243 5.243 0 0 0 4.2.825z" class="cls-2" data-name="패스 252" transform="translate(-164.133 -260.706)"/>
            </g>
            <g id="milkyway-logo-text" transform="translate(87.615 32.088)">
                <g id="milkyway-logo-text-2" data-name="milkyway-logo-text">
                    <path id="패스_239" d="M434.338 289.19c0-1.6-.014-3.208.005-4.812a1.806 1.806 0 0 1 1.218-1.847 1.933 1.933 0 0 1 2.575 1.349 4.363 4.363 0 0 1 .094 1.044c.008 2.636 0 5.273.009 7.909a3.1 3.1 0 0 0 .113.906 1.018 1.018 0 0 0 1.113.739 1.035 1.035 0 0 0 1.02-.864 3.861 3.861 0 0 0 .056-.786c.006-1.318-.006-2.636.007-3.955a2.084 2.084 0 1 1 4.166-.029c.016 1.3 0 2.593.007 3.889a5.471 5.471 0 0 0 .028.723 1.093 1.093 0 0 0 .976 1 1.127 1.127 0 0 0 1.217-.706 3.211 3.211 0 0 0 .168-1.029c.022-1.318-.014-2.637.025-3.954a1.854 1.854 0 0 1 2.091-1.934 1.831 1.831 0 0 1 1.765 1.8 37.516 37.516 0 0 1-.027 5.465 5.205 5.205 0 0 1-7.47 4.08 1.735 1.735 0 0 0-1.7.013 5.187 5.187 0 0 1-7.349-3.48 5.551 5.551 0 0 1-.11-1.176c-.012-1.45-.005-2.9-.005-4.35z" class="cls-2" data-name="패스 239" transform="translate(-373.926 -281.885)"/>
                    <path id="패스_240" d="M326.576 292.475c0 1.361.008 2.723 0 4.084-.011 1.292-.658 2-1.826 2.026a1.9 1.9 0 0 1-2.058-1.993c-.028-3.118-.085-6.239.012-9.353a5.243 5.243 0 0 1 7.54-4.426 1.8 1.8 0 0 0 1.765 0 5.157 5.157 0 0 1 7.371 4.662c-.054 1.645 0 3.293-.02 4.94a1.783 1.783 0 0 1-1.26 1.741 1.894 1.894 0 0 1-2.2-.759 2.749 2.749 0 0 1-.326-1.244c-.043-1.228 0-2.459-.028-3.688a3.988 3.988 0 0 0-.211-1.219 1.053 1.053 0 0 0-1.082-.7 1.121 1.121 0 0 0-1 .909 4.093 4.093 0 0 0-.075.85c-.008 1.3.005 2.591-.008 3.886a1.985 1.985 0 0 1-2.051 2.16 2.01 2.01 0 0 1-2.119-2.124c-.038-1.272-.013-2.547-.016-3.82v-.461c-.017-.869-.443-1.421-1.112-1.444a1.323 1.323 0 0 0-1.255 1.363c-.055 1.227-.028 2.458-.035 3.688-.006.307-.005.614-.006.922z" class="cls-2" data-name="패스 240" transform="translate(-322.646 -281.826)"/>
                    <path id="패스_241" d="M558.671 282.312c1.032 0 2.064-.023 3.1 0a5.191 5.191 0 0 1 5.071 5.513 4.97 4.97 0 0 1-2.406 3.957 4.375 4.375 0 0 1-.513.3c-.414.193-.367.414-.082.695.8.786 1.583 1.584 2.378 2.372a2.047 2.047 0 0 1 .649 1.328 1.793 1.793 0 0 1-.962 1.869 1.927 1.927 0 0 1-2.117-.121 4.881 4.881 0 0 1-.685-.613c-1.508-1.5-3.022-3-4.513-4.523a1.69 1.69 0 0 0-1.341-.561c-.7.021-1.405.017-2.107 0a1.938 1.938 0 0 1-.081-3.874c1.007-.054 2.019-.022 3.029-.025 1.1 0 2.2.009 3.293-.011a1.174 1.174 0 0 0 1.216-.824 1.1 1.1 0 0 0-.688-1.386 4.069 4.069 0 0 0-1.226-.177c-1.844-.018-3.689 0-5.533-.014a1.794 1.794 0 0 1-1.959-2.143 1.709 1.709 0 0 1 1.412-1.609 16.252 16.252 0 0 1 2.225-.147c.614-.021 1.229 0 1.844 0z" class="cls-2" data-name="패스 241" transform="translate(-428.698 -281.839)"/>
                    <path id="패스_242" d="M596.43 291.9c0 1.6.023 3.208-.008 4.811a1.8 1.8 0 0 1-2 1.878 1.775 1.775 0 0 1-1.816-1.5 5.53 5.53 0 0 1-.075-1.048c-.006-2.57-.051-5.142.015-7.71a2.681 2.681 0 0 0-2.333-2.65 2.557 2.557 0 0 0-2.769 2.26 7.414 7.414 0 0 0-.082 1.181c-.007 2.35 0 4.7 0 7.051 0 .242.005.484-.013.725a1.73 1.73 0 0 1-1.753 1.7 1.8 1.8 0 0 1-2.015-1.565 5.6 5.6 0 0 1-.037-.789v-8.633a5.114 5.114 0 0 1 5.32-5.311c.835 0 1.67-.01 2.5 0a5.191 5.191 0 0 1 5.065 5.055c.02 1.515 0 3.031 0 4.547z" class="cls-2" data-name="패스 242" transform="translate(-439.774 -281.833)"/>
                    <path id="패스_243" d="M629.366 296.578a1.751 1.751 0 0 1-.987 1.82 1.877 1.877 0 0 1-2.105-.216c-.406-.332-.76-.728-1.136-1.1-1.177-1.15-2.362-2.292-3.527-3.455-.346-.346-.6-.318-.93.019q-2.126 2.158-4.286 4.282a1.964 1.964 0 0 1-2.882.048 1.934 1.934 0 0 1 .1-2.827c1.234-1.249 2.507-2.458 3.754-3.7 1.168-1.159 1.112-.93.008-2.046-1.2-1.217-2.42-2.423-3.629-3.635a1.977 1.977 0 0 1-.609-1.919 1.952 1.952 0 0 1 3.014-1.18 4.668 4.668 0 0 1 .64.566q5.874 5.859 11.747 11.721a2.132 2.132 0 0 1 .828 1.622z" class="cls-2" data-name="패스 243" transform="translate(-454.502 -281.854)"/>
                    <path id="패스_244" d="M662.413 298.393a1.779 1.779 0 0 1-1.435-.639c-1.417-1.408-2.85-2.8-4.283-4.193-.5-.486-.571-.485-1.068.009q-2.057 2.043-4.1 4.1a2.114 2.114 0 0 1-1.5.721 1.8 1.8 0 0 1-1.864-1.077 2.123 2.123 0 0 1 .457-2.314q2.046-2.005 4.084-4.02c.689-.682.685-.731 0-1.414-1.333-1.338-2.689-2.653-4-4.014a1.986 1.986 0 0 1 .98-3.362 1.946 1.946 0 0 1 1.847.633c.877.863 1.741 1.738 2.611 2.607l9.321 9.307c.155.155.319.3.458.473a2.285 2.285 0 0 1 .325.491 1.867 1.867 0 0 1-1.833 2.692z" class="cls-2" data-name="패스 244" transform="translate(-472.06 -281.771)"/>
                    <path id="패스_245" d="M481.458 293.318c0 1.076.013 2.153-.006 3.229a.794.794 0 0 0 .69.929 1.906 1.906 0 0 1 1.421 2.278 1.852 1.852 0 0 1-1.817 1.683c-1.866.04-3.739.093-5.6-.013a5.15 5.15 0 0 1-4.759-4.887 8.42 8.42 0 0 1 .128-2.354 5.039 5.039 0 0 1 5.189-3.988c.565.014.7-.246.818-.7a1.77 1.77 0 0 1 1.54-1.429 1.868 1.868 0 0 1 2.058.842 2.651 2.651 0 0 1 .318 1.179c.042 1.075.015 2.152.015 3.229zm-3.93 2.568c.005-.849-.5-1.495-1.161-1.478A1.3 1.3 0 0 0 475.3 296a1.229 1.229 0 0 0 1.156 1.2 1.2 1.2 0 0 0 1.073-1.315z" class="cls-2" data-name="패스 245" transform="translate(-391.166 -284.585)"/>
                    <path id="패스_246" d="M387.313 290.43c0-2.064-.023-4.129.008-6.193a1.872 1.872 0 0 1 2.665-1.762 1.8 1.8 0 0 1 1.129 1.712c.018.856.035 1.714.007 2.569a3.519 3.519 0 0 0 1.159 2.815c1.869 1.795 3.679 3.65 5.51 5.485a2.011 2.011 0 0 1 .28 2.97 2.087 2.087 0 0 1-3.041-.221c-.89-.88-1.773-1.767-2.66-2.651-.124-.124-.244-.255-.379-.365-.452-.37-.771-.245-.83.359-.051.523-.018 1.053-.042 1.579a1.865 1.865 0 0 1-1.966 1.859 1.722 1.722 0 0 1-1.817-1.7c-.05-.766-.024-1.536-.026-2.305v-4.15z" class="cls-2" data-name="패스 246" transform="translate(-352.54 -281.839)"/>
                    <path id="패스_247" d="M528.125 291.929c0-1.427.009-2.854 0-4.281a5.252 5.252 0 0 1 5.387-5.355c1.183.053 2.371-.016 3.555.023a1.961 1.961 0 0 1 2.011 2.353 1.816 1.816 0 0 1-1.807 1.524c-1.053.034-2.108 0-3.161.03a2.95 2.95 0 0 0-1.147.227 1.737 1.737 0 0 0-.939 1.746c.008 2.591 0 5.181 0 7.771 0 .264 0 .528-.008.791a1.907 1.907 0 0 1-1.873 1.912 1.946 1.946 0 0 1-1.992-1.8c-.048-.523-.025-1.053-.026-1.579-.002-1.123 0-2.243 0-3.362z" class="cls-2" data-name="패스 247" transform="translate(-417.345 -281.829)"/>
                    <path id="패스_248" d="M372.014 290.56c0 2.019.016 4.037-.005 6.056a1.864 1.864 0 0 1-2.081 2.009 1.846 1.846 0 0 1-1.785-1.707 5.052 5.052 0 0 1-.032-.723v-11.19a5.471 5.471 0 0 1 .124-1.238 1.89 1.89 0 0 1 1.85-1.4 1.841 1.841 0 0 1 1.828 1.427 4.8 4.8 0 0 1 .1 1.044c.008 1.909 0 3.817 0 5.727z" class="cls-2" data-name="패스 248" transform="translate(-343.952 -281.869)"/>
                    <path id="패스_249" d="M495.332 311.093a1.95 1.95 0 0 1-1.721-.979 1.857 1.857 0 0 1 .032-2 2.925 2.925 0 0 1 .452-.562q3.9-3.872 7.816-7.736a1.912 1.912 0 0 1 2.051-.527 1.836 1.836 0 0 1 1.32 1.5 1.97 1.97 0 0 1-.636 1.786c-.755.766-1.518 1.524-2.279 2.285l-5.45 5.448a2.423 2.423 0 0 1-1.585.785z" class="cls-2" data-name="패스 249" transform="translate(-401.285 -289.748)"/>
                    <path id="패스_250" d="M419.871 301.1a5.278 5.278 0 0 1-.7 1.285q-3.99 4.064-8.045 8.065a1.9 1.9 0 0 1-2.525.108 2.009 2.009 0 0 1-.388-2.617 2.905 2.905 0 0 1 .38-.452q3.837-3.846 7.677-7.688a2.111 2.111 0 0 1 1.587-.669 1.951 1.951 0 0 1 2.014 1.968z" class="cls-2" data-name="패스 250" transform="translate(-361.987 -289.729)"/>
                    <path id="패스_251" d="M361.957 297.2c0 1.317.018 2.633-.005 3.95a1.83 1.83 0 0 1-2.072 1.935 1.773 1.773 0 0 1-1.729-1.441 4.27 4.27 0 0 1-.086-.913q-.011-3.555 0-7.109a3.634 3.634 0 0 1 .1-.911 1.846 1.846 0 0 1 2.072-1.43 1.826 1.826 0 0 1 1.712 1.839c.03 1.36.007 2.72.007 4.081z" class="cls-2" data-name="패스 251" transform="translate(-339.317 -286.139)"/>
                    <path id="패스_253" d="M474.492 285.418a1.932 1.932 0 0 1 1.933-2.043 2.038 2.038 0 0 1 2.085 2.073 1.958 1.958 0 0 1-2.042 1.953 1.878 1.878 0 0 1-1.976-1.983z" class="cls-2" data-name="패스 253" transform="translate(-393.017 -282.824)"/>
                    <path id="패스_254" d="M400.792 289.82a1.9 1.9 0 0 1-1.927 1.907 1.935 1.935 0 1 1-.007-3.87 1.889 1.889 0 0 1 1.934 1.963z" class="cls-2" data-name="패스 254" transform="translate(-357.242 -284.899)"/>
                    <path id="패스_255" d="M522.291 284.331a1.853 1.853 0 0 1-1.91 1.9 1.872 1.872 0 0 1-1.966-1.927 1.994 1.994 0 0 1 1.93-1.941 1.92 1.92 0 0 1 1.946 1.968z" class="cls-2" data-name="패스 255" transform="translate(-413.284 -282.362)"/>
                    <path id="패스_256" d="M461.9 286.23a1.875 1.875 0 0 1-1.911-1.912 1.926 1.926 0 0 1 1.954-1.956 1.988 1.988 0 0 1 1.924 1.941 1.886 1.886 0 0 1-1.967 1.927z" class="cls-2" data-name="패스 256" transform="translate(-386.333 -282.361)"/>
                    <path id="패스_257" d="M673.879 288.017a1.862 1.862 0 0 1-1.925 1.888 1.893 1.893 0 0 1-1.943-1.893 1.981 1.981 0 0 1 1.948-1.981 1.905 1.905 0 0 1 1.92 1.986z" class="cls-2" data-name="패스 257" transform="translate(-483.084 -284.056)"/>
                    <path id="패스_258" d="M361.974 284.306a1.934 1.934 0 0 1-3.867.04 1.97 1.97 0 0 1 1.888-1.985 1.92 1.92 0 0 1 1.979 1.945z" class="cls-2" data-name="패스 258" transform="translate(-339.34 -282.361)"/>
                    <path id="패스_259" d="M635.092 288.17a1.932 1.932 0 1 1 3.863 0 1.947 1.947 0 0 1-1.869 1.928 1.922 1.922 0 0 1-1.994-1.928z" class="cls-2" data-name="패스 259" transform="translate(-465.594 -284.149)"/>
                    <path id="패스_260" d="M557.11 309.13a1.936 1.936 0 0 1-3.871.017 1.936 1.936 0 1 1 3.871-.017z" class="cls-2" data-name="패스 260" transform="translate(-429.347 -293.816)"/>
                    <path id="패스_261" d="M352.32 309.157a1.755 1.755 0 0 1-1.862 1.92 1.777 1.777 0 0 1-1.939-1.854 1.922 1.922 0 0 1 1.91-2.01 1.866 1.866 0 0 1 1.891 1.944z" class="cls-2" data-name="패스 261" transform="translate(-334.92 -293.84)"/>
                    <path id="패스_262" d="M411.9 300.318a1.873 1.873 0 0 1 1.91-1.923 1.986 1.986 0 0 1 1.962 1.915 2.013 2.013 0 0 1-1.994 1.959 1.869 1.869 0 0 1-1.878-1.951z" class="cls-2" data-name="패스 262" transform="translate(-364.151 -289.767)"/>
                </g>
                <path id="패스_263" d="M596.259 301.274a1.84 1.84 0 0 1-1.959 1.926 1.9 1.9 0 0 1-1.914-1.933 1.875 1.875 0 0 1 1.966-1.865 1.754 1.754 0 0 1 1.907 1.872z" class="cls-2" data-name="패스 263" transform="translate(-444.207 -290.235)"/>
                <path id="패스_264" d="M378.984 311.088a1.844 1.844 0 0 1-1.906-1.91 1.948 1.948 0 0 1 1.922-1.939 1.972 1.972 0 0 1 1.948 1.988 1.853 1.853 0 0 1-1.964 1.861z" class="cls-2" data-name="패스 264" transform="translate(-348.091 -293.853)"/>
                <path id="패스_265" d="M499.323 298.61a1.753 1.753 0 0 1 1.873 1.9 1.836 1.836 0 0 1-1.914 1.9 1.912 1.912 0 0 1-1.948-1.894 1.867 1.867 0 0 1 1.989-1.906z" class="cls-2" data-name="패스 265" transform="translate(-403.561 -289.869)"/>
            </g>
        </g>
    </g>
</svg>
