<?xml version="1.0" encoding="utf-8"?>
<!-- Generator: Adobe Illustrator 28.0.0, SVG Export Plug-In . SVG Version: 6.00 Build 0)  -->
<svg version="1.1" id="레이어_1" xmlns="http://www.w3.org/2000/svg" xmlns:xlink="http://www.w3.org/1999/xlink" x="0px"
	 y="0px" width="99.2px" height="70.9px" viewBox="0 0 99.2 70.9" style="enable-background:new 0 0 99.2 70.9;"
	 xml:space="preserve">
<style type="text/css">
	.st0{fill:#FFFFFF;}
</style>
<g>
	<g>
		<g>
			<path class="st0" d="M27.5,61.6c0.5,0,0.9,0,1.4,0c0.2,0,0.5,0,0.7,0c0.3,0,0.5,0.1,0.7,0.3c0.3,0.2,0.5,0.5,0.5,0.8
				c0,0.2,0,0.4,0,0.6c0,0.3-0.2,0.5-0.4,0.6c0,0-0.1,0-0.1,0.1c-0.1,0.1-0.1,0.1,0,0.2c0.1,0.1,0.1,0.1,0.2,0.2
				c0.1,0.1,0.2,0.3,0.3,0.4c0.2,0.5,0.2,1,0,1.4c-0.1,0.3-0.3,0.5-0.6,0.6C30.2,67,30,67,29.8,67.1c-0.3,0.1-0.6,0.1-0.8,0.1
				c-1.1,0-2.3,0-3.4,0c-0.1,0-0.1,0,0-0.1c0.1-0.1,0.1-0.3,0.1-0.4c0-0.6,0-1.2,0-1.8c0-0.9,0-1.8,0-2.7c0-0.1,0-0.3-0.1-0.4
				c0-0.1,0-0.1,0.1-0.1c0.2,0,0.3,0,0.5,0C26.6,61.6,27.1,61.6,27.5,61.6C27.5,61.6,27.5,61.6,27.5,61.6z M28,66.4
				c0.4,0,0.8,0,1.2,0c0.2,0,0.4,0,0.6-0.1c0.3-0.1,0.4-0.3,0.5-0.6c0-0.1,0-0.3,0-0.4c0-0.4-0.3-0.6-0.7-0.7c-0.1,0-0.3,0-0.4,0
				c-0.8,0-1.5,0-2.3,0c-0.1,0-0.1,0-0.2,0c-0.1,0-0.2,0.1-0.2,0.2c0,0.1,0,0.1,0,0.2c0,0.4,0,0.9,0,1.3c0,0.1,0.1,0.2,0.2,0.2
				c0.1,0,0.1,0,0.2,0C27.2,66.4,27.6,66.4,28,66.4z M28,63.8C28,63.8,28,63.8,28,63.8c0.3,0,0.7,0,1,0c0.2,0,0.4,0,0.6-0.1
				c0.2-0.1,0.4-0.2,0.4-0.4c0.1-0.4-0.1-0.8-0.6-0.9c-0.2,0-0.4-0.1-0.6-0.1c-0.6,0-1.3,0-1.9,0c-0.1,0-0.1,0-0.2,0
				c-0.1,0-0.2,0.1-0.2,0.2c0,0.4,0,0.7,0,1.1c0,0.1,0.1,0.2,0.2,0.2C27.1,63.8,27.6,63.8,28,63.8z"/>
			<path class="st0" d="M34.6,61.6c0.4,0,0.9,0,1.3,0c0.2,0,0.5,0,0.7,0c0.3,0,0.5,0.1,0.7,0.3c0.3,0.2,0.5,0.5,0.5,0.8
				c0,0.2,0,0.4,0,0.6c0,0.3-0.1,0.5-0.4,0.7c-0.1,0.1-0.1,0.1-0.2,0.2c0,0,0,0,0,0c0.1,0.1,0.1,0.1,0.2,0.2
				c0.3,0.2,0.5,0.5,0.5,0.9c0,0.2,0,0.4,0,0.6c-0.1,0.5-0.3,0.8-0.7,1C37.1,67,37,67,36.8,67.1c-0.3,0.1-0.6,0.1-0.9,0.1
				c-1.1,0-2.2,0-3.3,0c0,0-0.1,0-0.1,0c0,0-0.1-0.1,0-0.1c0.1-0.1,0.1-0.3,0.1-0.4c0-0.5,0-1,0-1.6c0-1,0-1.9,0-2.9
				c0-0.2,0-0.3-0.1-0.4c0,0,0-0.1,0-0.1c0.1,0,0.3,0,0.4,0C33.5,61.6,34,61.6,34.6,61.6z M35,66.4C35,66.4,35,66.4,35,66.4
				c0.4,0,0.8,0,1.2,0c0.2,0,0.4,0,0.6-0.1c0.3-0.1,0.4-0.3,0.5-0.6c0-0.1,0-0.3,0-0.4c0-0.4-0.3-0.7-0.7-0.8c-0.1,0-0.3,0-0.5,0
				c-0.7,0-1.4,0-2.1,0c-0.1,0-0.2,0-0.3,0c-0.1,0-0.2,0.1-0.2,0.2c0,0.5,0,0.9,0,1.4c0,0,0,0,0,0.1c0,0.1,0.1,0.2,0.2,0.2
				c0.1,0,0.2,0,0.3,0C34.3,66.4,34.7,66.4,35,66.4z M34.9,63.8c0.4,0,0.7,0,1.1,0c0.2,0,0.4,0,0.6-0.1c0.1-0.1,0.2-0.1,0.3-0.3
				c0-0.1,0.1-0.2,0.1-0.3c0-0.3-0.2-0.7-0.5-0.7c-0.3-0.1-0.5-0.1-0.8-0.1c-0.5,0-1,0-1.5,0c-0.2,0-0.3,0-0.5,0
				c-0.1,0-0.2,0.1-0.2,0.2c0,0.4,0,0.7,0,1.1c0,0.1,0.1,0.2,0.2,0.2c0.1,0,0.1,0,0.2,0C34.3,63.8,34.6,63.8,34.9,63.8z"/>
			<path class="st0" d="M14.2,61.6c0.4,0,0.9,0,1.3,0c0.2,0,0.5,0,0.7,0c0.2,0,0.3,0.1,0.5,0.1c0.5,0.2,0.8,0.6,0.8,1.1
				c0,0.3,0,0.6-0.1,0.9c-0.1,0.3-0.3,0.6-0.6,0.7c-0.2,0.1-0.4,0.1-0.6,0.2c-0.1,0-0.1,0.1-0.1,0.2c0.1,0.1,0.1,0.2,0.2,0.3
				c0.3,0.4,0.5,0.8,0.8,1.3c0.1,0.2,0.3,0.4,0.5,0.6c0,0,0,0,0,0.1c0,0,0,0,0,0c-0.4,0-0.7,0-1.1,0c-0.1,0-0.1,0-0.1-0.1
				c0-0.1,0-0.1,0-0.2c0,0,0-0.1-0.1-0.1c-0.4-0.6-0.7-1.2-1.1-1.8c-0.1-0.2-0.2-0.2-0.4-0.2c-0.5,0-1,0-1.4,0
				c-0.2,0-0.3,0.1-0.3,0.2c0,0.6,0,1.2,0,1.7c0,0.1,0.1,0.2,0.1,0.3c0.1,0.1,0,0.1-0.1,0.1c-0.3,0-0.6,0-0.9,0
				c-0.1,0-0.1,0-0.1-0.1c0.1-0.2,0.1-0.4,0.1-0.6c0-1.4,0-2.8,0-4.1c0-0.2,0-0.4-0.1-0.6c0-0.1,0-0.1,0.1-0.1c0.1,0,0.3,0,0.4,0
				C13.2,61.6,13.7,61.6,14.2,61.6C14.2,61.6,14.2,61.6,14.2,61.6z M14.5,64C14.5,64,14.5,64,14.5,64c0.2,0,0.5,0,0.7,0
				c0.3,0,0.6,0,0.8-0.1c0.3-0.1,0.6-0.3,0.6-0.7c0-0.1,0-0.3,0-0.4c0-0.3-0.2-0.4-0.4-0.5c-0.2-0.1-0.5-0.1-0.8-0.1
				c-0.7,0-1.3,0-2,0c-0.1,0-0.1,0-0.2,0c-0.1,0-0.2,0.1-0.2,0.2c0,0.5,0,0.9,0,1.4c0,0.1,0.1,0.2,0.2,0.2c0,0,0.1,0,0.1,0
				C13.8,64,14.2,64,14.5,64z"/>
			<path class="st0" d="M60.8,64.3c0-0.3,0-0.6,0.1-0.8c0.2-0.9,0.8-1.5,1.6-1.8c0.3-0.1,0.7-0.2,1-0.2c0.7-0.1,1.3,0,1.9,0.2
				c1.3,0.5,1.8,1.5,1.8,2.5c0,0.3,0,0.7-0.1,1c-0.2,0.6-0.6,1.1-1.1,1.5c-0.2,0.1-0.4,0.2-0.6,0.3c-0.9,0.3-1.9,0.3-2.8,0
				c-0.9-0.3-1.4-0.9-1.7-1.8C60.8,64.8,60.8,64.5,60.8,64.3z M63.9,62.1c-0.1,0-0.3,0-0.5,0c-0.8,0.1-1.4,0.6-1.7,1.4
				c-0.1,0.4-0.1,0.8,0,1.2c0.2,0.8,0.7,1.3,1.5,1.5c0.5,0.1,1,0.1,1.5,0c0.7-0.2,1.2-0.6,1.4-1.4c0.1-0.5,0.1-0.9,0-1.4
				c-0.2-0.6-0.6-1-1.1-1.3C64.7,62.1,64.4,62.1,63.9,62.1z"/>
			<path class="st0" d="M77.8,67c-0.7,0-1.4-0.1-2-0.4c-0.1-0.1-0.2-0.1-0.4-0.2c-0.1,0-0.2,0-0.3,0c-0.1,0-0.1-0.1-0.1-0.1
				c0.1-0.3,0.2-0.6,0.4-0.9c0,0,0,0,0,0c0,0,0.1,0,0.1,0.1c0.1,0.2,0.2,0.3,0.4,0.4c0.1,0.1,0.2,0.1,0.3,0.2
				c0.8,0.4,1.7,0.4,2.5,0.2c0.2,0,0.4-0.1,0.5-0.3c0.2-0.1,0.3-0.3,0.3-0.5c0.1-0.3-0.1-0.6-0.3-0.7c-0.2-0.1-0.5-0.2-0.8-0.2
				c-0.4,0-0.8,0-1.2,0c-0.4,0-0.7,0-1-0.1c-0.3-0.1-0.5-0.2-0.8-0.4c-0.2-0.1-0.3-0.3-0.3-0.5c-0.2-0.5-0.1-1,0.3-1.4
				c0.2-0.2,0.4-0.3,0.6-0.4c0.5-0.2,1-0.3,1.5-0.4c0.5,0,1.1,0,1.6,0.2c0.1,0,0.1,0,0.2,0.1c0.2,0.1,0.5,0.2,0.8,0.2
				c0.1,0,0.1,0,0.1,0.1c-0.1,0.3-0.2,0.6-0.4,0.8c0,0.1-0.1,0.1-0.2,0c-0.2-0.3-0.6-0.5-1-0.6c-0.5-0.1-1.1-0.1-1.6,0
				c-0.3,0.1-0.5,0.2-0.8,0.3c-0.2,0.2-0.3,0.4-0.3,0.6c0,0.2,0.1,0.3,0.3,0.4c0.2,0.1,0.4,0.2,0.6,0.2c0.2,0,0.4,0,0.6,0
				c0.3,0,0.7,0,1,0c0.3,0,0.6,0.1,1,0.2c0.3,0.1,0.5,0.2,0.7,0.4c0.2,0.2,0.3,0.4,0.3,0.6c0,0.1,0,0.3,0,0.4c0,0.4-0.2,0.8-0.5,1.1
				c-0.3,0.3-0.7,0.4-1.1,0.5C78.6,67,78.2,67.1,77.8,67z"/>
			<path class="st0" d="M53.9,64.3c0-0.8,0-1.5,0-2.3c0-0.2,0-0.3-0.1-0.4c0,0,0-0.1,0-0.1c0.3,0,0.6,0,1,0c0,0,0.1,0.1,0.1,0.1
				c-0.1,0.2-0.1,0.4-0.1,0.6c0,0.4,0,0.7,0,1.1c0,0.1,0,0.2,0,0.3c0,0.1,0.1,0.2,0.2,0.2c0.1,0,0.1,0,0.2,0c1,0,2,0,3.1,0
				c0.1,0,0.2,0,0.3,0c0,0,0.1-0.1,0.1-0.1c0-0.1,0-0.1,0-0.2c0-0.5,0-1,0-1.6c0-0.1,0-0.3-0.1-0.4c0,0,0-0.1,0-0.1c0.3,0,0.6,0,1,0
				c0,0,0.1,0.1,0.1,0.1c-0.1,0.2-0.1,0.4-0.1,0.6c0,1.4,0,2.7,0,4.1c0,0.2,0,0.4,0.1,0.6c0,0,0,0.1-0.1,0.1c-0.3,0-0.6,0-1,0
				c-0.1,0-0.1,0-0.1-0.1c0.1-0.2,0.1-0.3,0.1-0.5c0-0.5,0-1,0-1.6c0-0.1,0-0.1,0-0.2c0-0.1-0.1-0.2-0.2-0.2c-0.1,0-0.1,0-0.2,0
				c-1,0-2,0-3.1,0c0,0-0.1,0-0.1,0c-0.1,0-0.2,0.1-0.2,0.2c0,0,0,0.1,0,0.1c0,0.5,0,1.1,0,1.6c0,0.2,0,0.3,0.1,0.4
				c0,0,0,0.1-0.1,0.1c-0.3,0-0.6,0-1,0c0,0-0.1-0.1,0-0.1c0.1-0.1,0.1-0.3,0.1-0.4C53.9,65.7,53.9,65,53.9,64.3
				C53.9,64.3,53.9,64.3,53.9,64.3z"/>
			<path class="st0" d="M84.8,66.3c0.5,0,1.1,0,1.6,0c0.2,0,0.3,0,0.4-0.2c0,0,0.1,0,0.1,0c0,0.3,0.1,0.6,0,0.8c0,0-0.1,0.1-0.1,0.1
				C86.6,67,86.3,67,86,67c-1.4,0-2.7,0-4.1,0c0,0-0.1,0-0.1,0c0,0,0,0,0-0.1c0.1-0.2,0.1-0.4,0.1-0.5c0-1.4,0-2.9,0-4.3
				c0-0.2,0-0.4-0.1-0.5c0,0,0.1-0.1,0.1-0.1c0.2,0,0.4,0,0.6,0c1.1,0,2.2,0,3.3,0c0.2,0,0.5,0,0.7-0.1c0,0,0.1,0.1,0.1,0.1
				c0,0.2,0,0.5,0,0.7c0,0.1-0.1,0.1-0.1,0c-0.1-0.1-0.1-0.1-0.2-0.1c0,0-0.1,0-0.1,0c-1,0-2,0-3.1,0c0,0,0,0-0.1,0
				c-0.1,0-0.2,0.1-0.2,0.2c0,0.5,0,0.9,0,1.4c0,0.1,0.1,0.2,0.2,0.2c0.3,0,0.6,0,0.9,0c0.3,0,0.6,0,0.9,0c0.2,0,0.4,0,0.6-0.2
				c0,0,0.1,0,0.1,0.1c0,0.3,0,0.6,0,0.8c0,0.1-0.1,0.1-0.1,0.1c-0.1-0.1-0.3-0.1-0.4-0.1c-0.7,0-1.3,0-2,0c-0.1,0-0.2,0.1-0.2,0.2
				c0,0.5,0,1,0,1.4c0,0.1,0.1,0.2,0.2,0.2c0.2,0,0.5,0,0.7,0C84.1,66.3,84.4,66.3,84.8,66.3C84.8,66.3,84.8,66.3,84.8,66.3z"/>
			<path class="st0" d="M72.8,63.6c0-0.5,0-1,0-1.4c0-0.2,0-0.4-0.1-0.6c0,0,0-0.1,0.1-0.1c0.3,0,0.6,0,0.9,0c0,0,0.1,0.1,0.1,0.1
				c-0.1,0.2-0.1,0.4-0.1,0.6c0,0.9,0,1.7,0,2.6c0,0.2,0,0.3,0,0.5c0,0.2-0.1,0.5-0.2,0.7c-0.2,0.5-0.6,0.8-1.2,1
				c-0.9,0.2-1.8,0.2-2.7,0c-0.6-0.1-1-0.5-1.2-1.1c0-0.1-0.1-0.3-0.1-0.4c0-0.3,0-0.6,0-0.8c0-0.8,0-1.7,0-2.5c0-0.2,0-0.3-0.1-0.5
				c0-0.1,0-0.1,0.1-0.1c0.3,0,0.6,0,0.9,0c0.1,0,0.1,0.1,0.1,0.1c-0.1,0.2-0.1,0.3-0.1,0.5c0,0.8,0,1.5,0,2.3c0,0.2,0,0.4,0,0.6
				c0,0.2,0,0.3,0.1,0.5c0.1,0.3,0.3,0.5,0.5,0.6c0.2,0.1,0.4,0.1,0.6,0.2c0.4,0,0.8,0,1.2,0c0.2,0,0.5-0.1,0.7-0.2
				c0.3-0.1,0.5-0.4,0.5-0.7c0-0.1,0-0.3,0-0.4C72.8,64.5,72.8,64,72.8,63.6z"/>
			<path class="st0" d="M21.4,65.7c-0.4,0-0.9,0-1.3,0c-0.1,0-0.2,0.1-0.3,0.2c-0.1,0.3-0.3,0.6-0.4,1c0,0.1,0,0.2,0,0.3
				c0,0.1,0,0.1-0.1,0.1c-0.3,0-0.6,0-0.9,0c-0.1,0-0.1-0.1-0.1-0.1c0.2-0.3,0.4-0.6,0.5-1c0.6-1.3,1.2-2.6,1.8-4
				c0.1-0.1,0.1-0.2,0.1-0.4c0,0,0,0,0-0.1c0,0,0,0,0.1,0c0.4-0.1,0.8,0,1.2,0c0.1,0,0.1,0,0.1,0.1c0,0.1,0,0.2,0,0.3
				c0.3,0.6,0.5,1.1,0.8,1.7c0.4,0.9,0.9,1.8,1.3,2.7c0.1,0.2,0.2,0.4,0.4,0.6c0,0,0,0,0,0.1c0,0,0,0-0.1,0c-0.3,0-0.7,0-1,0
				c0,0-0.1,0-0.1-0.1c0,0,0-0.1,0-0.1c0-0.1,0-0.2,0-0.3c-0.1-0.3-0.3-0.5-0.4-0.8c-0.1-0.1-0.2-0.2-0.3-0.2
				C22.2,65.7,21.8,65.7,21.4,65.7C21.4,65.7,21.4,65.7,21.4,65.7z M21.3,65c0.3,0,0.5,0,0.8,0c0.1,0,0.2,0,0.3,0
				c0.1,0,0.1,0,0.1-0.1c0,0,0-0.1,0-0.1c-0.3-0.7-0.7-1.4-1-2c0,0,0,0,0-0.1c0,0,0,0-0.1,0c0,0-0.1,0-0.1,0.1
				c-0.3,0.7-0.6,1.4-0.9,2.1c0,0,0,0,0,0.1c0,0,0,0.1,0.1,0.1C20.7,65,21,65,21.3,65z"/>
			<path class="st0" d="M44.9,64.6c0,0.6,0,1.3,0,1.9c0,0.2,0,0.4,0.1,0.6c0,0.1,0,0.1-0.1,0.1c-0.3,0-0.6,0-0.9,0
				c-0.1,0-0.1-0.1-0.1-0.1c0.1-0.1,0.1-0.3,0.1-0.4c0-0.2,0-0.3,0-0.5c0-1.1,0-2.2,0-3.4c0-0.1,0-0.3,0-0.4c0,0-0.1-0.1-0.1-0.1
				c0,0-0.1,0-0.1,0c-0.5,0-1,0-1.6,0c-0.1,0-0.2,0.1-0.4,0.1c-0.1,0-0.1,0-0.1-0.1c0-0.3,0-0.6,0-0.8c0-0.1,0-0.1,0.1-0.1
				c0.2,0.1,0.4,0.2,0.7,0.2c1.3,0,2.6,0,3.9,0c0.2,0,0.4,0,0.6-0.1c0.1,0,0.1,0,0.1,0.1c0,0.3,0,0.5,0,0.8c0,0.1,0,0.2-0.1,0.1
				c-0.1,0-0.2-0.1-0.2-0.1c-0.6,0-1.2,0-1.8,0c0,0-0.1,0.1-0.1,0.1c0,0,0,0.1,0,0.1c0,0.2,0,0.3,0,0.5
				C44.9,63.5,44.9,64.1,44.9,64.6C44.9,64.6,44.9,64.6,44.9,64.6z"/>
			<path class="st0" d="M40.2,67.1c-0.2,0-0.3,0-0.5,0c-0.1,0-0.1-0.1-0.1-0.1c0.1-0.2,0.1-0.4,0.1-0.6c0-0.9,0-1.8,0-2.7
				c0-0.5,0-1.1,0-1.6c0-0.2,0-0.3-0.1-0.4c0-0.1,0-0.1,0.1-0.1c0.3,0,0.6,0,0.9,0c0.1,0,0.1,0.1,0.1,0.1c-0.1,0.1-0.1,0.1-0.1,0.2
				c0,0.1,0,0.2,0,0.3c0,1.4,0,2.8,0,4.3c0,0.1,0,0.1,0,0.2c0,0.1,0.1,0.2,0.1,0.4c0,0.1,0,0.1-0.1,0.1
				C40.5,67.2,40.3,67.1,40.2,67.1C40.2,67.1,40.2,67.1,40.2,67.1z"/>
			<path class="st0" d="M6.7,70.9c-0.4,0-0.7-0.1-1.1-0.2c-0.2-0.1-0.3-0.2-0.4-0.4c-0.1-0.2-0.1-0.4,0-0.7c0.1-0.2,0.2-0.3,0.4-0.4
				c0.1-0.1,0.2-0.1,0.3-0.1C6,69.1,6.1,69,6.1,69c-0.1-0.1-0.2-0.1-0.3-0.2c-0.1-0.1-0.2-0.1-0.3-0.2c-0.1-0.1-0.2-0.2-0.3-0.3
				c-0.1-0.2-0.1-0.4,0-0.6c0.1-0.1,0.2-0.3,0.3-0.3c0.1-0.1,0.3-0.2,0.5-0.2C6.6,67,7.1,67,7.6,67.3c0,0,0.1,0.1,0.1,0.1
				c0,0,0,0.1-0.1,0.1c-0.1,0-0.3,0.1-0.4,0.1c-0.2,0-0.4,0.1-0.6,0.2c-0.1,0.1-0.2,0.1-0.3,0.2c-0.2,0.2-0.2,0.5,0,0.6
				c0.1,0.1,0.3,0.2,0.4,0.3c0.1,0,0.1,0.1,0.2,0.1c0,0,0,0,0,0.1c-0.1,0-0.1,0.1-0.2,0.1c-0.1,0.1-0.2,0.1-0.3,0.2
				c-0.3,0.2-0.3,0.6,0,0.8c0.2,0.1,0.3,0.2,0.5,0.2c0.3,0,0.5,0.1,0.8,0.1c0,0,0.1,0,0.1,0c0,0,0,0.1-0.1,0.1
				C7.3,70.8,7.1,70.9,6.7,70.9z"/>
			<path class="st0" d="M92.6,70.7c-0.4,0-0.7-0.1-1-0.3c0,0,0,0,0-0.1c0,0,0,0,0-0.1c0.2-0.1,0.4-0.1,0.6-0.1
				c0.2,0,0.4-0.1,0.6-0.2c0.1-0.1,0.2-0.2,0.3-0.3c0.1-0.1,0.1-0.3,0-0.4c-0.1-0.1-0.1-0.2-0.2-0.2c-0.1-0.1-0.3-0.1-0.4-0.2
				c0,0-0.1-0.1,0-0.1c0,0,0,0,0-0.1c0.1-0.1,0.2-0.1,0.3-0.2c0.1-0.1,0.2-0.1,0.3-0.2c0.2-0.2,0.2-0.4,0-0.6
				c-0.1-0.1-0.3-0.2-0.4-0.3c-0.2-0.1-0.4-0.1-0.6-0.2c-0.1,0-0.2,0-0.3,0c-0.1,0-0.1,0-0.1-0.1c0,0,0,0,0-0.1c0,0,0,0,0,0
				c0.6-0.3,1.2-0.3,1.8-0.1c0.2,0.1,0.3,0.2,0.5,0.3c0.2,0.3,0.2,0.7,0,0.9c-0.1,0.1-0.3,0.2-0.4,0.3c-0.1,0.1-0.2,0.1-0.3,0.2
				c0,0,0,0,0,0c0.1,0,0.2,0.1,0.2,0.1c0.2,0.1,0.3,0.2,0.5,0.3c0.3,0.3,0.3,0.8,0,1c-0.1,0.1-0.2,0.2-0.4,0.2
				C93.1,70.7,93,70.7,92.6,70.7z"/>
			<path class="st0" d="M1.1,69.1c-0.2,0-0.4,0-0.6,0.1c-0.1,0-0.3,0-0.4-0.1C0.1,69.1,0.1,69,0,69c0,0,0,0,0,0
				c0.1-0.1,0.3-0.2,0.5-0.2c0.1,0,0.3,0.1,0.4,0.1c0.3,0,0.5,0,0.8-0.1c0.1,0,0.2-0.1,0.3-0.2c0,0,0.1-0.1,0-0.2
				c-0.1-0.1-0.2-0.1-0.2-0.2c0,0,0-0.1,0-0.1C1.9,68,2,67.9,2.1,67.9c0,0,0.1,0,0.1,0c0.1,0.1,0.2,0.1,0.3,0.2c0.1,0,0.1,0.1,0,0.2
				c-0.1,0-0.1,0.1-0.2,0.1c-0.1,0.1-0.1,0.2,0,0.3c0.1,0.1,0.2,0.1,0.3,0.1c0.2,0.1,0.5,0.1,0.7,0c0.1,0,0.2,0,0.3,0
				c0.2-0.1,0.4,0,0.6,0.1c0.1,0,0.1,0.1,0,0.1c-0.1,0-0.1,0.1-0.2,0.1c-0.1,0-0.2,0.1-0.3,0c-0.3-0.1-0.6-0.1-1,0
				c-0.2,0-0.3,0.1-0.4,0.2c0,0-0.1,0.1,0,0.2c0,0,0.1,0.1,0.1,0.1c0,0,0.1,0,0.1,0.1c0,0,0,0.1,0,0.1C2.5,69.9,2.3,70,2.2,70
				c0,0-0.1,0-0.1,0C2,70,1.9,69.9,1.8,69.9c-0.1,0,0-0.1,0-0.2c0.1-0.1,0.1-0.1,0.2-0.2c0,0,0-0.1,0-0.2c-0.1-0.1-0.2-0.2-0.3-0.2
				C1.5,69.1,1.3,69.1,1.1,69.1z"/>
			<path class="st0" d="M98.1,68.7c0.1,0,0.3,0,0.5-0.1c0.2-0.1,0.4,0,0.6,0.1c0,0,0,0.1,0,0.2C99,69,98.8,69.1,98.6,69
				c-0.1,0-0.2,0-0.3-0.1c-0.3-0.1-0.6,0-0.9,0.1c0,0-0.1,0.1-0.1,0.1c0,0-0.1,0.1,0,0.2c0.1,0.1,0.1,0.1,0.2,0.2
				c0.1,0.1,0,0.2,0,0.2c-0.1,0-0.2,0.1-0.2,0.1c-0.1,0-0.1,0-0.2,0c-0.1,0-0.2-0.1-0.3-0.1c-0.1,0-0.1-0.1,0-0.2
				c0.1-0.1,0.1-0.1,0.2-0.2c0,0,0-0.1,0-0.2c0,0-0.1-0.1-0.1-0.1c-0.3-0.1-0.6-0.2-0.9-0.1c0,0-0.1,0-0.1,0c-0.2,0.1-0.5,0-0.7-0.1
				c-0.1,0-0.1-0.1,0-0.1c0,0,0,0,0,0c0,0,0.1,0,0.1-0.1c0.1-0.1,0.3-0.1,0.4-0.1c0.3,0.1,0.6,0.1,0.8,0.1c0.2,0,0.3-0.1,0.4-0.2
				c0.1-0.1,0.1-0.2,0-0.3c-0.1-0.1-0.1-0.1-0.2-0.2c0,0,0-0.1,0-0.1c0.1,0,0.1-0.1,0.2-0.1c0.1,0,0.2,0,0.3,0
				c0.1,0,0.2,0.1,0.2,0.1c0.1,0,0.1,0.1,0,0.2c-0.1,0.1-0.1,0.1-0.2,0.2c0,0.1,0,0.2,0,0.2c0.1,0.1,0.3,0.2,0.5,0.2
				C97.9,68.6,98,68.6,98.1,68.7z"/>
			<path class="st0" d="M8.1,69.4C8.1,69.4,8.1,69.4,8.1,69.4c-0.3-0.1-0.5-0.2-0.8-0.3c-0.1,0-0.1-0.1,0-0.2
				c0.2-0.1,0.4-0.2,0.6-0.3c0.1-0.1,0.3-0.1,0.4,0c0.5,0.3,0.7,0.2,1.1,0.2c0.3,0,0.5,0,0.8,0c0.1,0,0.1,0,0.2,0
				c0,0,0.1,0.1,0.1,0.1c0,0,0,0.1-0.1,0.1c-0.1,0-0.1,0-0.2,0c-0.3,0-0.7,0-1,0c-0.2,0-0.4,0-0.6,0.1c-0.1,0.1-0.2,0.1-0.3,0.1
				C8.2,69.4,8.2,69.4,8.1,69.4z"/>
			<path class="st0" d="M91.9,68.8C91.9,68.8,91.9,68.9,91.9,68.8c-0.2,0.1-0.4,0.2-0.6,0.3c-0.2,0.1-0.3,0.1-0.5,0
				c-0.4-0.2-0.8-0.3-1.2-0.2c-0.3,0-0.6,0-0.8,0c0,0-0.1-0.1-0.1-0.1c0,0,0-0.1,0.1-0.1c0.1,0,0.1,0,0.2,0c0.3,0,0.5,0,0.8,0
				c0.1,0,0.3,0,0.4,0c0.2,0,0.3,0,0.4-0.1c0.5-0.3,0.5-0.2,1,0C91.7,68.6,91.8,68.7,91.9,68.8C91.9,68.8,91.9,68.8,91.9,68.8z"/>
			<path class="st0" d="M14.4,69.1c-0.2,0-0.4,0-0.6,0c0,0-0.1,0-0.1,0c0,0,0-0.1,0-0.1c0,0,0,0,0-0.1c0,0,0.1-0.1,0.1-0.1
				c0.4,0,0.8,0,1.2,0c0,0,0.1,0,0.1,0c0,0,0.1,0.1,0,0.1c0,0,0,0.1-0.1,0.1c-0.1,0-0.1,0-0.2,0C14.7,69.1,14.6,69.1,14.4,69.1
				C14.4,69.1,14.4,69.1,14.4,69.1z"/>
			<path class="st0" d="M77.8,69c-0.2,0-0.4,0-0.6,0c0,0-0.1,0-0.1,0c0,0-0.1-0.1-0.1-0.1c0,0,0-0.1,0.1-0.1c0,0,0,0,0.1,0
				c0.4,0,0.9,0,1.3,0c0,0,0,0,0.1,0c0,0,0.1,0.1,0.1,0.1c0,0,0,0.1-0.1,0.1c-0.1,0-0.2,0-0.3,0C78,69,77.9,69,77.8,69
				C77.8,69,77.8,69,77.8,69z"/>
			<path class="st0" d="M75.4,69c-0.2,0-0.4,0-0.6,0c0,0-0.1,0-0.1,0c0,0-0.1-0.1-0.1-0.1c0,0,0-0.1,0.1-0.1c0,0,0,0,0.1,0
				c0.4,0,0.9,0,1.3,0c0,0,0,0,0.1,0c0,0,0.1,0.1,0.1,0.1c0,0,0,0.1-0.1,0.1c-0.1,0-0.1,0-0.2,0C75.8,69,75.6,69,75.4,69
				C75.4,69,75.4,69,75.4,69z"/>
			<path class="st0" d="M73.1,68.7c0.2,0,0.4,0,0.6,0c0,0,0.1,0,0.1,0c0,0,0,0.1,0,0.1c0,0,0,0,0,0.1c0,0-0.1,0.1-0.1,0.1
				c-0.4,0-0.8,0-1.2,0c0,0-0.1,0-0.1,0c0,0-0.1-0.1,0-0.1c0,0,0-0.1,0.1-0.1c0.1,0,0.1,0,0.2,0C72.7,68.7,72.9,68.7,73.1,68.7
				C73.1,68.7,73.1,68.7,73.1,68.7z"/>
			<path class="st0" d="M80.1,68.7c0.2,0,0.4,0,0.6,0c0,0,0.1,0,0.1,0c0,0,0.1,0.1,0.1,0.1c0,0,0,0.1-0.1,0.1c0,0,0,0-0.1,0
				c-0.4,0-0.9,0-1.3,0c0,0,0,0-0.1,0c0,0-0.1-0.1-0.1-0.1c0,0,0-0.1,0.1-0.1c0.1,0,0.1,0,0.2,0C79.8,68.7,79.9,68.7,80.1,68.7
				C80.1,68.7,80.1,68.7,80.1,68.7z"/>
			<path class="st0" d="M16.8,68.8c0.2,0,0.4,0,0.6,0c0,0,0.1,0,0.1,0c0,0,0.1,0.1,0.1,0.1c0,0,0,0.1-0.1,0.1c0,0,0,0-0.1,0
				c-0.4,0-0.9,0-1.3,0c0,0,0,0-0.1,0C16,69,16,69,16,69c0,0,0-0.1,0.1-0.1c0.1,0,0.1,0,0.2,0C16.4,68.8,16.6,68.8,16.8,68.8
				C16.8,68.8,16.8,68.8,16.8,68.8z"/>
			<path class="st0" d="M70.7,69c-0.2,0-0.4,0-0.6,0c0,0-0.1,0-0.1-0.1c0,0,0-0.1,0-0.1c0,0,0.1,0,0.1,0c0.4,0,0.8,0,1.2,0
				c0,0,0.1,0,0.1,0c0,0,0,0,0,0.1c0,0,0,0.1,0,0.1c0,0-0.1,0-0.1,0C71.1,69,70.9,69,70.7,69C70.7,69,70.7,69,70.7,69z"/>
			<path class="st0" d="M12,69.1c-0.2,0-0.4,0-0.6,0c-0.1,0-0.1-0.1-0.1-0.1c0,0,0-0.1,0.1-0.1c0.4,0,0.9,0,1.3,0c0,0,0,0,0.1,0
				c0,0,0,0,0,0.1c0,0,0,0.1,0,0.1c0,0-0.1,0-0.1,0C12.5,69.1,12.2,69.1,12,69.1C12,69.1,12,69.1,12,69.1z"/>
			<path class="st0" d="M82.4,68.9c-0.2,0-0.3,0-0.5,0c0,0-0.1,0-0.1,0c0,0-0.1-0.1-0.1-0.1c0,0,0-0.1,0.1-0.1c0,0,0,0,0.1,0
				c0.4,0,0.8,0,1.2,0c0,0,0,0,0.1,0c0,0,0.1,0.1,0.1,0.1c0,0,0,0.1-0.1,0.1C82.9,68.9,82.7,68.9,82.4,68.9
				C82.4,68.9,82.4,68.9,82.4,68.9z"/>
			<path class="st0" d="M87.1,68.9c-0.2,0-0.4,0-0.6,0c0,0-0.1-0.1-0.1-0.1c0-0.1,0-0.1,0.1-0.1c0.3,0,1-0.1,1.4,0
				c0.1,0,0.1,0,0.1,0.1c0,0,0,0.1-0.1,0.1c-0.1,0-0.1,0-0.2,0C87.5,68.9,87.3,68.9,87.1,68.9C87.1,68.9,87.1,68.9,87.1,68.9z"/>
			<path class="st0" d="M19,69c-0.2,0-0.4,0-0.6,0c-0.1,0-0.1,0,0-0.1c0,0,0,0,0,0c0,0,0,0,0.1,0c0.4,0,0.9,0,1.3,0
				c0.1,0,0.1,0,0.1,0.1c0,0,0,0.1-0.1,0.1c-0.1,0-0.1,0-0.2,0C19.4,69,19.2,69,19,69z"/>
			<path class="st0" d="M21.5,69c-0.2,0-0.5,0-0.7,0c-0.1,0-0.1,0-0.1-0.1c0,0,0-0.1,0.1-0.1c0,0,0,0,0.1,0c0.4,0,0.8,0,1.2,0
				c0,0,0.1,0,0.1,0c0.1,0,0.1,0,0.1,0.1c0,0,0,0.1-0.1,0.1C21.9,69,21.7,69,21.5,69z"/>
			<path class="st0" d="M23.8,69c-0.2,0-0.4,0-0.6,0c0,0-0.1,0-0.1-0.1c0,0,0.1-0.1,0.1-0.1c0.4,0,0.9,0,1.3,0
				c0.1,0,0.1,0.1,0.1,0.1c0,0-0.1,0.1-0.1,0.1c-0.1,0-0.1,0-0.2,0C24.1,69,23.9,69,23.8,69C23.8,69,23.8,69,23.8,69z"/>
			<path class="st0" d="M26.1,69c-0.2,0-0.4,0-0.6,0c0,0-0.1,0-0.1-0.1c0,0,0-0.1,0.1-0.1c0,0,0,0,0.1,0c0.4,0,0.9,0,1.3,0
				c0,0,0.1,0.1,0.1,0.1c0,0,0,0.1-0.1,0.1c-0.1,0-0.1,0-0.2,0C26.5,69,26.3,69,26.1,69C26.1,69,26.1,69,26.1,69z"/>
			<path class="st0" d="M28.5,69c-0.2,0-0.4,0-0.6,0c0,0-0.1,0-0.1-0.1c0,0,0.1-0.1,0.1-0.1c0.4,0,0.9,0,1.3,0c0,0,0.1,0,0.1,0.1
				c0,0,0,0.1-0.1,0.1c-0.1,0-0.1,0-0.2,0C28.8,69,28.6,69,28.5,69C28.5,69,28.5,69,28.5,69z"/>
			<path class="st0" d="M30.9,68.8c0.2,0,0.4,0,0.6,0c0.1,0,0.1,0.1,0.1,0.1c0,0,0,0.1-0.1,0.1c0,0-0.1,0-0.1,0c-0.3,0-0.7,0-1,0
				c0,0-0.1,0-0.1,0c-0.1,0-0.1-0.1-0.1-0.1c0-0.1,0.1-0.1,0.1-0.1C30.5,68.8,30.7,68.8,30.9,68.8C30.9,68.8,30.9,68.8,30.9,68.8z"
				/>
			<path class="st0" d="M33.1,69c-0.2,0-0.4,0-0.6,0c-0.1,0-0.1-0.1-0.1-0.1c0,0,0-0.1,0.1-0.1c0.1,0,0.1,0,0.2,0c0.3,0,0.6,0,1,0
				c0.1,0,0.1,0,0.2,0c0.1,0,0.1,0,0.1,0.1c0,0,0,0,0,0c0,0-0.1,0-0.1,0C33.6,69,33.3,69,33.1,69C33.1,69,33.1,69,33.1,69z"/>
			<path class="st0" d="M35.5,69c-0.2,0-0.4,0-0.6,0c-0.1,0-0.1,0-0.1-0.1c0,0,0-0.1,0.1-0.1c0.3,0,1.1,0,1.3,0c0.1,0,0.1,0,0.1,0.1
				c0,0,0,0.1-0.1,0.1c-0.1,0-0.1,0-0.2,0C35.8,69,35.7,69,35.5,69C35.5,69,35.5,69,35.5,69z"/>
			<path class="st0" d="M84.8,68.9c-0.2,0-0.4,0-0.6,0c-0.1,0-0.1,0-0.1-0.1c0,0,0,0,0,0c0,0,0,0,0.1,0c0.4,0,0.9,0,1.3,0
				c0,0,0.1,0,0.1,0.1c0,0,0,0.1-0.1,0.1c-0.1,0-0.1,0-0.2,0C85.1,68.9,84.9,68.9,84.8,68.9C84.8,68.9,84.8,68.9,84.8,68.9z"/>
			<path class="st0" d="M40.3,68.8c0.2,0,0.4,0,0.6,0c0,0,0.1,0.1,0.1,0.1c0,0,0,0.1-0.1,0.1c0,0,0,0-0.1,0c-0.4,0-0.9,0-1.3,0
				c-0.1,0-0.1-0.1-0.1-0.1c0,0,0.1-0.1,0.1-0.1C39.8,68.8,40,68.8,40.3,68.8z"/>
			<path class="st0" d="M42.5,69c-0.2,0-0.4,0-0.6,0c-0.1,0-0.1,0-0.1-0.1c0,0,0-0.1,0.1-0.1c0.1,0,0.2,0,0.3,0c0.3,0,0.7,0,1,0
				c0,0,0.1,0,0.1,0.1c0,0,0,0.1-0.1,0.1c-0.1,0-0.1,0-0.2,0C42.8,69,42.7,69,42.5,69z"/>
			<path class="st0" d="M44.9,69c-0.2,0-0.4,0-0.6,0c-0.1,0-0.1,0-0.1-0.1c0,0,0-0.1,0.1-0.1c0,0,0,0,0.1,0c0.4,0,0.9,0,1.3,0
				c0,0,0.1,0,0.1,0.1c0,0,0,0.1-0.1,0.1c-0.1,0-0.1,0-0.2,0C45.2,69,45.1,69,44.9,69z"/>
			<path class="st0" d="M47.2,69c-0.2,0-0.4,0-0.6,0c0,0-0.1-0.1,0-0.1c0,0,0,0,0,0c0,0,0.1,0,0.1,0c0.4,0,0.8,0,1.2,0
				c0,0,0,0,0.1,0c0,0,0.1,0.1,0.1,0.1c0,0,0,0.1-0.1,0.1c-0.1,0-0.1,0-0.2,0C47.6,69,47.4,69,47.2,69z"/>
			<path class="st0" d="M49.7,68.8c0.2,0,0.4,0,0.6,0c0,0,0,0,0,0c0,0,0,0.1,0,0.1c0,0,0,0-0.1,0c-0.4,0-0.9,0-1.3,0
				c0,0-0.1,0-0.1-0.1c0,0,0-0.1,0.1-0.1c0.1,0,0.1,0,0.2,0C49.3,68.8,49.5,68.8,49.7,68.8z"/>
			<path class="st0" d="M51.8,69c-0.2,0-0.4,0-0.6,0c0,0,0,0,0,0c0-0.1,0-0.1,0-0.1c0,0,0,0,0.1,0c0.4,0,0.9,0,1.3,0
				c0,0,0.1,0,0.1,0.1c0,0,0,0.1-0.1,0.1c-0.1,0-0.1,0-0.2,0C52.2,69,52.1,69,51.8,69z"/>
			<path class="st0" d="M54.2,69c-0.2,0-0.4,0-0.6,0c0,0-0.1-0.1,0-0.1c0,0,0,0,0,0c0,0,0,0,0.1,0c0.4,0,0.9,0,1.3,0
				c0.1,0,0.1,0.1,0.1,0.1c0,0-0.1,0.1-0.1,0.1c-0.1,0-0.1,0-0.2,0C54.6,69,54.4,69,54.2,69z"/>
			<path class="st0" d="M56.7,69c-0.2,0-0.5,0-0.7,0c0,0-0.1,0-0.1-0.1c0,0,0-0.1,0.1-0.1c0.4,0,0.9,0,1.3,0c0,0,0.1,0,0.1,0.1
				c0,0-0.1,0.1-0.1,0.1c0,0-0.1,0-0.1,0C57,69,56.9,69,56.7,69C56.7,69,56.7,69,56.7,69z"/>
			<path class="st0" d="M59,69c-0.2,0-0.4,0-0.6,0c0,0-0.1,0-0.1-0.1c0,0,0-0.1,0.1-0.1c0.4,0,0.9,0,1.3,0c0,0,0.1,0,0.1,0.1
				c0,0-0.1,0.1-0.1,0.1c0,0-0.1,0-0.1,0C59.3,69,59.2,69,59,69C59,69,59,69,59,69z"/>
			<path class="st0" d="M61.3,69c-0.2,0-0.4,0-0.6,0c-0.1,0-0.1,0-0.1-0.1c0,0,0-0.1,0.1-0.1c0.4,0,0.9,0,1.3,0c0,0,0.1,0,0.1,0.1
				c0,0-0.1,0.1-0.1,0.1c-0.1,0-0.1,0-0.2,0C61.6,69,61.5,69,61.3,69C61.3,69,61.3,69,61.3,69z"/>
			<path class="st0" d="M63.7,68.7c0.2,0,0.4,0,0.6,0c0.1,0,0.1,0,0.1,0.1c0,0.1,0,0.1-0.1,0.1c-0.3,0-1,0.1-1.4,0
				c-0.1,0-0.1,0-0.1-0.1c0,0,0-0.1,0.1-0.1c0.1,0,0.1,0,0.2,0C63.4,68.7,63.5,68.7,63.7,68.7C63.7,68.7,63.7,68.7,63.7,68.7z"/>
			<path class="st0" d="M66,69c-0.2,0-0.4,0-0.6,0c-0.1,0-0.1,0-0.1-0.1c0,0,0-0.1,0.1-0.1c0,0,0,0,0.1,0c0.4,0,0.9,0,1.3,0
				c0,0,0.1,0.1,0.1,0.1c0,0,0,0.1-0.1,0.1c-0.1,0-0.1,0-0.2,0C66.3,69,66.2,69,66,69z"/>
			<path class="st0" d="M68.3,69c-0.2,0-0.4,0-0.6,0c-0.1,0-0.1-0.1-0.1-0.1c0,0,0.1-0.1,0.1-0.1c0.4,0,0.9,0,1.3,0
				c0,0,0.1,0,0.1,0.1c0,0-0.1,0.1-0.1,0.1c-0.1,0-0.1,0-0.2,0C68.6,69,68.5,69,68.3,69C68.3,69,68.3,69,68.3,69z"/>
			<path class="st0" d="M37.8,69c-0.2,0-0.4,0-0.6,0c0,0,0,0,0,0c0,0,0-0.1,0-0.1c0,0,0,0,0.1,0c0.4,0,0.9,0,1.3,0
				c0,0,0.1,0,0.1,0.1c0,0,0,0.1-0.1,0.1c-0.1,0-0.1,0-0.2,0C38.2,69,38,69,37.8,69z"/>
		</g>
		<g>
			<path class="st0" d="M66.1,43.2c3.7,5.1,1.2,10.8-3.9,13.8c-4.3,2.5-9.5,3.1-14.3,2.1c-3.7-0.8-7.4-2.6-9.6-5.8
				c-2-2.8-2.1-6.3-0.3-9.3c-9.6-1.6-11.7-14.2-3.1-18.8c-2.1-4.4-3.1-9.5-2.9-14.4c0.1-1.9,0.5-5,2.3-6c2.3-1.2,4.3,2.2,5.2,3.8
				c1.4,2.8,2.2,5.8,2.7,8.9c0.4,2.3,0.4,4.7,0.2,7c0.2,0.1,0.3,0.1,0.5,0.2C42,17.9,45.4,8,49.9,2.8c1.4-1.7,4.2-4.1,6.3-2.1
				c1.9,2,1.6,6.1,1.3,8.7c-0.3,2.4-0.9,4.8-1.7,7.1c-0.9,2.6-2.1,5.2-3.6,7.5c-1.1,1.7-2.5,3.4-4.3,4.4c1.8,2.8,2.2,5.8,1.1,9
				c5.4-0.8,11.3,0.3,15.5,3.9c0,0,0-0.1,0.1-0.1c0.5-1.3,1.6-2.4,2.8-3.2c0.8-0.5,2.5-0.9,2.7,0.4c0.1,0.7-0.2,1.4-0.6,2
				C68.7,41.7,67.5,42.8,66.1,43.2z M43.6,33.2c0-1.1-0.9-2-2-1.9c-2.6,0.1-2.6,3.8,0,3.9C42.7,35.2,43.6,34.3,43.6,33.2z
				 M35.3,31.6c0-0.9-0.7-1.6-1.6-1.2c-0.8,0.5-1.3,1.5-1,2.4c0.2,0.7,0.9,0.9,1.5,0.6C35,33.1,35.3,32.4,35.3,31.6z"/>
		</g>
	</g>
</g>
</svg>
